<svg width="38" height="44" viewBox="0 0 38 44" fill="none" xmlns="http://www.w3.org/2000/svg">
<path d="M13.9936 23.6248H17.9752C26.6248 23.6248 31.5328 19.7296 33.0952 11.7208C33.1456 11.4568 33.1912 11.2024 33.2296 10.948C33.316 10.4056 33.3592 9.91842 33.3784 9.45042C33.3928 9.12882 33.4024 8.93922 33.4 8.76162C33.3976 7.90392 33.2212 7.05563 32.8816 6.26802C32.572 5.55762 32.104 4.85922 31.4104 4.06482C29.3632 1.73682 25.7968 0.400024 21.5368 0.400024H7.96961C7.50726 0.400585 7.06025 0.565912 6.70881 0.866332C6.35736 1.16675 6.1245 1.5826 6.05201 2.03922L3.60401 17.8096L0.558406 37.4536C0.532425 37.62 0.542762 37.79 0.588706 37.9519C0.634651 38.1139 0.715114 38.264 0.824568 38.3919C0.934022 38.5199 1.06987 38.6226 1.22278 38.693C1.3757 38.7635 1.54205 38.8 1.71041 38.8H8.36321L10.4008 26.6968C10.5329 25.8396 10.9681 25.0581 11.6274 24.4944C12.2866 23.9307 13.1262 23.6222 13.9936 23.6248ZM35.8408 12.616C33.94 21.6664 27.784 26.4688 17.9728 26.4688H13.9936C13.803 26.4685 13.6187 26.5366 13.4742 26.6608C13.3296 26.7851 13.2346 26.9571 13.2064 27.1456L10.5544 43.6H17.5312C17.9357 43.6004 18.3271 43.4562 18.6347 43.1935C18.9422 42.9308 19.1459 42.5668 19.2088 42.1672L19.2784 41.8072L20.6104 33.3736L20.6968 32.908C20.7597 32.5084 20.9634 32.1445 21.271 31.8818C21.5786 31.6191 21.9699 31.4749 22.3744 31.4752H23.4304C30.2704 31.4752 35.6248 28.696 37.1896 20.6608C37.8328 17.3488 37.5064 14.5792 35.8408 12.616Z" fill="#1B1B2A"/>
</svg>
