<svg width="48" height="48" viewBox="0 0 48 48" fill="none" xmlns="http://www.w3.org/2000/svg">
<g clip-path="url(#clip0_573_1756)">
<path fill-rule="evenodd" clip-rule="evenodd" d="M44.7568 0H3.24324C1.45946 0 0 1.45946 0 3.24324V44.7568C0 46.5405 1.45946 48 3.24324 48H44.7568C46.5405 48 48 46.5405 48 44.7568V3.24324C48 1.45946 46.5405 0 44.7568 0Z" fill="#1B1B2A"/>
<path d="M33.2107 22.5405C37.0216 22.5405 40.1026 19.4594 40.1026 15.6486C40.1026 11.8378 37.0216 8.75671 33.2107 8.75671C29.3999 8.75671 26.3188 11.8378 26.3188 15.6486C26.3188 19.4594 29.3999 22.5405 33.2107 22.5405ZM33.2107 12.7135C34.8324 12.7135 36.1459 14.027 36.1459 15.6486C36.1459 17.2702 34.8324 18.5837 33.2107 18.5837C31.5891 18.5837 30.2756 17.2702 30.2756 15.6486C30.2756 14.027 31.5891 12.7135 33.2107 12.7135Z" fill="white"/>
<path d="M33.2107 25.5243C29.3999 25.5243 26.3188 28.6054 26.3188 32.4162C26.3188 36.227 29.3999 39.3081 33.2107 39.3081C37.0216 39.3081 40.1026 36.227 40.1026 32.4162C40.1026 28.6054 37.0216 25.5243 33.2107 25.5243ZM33.2107 35.3513C31.5891 35.3513 30.2756 34.0378 30.2756 32.4162C30.2756 30.7946 31.5891 29.4811 33.2107 29.4811C34.8324 29.4811 36.1459 30.7946 36.1459 32.4162C36.1459 34.0378 34.8324 35.3513 33.2107 35.3513Z" fill="white"/>
<path d="M19.1674 25.5243C17.9998 25.5243 16.9295 25.9135 16.0701 26.5621C15.2106 25.9135 14.1241 25.5243 12.9728 25.5243C10.1187 25.5243 7.7998 27.8432 7.7998 30.6973V39.3243H11.7566V30.6486C11.7566 30 12.2755 29.4811 12.9241 29.4811C13.5728 29.4811 14.0917 30 14.0917 30.6486V39.3081H18.0485V30.6486C18.0485 30 18.5674 29.4811 19.216 29.4811C19.8647 29.4811 20.3836 30 20.3836 30.6486V39.3081H24.3241V30.681C24.3241 27.8432 22.0214 25.5243 19.1674 25.5243Z" fill="white"/>
<path d="M19.1675 8.75671C17.9999 8.75671 16.9296 9.1459 16.0702 9.79455C15.2107 9.1459 14.1242 8.75671 12.9729 8.75671C10.1026 8.75671 7.78369 11.0756 7.78369 13.9297V22.5405H11.7404V13.881C11.7404 13.2324 12.2594 12.7135 12.908 12.7135C13.5567 12.7135 14.0756 13.2324 14.0756 13.881V22.5405H18.0323V13.881C18.0323 13.2324 18.5513 12.7135 19.1999 12.7135C19.8486 12.7135 20.3675 13.2324 20.3675 13.881V22.5405H24.3242V13.9297C24.3242 11.0756 22.0215 8.75671 19.1675 8.75671Z" fill="white"/>
</g>
<defs>
<clipPath id="clip0_573_1756">
<rect width="48" height="48" fill="white"/>
</clipPath>
</defs>
</svg>
