<svg width="240" height="240" viewBox="0 0 240 240" fill="none" xmlns="http://www.w3.org/2000/svg">
<path d="M240 183.552H0V183.672H240V183.552Z" fill="#EBEBEB"/>
<path d="M66.0768 186.821H50.1792V186.941H66.0768V186.821Z" fill="#EBEBEB"/>
<path d="M101.707 191.218H82.147V191.338H101.707V191.218Z" fill="#EBEBEB"/>
<path d="M49.6991 189.715H25.1807V189.835H49.6991V189.715Z" fill="#EBEBEB"/>
<path d="M215.952 187.627H171.245V187.747H215.952V187.627Z" fill="#EBEBEB"/>
<path d="M166.973 187.627H163.935V187.747H166.973V187.627Z" fill="#EBEBEB"/>
<path d="M153.331 189.653H133.061V189.773H153.331V189.653Z" fill="#EBEBEB"/>
<path d="M113.76 162.144H21.0768C20.3507 162.143 19.6548 161.853 19.1419 161.34C18.6289 160.826 18.3408 160.129 18.3408 159.403V29.1168C18.3471 28.3949 18.638 27.7046 19.1503 27.1959C19.6626 26.6873 20.3549 26.4012 21.0768 26.4H113.76C114.487 26.4 115.184 26.6888 115.698 27.2028C116.212 27.7168 116.501 28.4139 116.501 29.1408V159.403C116.501 160.13 116.212 160.827 115.698 161.341C115.184 161.855 114.487 162.144 113.76 162.144ZM21.0768 26.496C20.3826 26.4973 19.7172 26.7739 19.2267 27.2653C18.7363 27.7567 18.4608 28.4225 18.4608 29.1168V159.403C18.4608 160.097 18.7363 160.763 19.2267 161.255C19.7172 161.746 20.3826 162.023 21.0768 162.024H113.76C114.455 162.023 115.121 161.746 115.612 161.255C116.103 160.764 116.38 160.098 116.381 159.403V29.1168C116.38 28.4221 116.103 27.7562 115.612 27.265C115.121 26.7738 114.455 26.4973 113.76 26.496H21.0768Z" fill="#EBEBEB"/>
<path d="M217.589 162.144H124.901C124.174 162.143 123.478 161.854 122.964 161.34C122.451 160.826 122.161 160.13 122.16 159.403V29.1168C122.168 28.3944 122.46 27.7042 122.973 27.1956C123.486 26.6871 124.179 26.4012 124.901 26.4H217.589C218.31 26.4025 219.001 26.6891 219.512 27.1976C220.024 27.7062 220.314 28.3957 220.32 29.1168V159.403C220.32 160.128 220.033 160.824 219.521 161.338C219.009 161.852 218.314 162.141 217.589 162.144ZM124.901 26.496C124.206 26.4973 123.54 26.7738 123.049 27.265C122.558 27.7562 122.281 28.4221 122.28 29.1168V159.403C122.281 160.098 122.558 160.764 123.049 161.255C123.54 161.746 124.206 162.023 124.901 162.024H217.589C218.284 162.023 218.95 161.746 219.441 161.255C219.932 160.764 220.208 160.098 220.21 159.403V29.1168C220.208 28.4221 219.932 27.7562 219.441 27.265C218.95 26.7738 218.284 26.4973 217.589 26.496H124.901Z" fill="#EBEBEB"/>
<path d="M110.587 183.552V86.9856H71.8274V183.552H110.587Z" fill="#F0F0F0"/>
<path d="M108.456 117.835V89.4096H73.9537V117.835H108.456Z" fill="#E6E6E6"/>
<path d="M108.461 148.814V120.389H73.9585V148.814H108.461Z" fill="#E6E6E6"/>
<path d="M108.461 179.789V151.363H73.9585V179.789H108.461Z" fill="#E6E6E6"/>
<path d="M108.461 117.835V89.4096H94.8913V117.835H108.461Z" fill="#E0E0E0"/>
<path d="M108.456 148.81V120.384H94.8865V148.81H108.456Z" fill="#E0E0E0"/>
<path d="M88.8143 137.458H79.4111V148.814H88.8143V137.458Z" fill="#FAFAFA"/>
<path d="M75.4415 148.81H79.4111V137.453H75.4415V148.81Z" fill="#F0F0F0"/>
<path d="M104.002 137.458H94.5986V148.814H104.002V137.458Z" fill="#FAFAFA"/>
<path d="M90.6334 148.81H94.603V137.453H90.6334V148.81Z" fill="#F0F0F0"/>
<path d="M96.576 126.101H87.1729V137.458H96.576V126.101Z" fill="#FAFAFA"/>
<path d="M83.2032 137.458H87.1729V126.101H83.2032V137.458Z" fill="#F0F0F0"/>
<path d="M108.461 179.789V151.363H94.8913V179.789H108.461Z" fill="#E0E0E0"/>
<path d="M71.8271 183.552V86.9856H61.3008L61.3008 183.552H71.8271Z" fill="#F5F5F5"/>
<path d="M106.118 155.462H78.1006V179.789H106.118V155.462Z" fill="#F0F0F0"/>
<path d="M73.9583 179.784H78.1055V155.458H73.9583V179.784Z" fill="#E0E0E0"/>
<path d="M106.118 93.5088H78.1006V117.835H106.118V93.5088Z" fill="#F0F0F0"/>
<path d="M73.9583 117.83H78.1055V93.504H73.9583V117.83Z" fill="#E0E0E0"/>
<path d="M204.48 183.552V42.0816L137.702 42.0816V183.552H204.48Z" fill="#FAFAFA"/>
<path d="M137.703 183.552V42.0816H137.453V183.552H137.703Z" fill="#F0F0F0"/>
<path d="M197.04 46.7232H142.531V183.552H197.04V46.7232Z" fill="#E6E6E6"/>
<path d="M199.959 46.7232H143.895V183.552H199.959V46.7232Z" fill="#F0F0F0"/>
<path d="M195.874 116.275V117.998L197.597 116.275H195.874Z" fill="#E0E0E0"/>
<path d="M195.874 179.467V50.8128H147.979V179.467H195.874Z" fill="#FAFAFA"/>
<path d="M186.97 115.574C186.618 115.574 186.281 115.714 186.033 115.962C185.785 116.211 185.645 116.548 185.645 116.899C185.645 117.251 185.785 117.588 186.033 117.836C186.281 118.084 186.618 118.224 186.97 118.224H195.36V115.574H186.97Z" fill="#F5F5F5"/>
<path d="M158.486 179.467L173.102 50.8128H182.947L168.331 179.467H158.486Z" fill="white"/>
<path d="M170.448 179.467L185.064 50.8128H188.904L174.288 179.467H170.448Z" fill="white"/>
<path d="M195.874 179.462V50.808H195.355V179.462H195.874Z" fill="#E6E6E6"/>
<path d="M197.141 116.462H188.755C188.404 116.461 188.068 116.321 187.82 116.073C187.571 115.825 187.431 115.489 187.43 115.138C187.431 114.787 187.571 114.45 187.82 114.202C188.068 113.954 188.404 113.814 188.755 113.813H197.141C197.492 113.813 197.829 113.952 198.077 114.201C198.326 114.449 198.465 114.786 198.465 115.138C198.465 115.489 198.326 115.826 198.077 116.074C197.829 116.323 197.492 116.462 197.141 116.462Z" fill="#EBEBEB"/>
<path d="M54.2688 58.488H30.7056V95.9712H54.2688V58.488Z" fill="#E0E0E0"/>
<path d="M55.6847 58.488H31.3247V95.9712H55.6847V58.488Z" fill="#F5F5F5"/>
<path d="M33.3696 61.2192V93.2352H53.6496V61.2192H33.3696Z" fill="white"/>
<path d="M87.5378 40.4016H63.9746V77.8848H87.5378V40.4016Z" fill="#E0E0E0"/>
<path d="M88.9586 40.4016H64.5986V77.8848H88.9586V40.4016Z" fill="#F5F5F5"/>
<path d="M66.6382 43.1376V75.1536H86.9182V43.1376H66.6382Z" fill="white"/>
<path d="M120 205.229C171.399 205.229 213.067 202.796 213.067 199.795C213.067 196.794 171.399 194.362 120 194.362C68.6002 194.362 26.9326 196.794 26.9326 199.795C26.9326 202.796 68.6002 205.229 120 205.229Z" fill="#F5F5F5"/>
<path d="M78.5424 60.1104C79.5744 61.4784 79.6992 63.1584 78.5904 65.8704C78.1104 66.984 77.4864 68.0736 76.0944 66.2064C74.7024 64.3392 73.5072 60.9264 75.6144 60.624C77.7216 60.3216 78.5424 60.1104 78.5424 60.1104Z" fill="#263238"/>
<path d="M78.0962 195.307H81.6626L81.8162 187.046H78.2498L78.0962 195.307Z" fill="#FFC3BD"/>
<path d="M51.6191 188.971L55.0751 189.85L58.6511 182.242L55.1951 181.363L51.6191 188.971Z" fill="#FFC3BD"/>
<path d="M55.536 189.485L51.7392 188.203C51.6729 188.18 51.6008 188.181 51.5351 188.206C51.4694 188.23 51.4143 188.277 51.3792 188.338L49.7712 191.136C49.7326 191.205 49.7097 191.282 49.7044 191.361C49.699 191.441 49.7112 191.52 49.7401 191.594C49.769 191.668 49.8139 191.734 49.8715 191.789C49.9292 191.843 49.9982 191.884 50.0736 191.909C51.408 192.336 52.0752 192.475 53.7456 193.042C54.7728 193.387 57.696 194.616 59.1168 195.096C60.5376 195.576 61.1568 194.227 60.6192 193.901C58.1952 192.461 56.616 190.92 56.016 189.883C55.9091 189.697 55.7387 189.556 55.536 189.485Z" fill="#263238"/>
<path d="M81.6289 194.88H77.7601C77.6905 194.88 77.6228 194.903 77.5686 194.947C77.5144 194.991 77.4769 195.052 77.4626 195.12L76.8001 198.307C76.786 198.385 76.7892 198.465 76.8095 198.541C76.8299 198.618 76.8668 198.689 76.9176 198.749C76.9685 198.81 77.0321 198.858 77.1039 198.891C77.1757 198.924 77.2539 198.941 77.3329 198.941C78.7345 198.941 80.7649 198.835 82.5265 198.835C84.5953 198.835 85.0273 198.946 87.4465 198.946C88.9105 198.946 89.2801 197.467 88.6657 197.333C85.8577 196.723 84.9362 196.656 82.4882 195.173C82.2338 194.999 81.9367 194.897 81.6289 194.88Z" fill="#263238"/>
<path d="M80.7026 82.5168L85.5698 80.9568C85.5698 80.9568 90.6002 92.6016 92.2898 93.3264C94.5842 94.2864 96.3794 95.9232 99.3218 96.2064C99.7202 96.6624 100.373 98.1264 100.311 98.6736C96.3602 100.162 90.2738 98.5824 88.5986 97.032C84.7634 93.5088 80.7026 82.5168 80.7026 82.5168Z" fill="#FFC3BD"/>
<path d="M79.5649 79.8384C78.1969 82.9584 83.6929 92.8656 83.6929 92.8656L90.9649 89.5056C90.072 86.4818 88.8638 83.5601 87.3601 80.7888C85.0753 76.8 81.0673 76.4112 79.5649 79.8384Z" fill="#FFD033"/>
<path opacity="0.5" d="M79.5649 79.8384C78.1969 82.9584 83.6929 92.8656 83.6929 92.8656L90.9649 89.5056C90.072 86.4818 88.8638 83.5601 87.3601 80.7888C85.0753 76.8 81.0673 76.4112 79.5649 79.8384Z" fill="black"/>
<path d="M98.7168 96.2112L101.462 94.7712L102.859 98.808C102.859 98.808 101.962 99.2064 99.3984 98.8896L98.7168 96.2112Z" fill="#FFC3BD"/>
<path d="M104.198 93.7584L105.077 97.2096L102.859 98.8224L101.462 94.7856L104.198 93.7584Z" fill="#FFC3BD"/>
<path opacity="0.2" d="M81.816 187.051L81.7392 191.309H78.168L78.2496 187.051H81.816Z" fill="black"/>
<path opacity="0.2" d="M55.1904 181.363L58.6512 182.242L56.8032 186.163L53.3472 185.285L55.1904 181.363Z" fill="black"/>
<path d="M84.2256 77.8128C84.2256 77.8128 88.6992 90.0672 85.1856 110.122H66.12C65.9136 107.194 67.4064 91.4256 64.2432 77.6304C66.3449 77.2229 68.471 76.9535 70.608 76.824C73.3081 76.6679 76.015 76.6679 78.7152 76.824C80.5745 77.0123 82.4167 77.3428 84.2256 77.8128Z" fill="#FFD033"/>
<path opacity="0.5" d="M84.2256 77.8128C84.2256 77.8128 88.6992 90.0672 85.1856 110.122H66.12C65.9136 107.194 67.4064 91.4256 64.2432 77.6304C66.3449 77.2229 68.471 76.9535 70.608 76.824C73.3081 76.6679 76.015 76.6679 78.7152 76.824C80.5745 77.0123 82.4167 77.3428 84.2256 77.8128Z" fill="black"/>
<path opacity="0.2" d="M68.4722 81.0384C68.8418 83.3088 68.261 88.7184 66.2498 95.016C66.1525 89.6385 65.5807 84.2801 64.541 79.0032V78.9744C65.7938 78.8496 68.1122 78.9072 68.4722 81.0384Z" fill="black"/>
<path d="M71.4815 69.24C72.0575 71.8512 72.3887 75.0816 70.6079 76.824C70.6079 76.824 71.7215 79.4688 76.5695 79.4688C80.9999 79.4688 78.7151 76.824 78.7151 76.824C75.7919 76.128 75.8351 72.5328 76.3151 70.5072L71.4815 69.24Z" fill="#FFC3BD"/>
<path d="M76.5696 79.4688C76.0636 80.2125 75.7639 81.0771 75.7008 81.9744C75.7008 81.9744 69.576 79.8336 69.7824 76.6944C69.7824 76.6944 70.632 76.1808 71.1696 75.7632C71.1696 75.768 71.4288 78.24 76.5696 79.4688Z" fill="white"/>
<path d="M76.5698 79.4688C77.0903 80.1806 77.5103 80.9608 77.8178 81.7872C77.8178 81.7872 80.525 79.9248 79.6226 76.824C79.1128 76.6233 78.588 76.4628 78.053 76.344C78.053 76.344 78.4658 78.8016 76.5698 79.4688Z" fill="white"/>
<path opacity="0.2" d="M76.3199 70.5072C75.9606 71.9178 76.0022 73.4006 76.4399 74.7888C75.9874 74.7213 75.5474 74.587 75.1343 74.3904C73.4735 73.6176 72.6335 72.4032 71.7503 70.5936C71.6735 70.1136 71.5871 69.6816 71.4863 69.24L76.3199 70.5072Z" fill="black"/>
<path d="M80.7695 68.2944C80.5865 68.6903 80.3255 69.0453 80.0022 69.338C79.679 69.6308 79.3 69.8554 78.8879 69.9984C77.7791 70.3728 77.1455 69.3792 77.3855 68.2848C77.6015 67.3248 78.4367 65.9232 79.5791 66.024C79.8302 66.0529 80.0704 66.1428 80.2788 66.2857C80.4872 66.4287 80.6575 66.6205 80.7749 66.8443C80.8923 67.0681 80.9531 67.3173 80.9522 67.57C80.9512 67.8228 80.8885 68.0714 80.7695 68.2944Z" fill="#FFC3BD"/>
<path opacity="0.2" d="M80.7695 68.2944C80.5865 68.6903 80.3255 69.0453 80.0022 69.338C79.679 69.6308 79.3 69.8554 78.8879 69.9984C77.7791 70.3728 77.1455 69.3792 77.3855 68.2848C77.6015 67.3248 78.4367 65.9232 79.5791 66.024C79.8302 66.0529 80.0704 66.1428 80.2788 66.2857C80.4872 66.4287 80.6575 66.6205 80.7749 66.8443C80.8923 67.0681 80.9531 67.3173 80.9522 67.57C80.9512 67.8228 80.8885 68.0714 80.7695 68.2944Z" fill="black"/>
<path d="M69.8592 65.496C70.512 69.0048 70.7184 71.0928 72.7008 72.72C75.6864 75.1728 79.7904 73.104 80.184 69.4848C80.5392 66.2304 79.416 61.0368 75.8304 59.9856C75.0449 59.751 74.2119 59.7248 73.4132 59.9097C72.6146 60.0946 71.8778 60.4842 71.2754 61.0402C70.6729 61.5961 70.2256 62.2993 69.9773 63.0806C69.729 63.8618 69.6883 64.6943 69.8592 65.496Z" fill="#FFC3BD"/>
<path d="M72.2882 61.4832C73.0946 62.9904 72.6722 63.9744 71.5586 66.6576C71.0786 67.7712 70.3202 68.9568 69.0626 66.9936C67.877 65.1408 66.0674 61.7136 67.6226 61.3392C69.701 60.8688 72.2882 61.4832 72.2882 61.4832Z" fill="#263238"/>
<path d="M71.2753 62.4672C72.7153 62.9472 73.8577 62.2224 74.1313 61.5312C75.2833 62.04 76.7953 62.1072 77.2849 61.4544C78.2449 61.4544 79.2721 61.6272 79.7329 60.2544C80.1937 58.8816 79.6225 57.648 78.1153 56.952C78.0817 57.2592 77.2993 57.6576 76.5649 57.1488C76.153 56.9169 75.6829 56.8089 75.2112 56.8379C74.7394 56.8668 74.2861 57.0315 73.9057 57.312C72.3361 56.904 71.2273 56.6784 70.3249 57.7104C68.8321 57.3984 67.0129 58.752 67.2625 59.928C66.0913 61.368 67.2241 62.5632 68.4241 62.7696C68.6641 63.36 70.9585 63.0768 71.2753 62.4672Z" fill="#263238"/>
<path d="M68.7695 69.5568C69.3249 70.2579 70.1333 70.7129 71.0207 70.824C72.1871 70.9584 72.5615 69.864 72.0623 68.8464C71.6111 67.9296 70.4591 66.7632 69.3743 67.0944C68.2895 67.4256 68.0879 68.6832 68.7695 69.5568Z" fill="#FFC3BD"/>
<path d="M72.6577 110.122C72.6577 110.122 73.0369 114.605 73.5169 120.682C74.0689 127.57 74.7457 136.522 75.1489 143.323C75.1489 143.362 75.1489 143.39 75.1489 143.419C75.2257 144.71 75.2929 145.925 75.3457 147.034C75.8881 158.146 77.0017 190.483 77.0017 190.483H83.0401C83.0401 190.483 86.0785 157.483 86.2081 146.174C86.3281 135.298 85.1857 110.122 85.1857 110.122H72.6577Z" fill="#263238"/>
<path d="M76.5601 188.64C76.5361 188.64 76.6081 190.613 76.6081 190.613H83.5729L83.8129 188.395L76.5601 188.64Z" fill="#FFD033"/>
<path opacity="0.2" d="M73.5166 120.682C74.0686 127.57 74.7454 136.522 75.1486 143.323C75.1486 143.362 75.1486 143.39 75.1486 143.419C76.627 136.958 77.227 128.923 77.0158 115.694L73.5166 120.682Z" fill="black"/>
<path d="M78.4271 110.122C78.4271 110.122 75.0671 135.888 73.0751 146.122C70.9151 157.301 58.5983 185.794 58.5983 185.794L52.2671 184.186C52.2671 184.186 61.2863 158.203 62.4047 147.134C63.6143 135.134 66.1199 110.146 66.1199 110.146L78.4271 110.122Z" fill="#263238"/>
<path d="M52.6463 182.501C52.6223 182.501 51.9263 184.2 51.9263 184.2L58.8815 185.971L59.9663 184.085L52.6463 182.501Z" fill="#FFD033"/>
<path d="M75.2687 65.928C75.3071 66.216 75.4847 66.432 75.6719 66.408C75.8591 66.384 75.9791 66.1392 75.9407 65.8512C75.9023 65.5632 75.7247 65.3712 75.5423 65.3712C75.3599 65.3712 75.2351 65.64 75.2687 65.928Z" fill="#263238"/>
<path d="M78.4798 65.592C78.5134 65.88 78.691 66.072 78.8782 66.072C79.0654 66.072 79.1854 65.8032 79.147 65.5152C79.1086 65.2272 78.9358 65.0112 78.7486 65.0352C78.5614 65.0592 78.4414 65.304 78.4798 65.592Z" fill="#263238"/>
<path d="M77.4766 65.8416C77.9228 66.686 78.4815 67.4659 79.1374 68.16C78.9601 68.3208 78.7492 68.44 78.52 68.509C78.2908 68.5779 78.0491 68.5948 77.8126 68.5584L77.4766 65.8416Z" fill="#ED847E"/>
<path d="M77.0977 69.36C77.1193 69.3554 77.1385 69.3432 77.1518 69.3255C77.165 69.3079 77.1714 69.286 77.1697 69.264C77.1662 69.2419 77.1542 69.2221 77.1363 69.2086C77.1184 69.1952 77.096 69.1892 77.0737 69.192C76.719 69.2465 76.3564 69.2167 76.0153 69.105C75.6742 68.9932 75.3643 68.8027 75.1105 68.5488C75.0939 68.5343 75.0726 68.5263 75.0505 68.5263C75.0285 68.5263 75.0072 68.5343 74.9905 68.5488C74.975 68.5649 74.9663 68.5864 74.9663 68.6088C74.9663 68.6312 74.975 68.6527 74.9905 68.6688C75.2614 68.9434 75.594 69.1493 75.9605 69.2695C76.327 69.3897 76.7168 69.4208 77.0977 69.36Z" fill="#263238"/>
<path d="M74.1743 64.9776C74.1994 64.9744 74.2235 64.9659 74.245 64.9527C74.2666 64.9394 74.285 64.9218 74.2991 64.9008C74.3982 64.7155 74.5409 64.5571 74.7148 64.4392C74.8887 64.3213 75.0887 64.2474 75.2975 64.224C75.3196 64.2228 75.3412 64.2172 75.3611 64.2076C75.3811 64.198 75.3989 64.1846 75.4136 64.1681C75.4283 64.1516 75.4396 64.1323 75.4469 64.1115C75.4542 64.0906 75.4572 64.0685 75.4559 64.0464C75.4535 64.0014 75.4335 63.9592 75.4003 63.9287C75.3671 63.8982 75.3234 63.8819 75.2783 63.8832C75.0135 63.9075 74.7588 63.9969 74.5368 64.1435C74.3149 64.29 74.1327 64.4892 74.0063 64.7232C73.9851 64.7623 73.9797 64.808 73.9914 64.8509C74.003 64.8938 74.0307 64.9306 74.0687 64.9536C74.0995 64.975 74.1374 64.9837 74.1743 64.9776Z" fill="#263238"/>
<path d="M79.776 64.2864C79.8003 64.2819 79.8232 64.272 79.8432 64.2576C79.8614 64.2448 79.8768 64.2284 79.8884 64.2094C79.9 64.1904 79.9076 64.1693 79.9108 64.1473C79.9139 64.1252 79.9126 64.1028 79.9067 64.0813C79.9009 64.0599 79.8907 64.0398 79.8768 64.0224C79.7255 63.7996 79.5235 63.616 79.2873 63.4866C79.0511 63.3573 78.7876 63.2859 78.5184 63.2784C78.4961 63.279 78.4742 63.2841 78.4539 63.2935C78.4337 63.3029 78.4156 63.3163 78.4008 63.3329C78.3859 63.3496 78.3747 63.3691 78.3676 63.3902C78.3606 63.4114 78.358 63.4338 78.36 63.456C78.3625 63.501 78.3825 63.5432 78.4156 63.5737C78.4488 63.6042 78.4926 63.6205 78.5376 63.6192C78.7508 63.6275 78.9589 63.6861 79.145 63.7904C79.3311 63.8947 79.4898 64.0417 79.608 64.2192C79.6274 64.2444 79.6533 64.264 79.6828 64.2758C79.7124 64.2876 79.7446 64.2913 79.776 64.2864Z" fill="#263238"/>
<path d="M62.4002 82.9584L66.9938 85.4208C66.9938 85.4208 61.7618 96.7536 62.4434 98.4384C63.3698 100.733 64.8434 105.802 66.4274 108.298C66.3026 108.874 65.525 110.218 65.045 110.51C61.3826 108.254 57.1682 100.56 57.0914 98.3184C56.9186 93.2112 62.4002 82.9584 62.4002 82.9584Z" fill="#FFC3BD"/>
<path d="M64.243 77.6304C60.883 78.1104 57.3022 89.8128 57.3022 89.8128L64.5023 93.816C64.5023 93.816 67.4878 88.2528 68.923 84.1248C70.4158 79.8 67.8478 77.1024 64.243 77.6304Z" fill="#FFD033"/>
<path opacity="0.5" d="M64.243 77.6304C60.883 78.1104 57.3022 89.8128 57.3022 89.8128L64.5023 93.816C64.5023 93.816 67.4878 88.2528 68.923 84.1248C70.4158 79.8 67.8478 77.1024 64.243 77.6304Z" fill="black"/>
<path d="M56.467 190.459C56.6884 190.554 56.9355 190.571 57.1678 190.507C57.2452 190.475 57.3133 190.423 57.3661 190.358C57.4189 190.293 57.4546 190.215 57.4702 190.133C57.4844 190.085 57.4856 190.035 57.4738 189.987C57.462 189.939 57.4375 189.895 57.403 189.859C57.091 189.542 55.7902 189.859 55.6414 189.859C55.6255 189.863 55.611 189.871 55.5999 189.883C55.5888 189.895 55.5815 189.91 55.579 189.926C55.5774 189.943 55.5806 189.96 55.5882 189.976C55.5959 189.991 55.6077 190.004 55.6222 190.013C55.8853 190.194 56.1689 190.344 56.467 190.459ZM57.187 189.926C57.224 189.933 57.2578 189.951 57.283 189.979C57.2932 189.996 57.2986 190.015 57.2986 190.034C57.2986 190.054 57.2932 190.073 57.283 190.09C57.2731 190.146 57.2496 190.199 57.2145 190.244C57.1793 190.289 57.1336 190.325 57.0814 190.349C56.6458 190.393 56.2097 190.269 55.8622 190.003C56.2937 189.886 56.7449 189.86 57.187 189.926Z" fill="#FFD033"/>
<path d="M55.6369 190.046H55.6801C56.0881 189.97 56.9953 189.456 57.0433 189.048C57.0502 188.985 57.0355 188.921 57.0015 188.867C56.9675 188.813 56.9163 188.772 56.8561 188.75C56.7969 188.725 56.7332 188.712 56.6689 188.712C56.6046 188.712 56.5409 188.725 56.4817 188.75C56.0017 188.942 55.6033 189.898 55.5841 189.936C55.577 189.949 55.5732 189.964 55.5732 189.979C55.5732 189.994 55.577 190.009 55.5841 190.022C55.5979 190.037 55.6169 190.046 55.6369 190.046ZM56.7505 188.894H56.7841C56.8849 188.942 56.8801 188.995 56.8753 189.019C56.8753 189.254 56.2417 189.677 55.8145 189.821C55.9441 189.547 56.2273 189.014 56.5441 188.89C56.6114 188.867 56.6843 188.869 56.7505 188.894Z" fill="#FFD033"/>
<path d="M83.1314 195.514C83.434 195.541 83.737 195.465 83.9906 195.298C84.0465 195.246 84.0891 195.181 84.115 195.109C84.1408 195.037 84.1492 194.96 84.1394 194.885C84.1359 194.838 84.1209 194.793 84.0958 194.754C84.0706 194.715 84.0362 194.682 83.9954 194.659C83.5538 194.419 82.1378 195.139 81.9794 195.23C81.964 195.238 81.9514 195.251 81.9437 195.267C81.9359 195.282 81.9333 195.3 81.9362 195.317C81.9388 195.334 81.9466 195.35 81.9586 195.363C81.9706 195.376 81.9862 195.385 82.0034 195.389C82.375 195.464 82.7525 195.505 83.1314 195.514ZM83.7554 194.779C83.8097 194.777 83.8639 194.787 83.9138 194.808C83.9304 194.817 83.9444 194.83 83.9545 194.846C83.9646 194.862 83.9704 194.88 83.9714 194.899C83.9788 194.949 83.9739 195 83.9571 195.048C83.9404 195.095 83.9124 195.138 83.8754 195.173C83.6594 195.365 83.0738 195.398 82.2818 195.269C82.7416 195.023 83.2399 194.857 83.7554 194.779Z" fill="#FFD033"/>
<path d="M82.0223 195.389H82.0799C82.5071 195.192 83.3375 194.429 83.2655 194.021C83.2655 193.925 83.1743 193.805 82.9439 193.786C82.8582 193.772 82.7706 193.778 82.6876 193.803C82.6045 193.828 82.5281 193.871 82.4639 193.93C82.0175 194.299 81.9455 195.259 81.9455 195.302C81.9436 195.317 81.9457 195.332 81.9517 195.345C81.9576 195.359 81.9671 195.371 81.9791 195.379C81.9927 195.385 82.0074 195.389 82.0223 195.389ZM82.8575 193.949H82.9055C83.0591 193.949 83.0687 194.021 83.0735 194.04C83.1167 194.285 82.5551 194.89 82.1135 195.154C82.1412 194.75 82.2957 194.365 82.5551 194.054C82.6386 193.981 82.7465 193.942 82.8575 193.944V193.949Z" fill="#FFD033"/>
<path d="M65.7598 107.837L69.1198 108.182L66.7822 111.571C66.7822 111.571 63.835 111.173 63.6958 108.84L65.7598 107.837Z" fill="#FFC3BD"/>
<path d="M71.0591 109.493L68.7935 112.454L66.8159 111.571L69.1535 108.182L71.0591 109.493Z" fill="#FFC3BD"/>
<path d="M192.091 107.65L195.451 146.568C195.72 149.736 193.786 152.515 191.131 152.741L117.278 159.077C114.638 159.307 112.253 156.898 111.998 153.734L108.638 114.811C108.572 114.081 108.628 113.344 108.806 112.632C109.334 110.458 110.938 108.792 112.944 108.643L186.797 102.302C188.798 102.13 190.637 103.478 191.554 105.523C191.849 106.197 192.031 106.916 192.091 107.65Z" fill="#FFD033"/>
<path opacity="0.1" d="M192.091 107.65L195.451 146.568C195.72 149.736 193.786 152.515 191.131 152.741L117.278 159.077C114.638 159.307 112.253 156.898 111.998 153.734L108.638 114.811C108.572 114.081 108.628 113.344 108.806 112.632C109.334 110.458 110.938 108.792 112.944 108.643L186.797 102.302C188.798 102.13 190.637 103.478 191.554 105.523C191.849 106.197 192.031 106.916 192.091 107.65Z" fill="black"/>
<path d="M200.859 130.592L200.335 130.655L200.547 132.409L201.071 132.345L200.859 130.592Z" fill="#FFD033"/>
<path d="M199.837 122.125L199.313 122.189L200.102 128.722L200.627 128.658L199.837 122.125Z" fill="#FFD033"/>
<path d="M195.399 100.69L200.227 140.606C200.616 143.851 198.725 146.779 196.018 147.106L120.279 156.269C117.571 156.595 115.032 154.205 114.639 150.955L109.81 111.043C109.718 110.293 109.75 109.532 109.906 108.792C110.386 106.541 111.96 104.789 114.019 104.539L189.759 95.3808C191.818 95.1312 193.776 96.4512 194.77 98.5248C195.097 99.2068 195.31 99.9383 195.399 100.69Z" fill="#FFD033"/>
<path opacity="0.1" d="M194.77 98.5248L160.416 121.656C158.735 122.805 156.801 123.533 154.78 123.778C152.758 124.023 150.707 123.777 148.8 123.062L109.92 108.792C110.4 106.541 111.974 104.789 114.034 104.539L189.773 95.3808C191.818 95.1312 193.776 96.4512 194.77 98.5248Z" fill="black"/>
<path d="M181.954 107.15L172.085 113.794L168.854 115.973L160.416 121.656C158.778 122.78 156.899 123.502 154.93 123.764C152.961 124.026 150.958 123.82 149.083 123.163L148.781 123.062L144.048 121.325L133.392 117.413L128.41 115.584L122.765 113.51L122.357 103.531L121.44 81.3552L164.798 79.5936L181.325 92.1168L181.498 96.3744L181.954 107.15Z" fill="#FFD033"/>
<path opacity="0.7" d="M181.954 107.15L172.085 113.794L168.854 115.973L160.416 121.656C158.778 122.78 156.899 123.502 154.93 123.764C152.961 124.026 150.958 123.82 149.083 123.163L148.781 123.062L144.048 121.325L133.392 117.413L128.41 115.584L122.765 113.51L122.357 103.531L121.44 81.3552L164.798 79.5936L181.325 92.1168L181.498 96.3744L181.954 107.15Z" fill="#FAFAFA"/>
<g opacity="0.9">
<path d="M175.843 96.528L127.843 98.4768C127.575 98.4874 127.314 98.3929 127.115 98.2136C126.916 98.0342 126.795 97.7842 126.777 97.5168C126.768 97.2499 126.863 96.9898 127.042 96.7918C127.222 96.5938 127.471 96.4733 127.737 96.456L175.737 94.5072C176.005 94.4966 176.266 94.5911 176.466 94.7704C176.665 94.9498 176.786 95.1998 176.803 95.4672C176.814 95.7345 176.719 95.9952 176.54 96.1935C176.36 96.3918 176.11 96.5119 175.843 96.528Z" fill="white"/>
<path d="M176.097 102.907L128.097 104.856C127.83 104.867 127.568 104.772 127.369 104.593C127.17 104.413 127.049 104.163 127.032 103.896C127.023 103.629 127.117 103.368 127.297 103.169C127.476 102.97 127.725 102.849 127.992 102.83L175.992 100.882C176.259 100.872 176.52 100.967 176.719 101.146C176.918 101.325 177.039 101.575 177.057 101.842C177.066 102.109 176.97 102.369 176.791 102.567C176.613 102.766 176.364 102.888 176.097 102.907Z" fill="white"/>
<path d="M176.357 109.282L128.357 111.23C128.089 111.241 127.828 111.147 127.629 110.967C127.43 110.788 127.309 110.538 127.291 110.27C127.281 110.003 127.375 109.742 127.555 109.544C127.734 109.346 127.984 109.226 128.251 109.21L176.251 107.261C176.519 107.25 176.779 107.345 176.978 107.524C177.176 107.704 177.296 107.954 177.312 108.221C177.323 108.487 177.229 108.747 177.05 108.945C176.872 109.144 176.623 109.264 176.357 109.282Z" fill="white"/>
<path d="M172.085 113.794L168.854 115.973L133.392 117.413L128.41 115.584C128.451 115.579 128.493 115.579 128.534 115.584L172.085 113.794Z" fill="white"/>
<path d="M158.947 121.738V121.776C158.947 122.037 158.848 122.289 158.67 122.48C158.492 122.67 158.248 122.786 157.987 122.803L149.102 123.163L148.8 123.062L144.067 121.325L157.905 120.758C158.172 120.754 158.43 120.854 158.624 121.037C158.819 121.22 158.934 121.471 158.947 121.738Z" fill="white"/>
</g>
<path opacity="0.1" d="M181.344 92.1168L169.863 91.6224L164.818 79.5936L181.344 92.1168Z" fill="#263238"/>
<path d="M181.344 92.1168L170.203 90.2112L164.818 79.5936L181.344 92.1168Z" fill="#FFD033"/>
<path d="M203.429 45.5664C203.429 55.3296 192.73 64.9248 191.127 64.9248C189.523 64.9248 178.824 55.3248 178.824 45.5664C178.824 39.024 184.33 33.7152 191.127 33.7152C197.923 33.7152 203.429 39.024 203.429 45.5664Z" fill="#FFD033"/>
<path opacity="0.1" d="M188.842 43.1328C186.614 45.576 183.59 46.4496 182.088 45.0528C180.586 43.656 181.171 40.5936 183.394 38.1504C185.616 35.7072 188.645 34.8336 190.152 36.2016C191.659 37.5696 191.069 40.6896 188.842 43.1328Z" fill="white"/>
<path opacity="0.1" d="M182.28 52.968C181.987 52.2384 182.064 51.528 182.453 51.3648C182.842 51.2016 183.413 51.672 183.687 52.4016C183.96 53.1312 183.903 53.8416 183.514 54C183.125 54.1584 182.573 53.6928 182.28 52.968Z" fill="white"/>
<path d="M190.598 95.6448C190.547 95.6436 190.497 95.6224 190.461 95.5858C190.424 95.5492 190.403 95.4998 190.402 95.448C190.387 94.8006 190.583 94.1658 190.958 93.6384C191.281 93.1658 191.453 92.6071 191.453 92.0352C191.453 91.4633 191.281 90.9046 190.958 90.432C190.596 89.8982 190.402 89.2677 190.402 88.6224C190.402 87.9771 190.596 87.3466 190.958 86.8128C191.281 86.3412 191.453 85.7832 191.453 85.212C191.453 84.6407 191.281 84.0828 190.958 83.6112C190.596 83.0783 190.402 82.4486 190.402 81.804C190.402 81.1594 190.596 80.5297 190.958 79.9968C191.281 79.5252 191.453 78.9672 191.453 78.396C191.453 77.8247 191.281 77.2668 190.958 76.7952C190.596 76.2623 190.402 75.6326 190.402 74.988C190.402 74.3434 190.596 73.7137 190.958 73.1808C191.281 72.7092 191.453 72.1512 191.453 71.58C191.453 71.0087 191.281 70.4508 190.958 69.9792C190.596 69.4463 190.402 68.8166 190.402 68.172C190.402 67.5274 190.596 66.8976 190.958 66.3648C191.287 65.8979 191.455 65.3371 191.438 64.7664C191.446 64.7189 191.47 64.6756 191.506 64.6443C191.543 64.613 191.59 64.5958 191.638 64.5958C191.686 64.5958 191.732 64.613 191.769 64.6443C191.805 64.6756 191.829 64.7189 191.837 64.7664C191.85 65.4122 191.655 66.0452 191.28 66.5712C190.952 67.0403 190.784 67.6024 190.8 68.1744C190.783 68.7451 190.951 69.3059 191.28 69.7728C191.643 70.3057 191.837 70.9354 191.837 71.58C191.837 72.2246 191.643 72.8543 191.28 73.3872C190.955 73.8578 190.781 74.4161 190.781 74.988C190.781 75.5599 190.955 76.1182 191.28 76.5888C191.643 77.1217 191.837 77.7514 191.837 78.396C191.837 79.0406 191.643 79.6703 191.28 80.2032C190.955 80.6738 190.781 81.2321 190.781 81.804C190.781 82.3759 190.955 82.9342 191.28 83.4048C191.643 83.9377 191.837 84.5674 191.837 85.212C191.837 85.8566 191.643 86.4863 191.28 87.0192C190.955 87.4905 190.78 88.0497 190.78 88.6224C190.78 89.1951 190.955 89.7543 191.28 90.2256C191.643 90.7594 191.836 91.3899 191.836 92.0352C191.836 92.6805 191.643 93.311 191.28 93.8448C190.951 94.3132 190.782 94.8757 190.8 95.448C190.8 95.4743 190.795 95.5002 190.785 95.5244C190.774 95.5486 190.759 95.5705 190.741 95.5889C190.722 95.6072 190.7 95.6216 190.675 95.6312C190.651 95.6408 190.625 95.6454 190.598 95.6448Z" fill="#263238"/>
<path d="M191.127 64.464C190.747 64.464 188.247 66.72 188.247 69.0144H194.016C194.016 66.72 191.52 64.464 191.127 64.464Z" fill="#FFD033"/>
<path d="M191.693 64.5408H190.56C190.467 64.5408 190.392 64.616 190.392 64.7088V64.8288C190.392 64.9216 190.467 64.9968 190.56 64.9968H191.693C191.786 64.9968 191.861 64.9216 191.861 64.8288V64.7088C191.861 64.616 191.786 64.5408 191.693 64.5408Z" fill="#263238"/>
<path d="M126.24 54.6912C126.24 64.4496 115.541 74.0448 113.938 74.0448C112.334 74.0448 101.635 64.4448 101.635 54.6912C101.635 48.144 107.141 42.8352 113.938 42.8352C120.734 42.8352 126.24 48.144 126.24 54.6912Z" fill="#263238"/>
<path opacity="0.1" d="M111.943 52.6528C114.169 50.2089 114.756 47.1178 113.252 45.7486C111.749 44.3793 108.726 45.2505 106.5 47.6944C104.274 50.1383 103.688 53.2294 105.191 54.5986C106.694 55.9678 109.717 55.0966 111.943 52.6528Z" fill="white"/>
<path opacity="0.1" d="M105.379 62.4864C105.087 61.7568 105.163 61.0464 105.552 60.8832C105.941 60.72 106.512 61.1904 106.786 61.92C107.059 62.6496 107.002 63.36 106.613 63.5232C106.224 63.6864 105.672 63.216 105.379 62.4864Z" fill="white"/>
<path d="M113.39 104.765C113.338 104.765 113.288 104.744 113.251 104.707C113.214 104.67 113.194 104.62 113.194 104.568C113.179 103.921 113.375 103.286 113.75 102.758C114.073 102.286 114.245 101.727 114.245 101.155C114.245 100.583 114.073 100.025 113.75 99.552C113.388 99.0182 113.194 98.3877 113.194 97.7424C113.194 97.0971 113.388 96.4666 113.75 95.9328C114.079 95.4659 114.247 94.9051 114.23 94.3344C114.246 93.7624 114.078 93.2003 113.75 92.7312C113.388 92.1983 113.194 91.5686 113.194 90.924C113.194 90.2794 113.388 89.6497 113.75 89.1168C114.079 88.6499 114.247 88.0891 114.23 87.5184C114.246 86.9464 114.078 86.3843 113.75 85.9152C113.388 85.3823 113.194 84.7526 113.194 84.108C113.194 83.4634 113.388 82.8337 113.75 82.3008C114.072 81.8299 114.245 81.2728 114.245 80.7024C114.245 80.132 114.072 79.5749 113.75 79.104C113.388 78.5711 113.194 77.9414 113.194 77.2968C113.194 76.6522 113.388 76.0225 113.75 75.4896C114.078 75.0205 114.246 74.4584 114.23 73.8864C114.232 73.8346 114.253 73.7852 114.289 73.7486C114.326 73.7119 114.375 73.6908 114.427 73.6896C114.479 73.6896 114.529 73.7103 114.566 73.7472C114.603 73.7842 114.624 73.8342 114.624 73.8864C114.639 74.5332 114.445 75.1677 114.072 75.696C113.747 76.1656 113.573 76.7232 113.573 77.2944C113.573 77.8656 113.747 78.4232 114.072 78.8928C114.432 79.4269 114.624 80.0561 114.624 80.7C114.624 81.3439 114.432 81.9731 114.072 82.5072C113.744 82.9763 113.576 83.5384 113.592 84.1104C113.575 84.6811 113.743 85.2419 114.072 85.7088C114.432 86.2429 114.624 86.8721 114.624 87.516C114.624 88.1599 114.432 88.7891 114.072 89.3232C113.744 89.7923 113.576 90.3544 113.592 90.9264C113.575 91.4971 113.743 92.0579 114.072 92.5248C114.432 93.0589 114.624 93.6881 114.624 94.332C114.624 94.9759 114.432 95.6051 114.072 96.1392C113.747 96.6105 113.572 97.1697 113.572 97.7424C113.572 98.3151 113.747 98.8743 114.072 99.3456C114.432 99.8804 114.624 100.51 114.624 101.155C114.624 101.8 114.432 102.43 114.072 102.965C113.744 103.434 113.575 103.996 113.592 104.568C113.592 104.594 113.587 104.62 113.577 104.644C113.566 104.669 113.551 104.691 113.533 104.709C113.514 104.727 113.492 104.742 113.467 104.751C113.443 104.761 113.417 104.765 113.39 104.765Z" fill="#FFD033"/>
<path d="M113.919 73.5888C113.539 73.5888 111.039 75.84 111.039 78.1344H116.799C116.808 75.84 114.293 73.5888 113.919 73.5888Z" fill="#263238"/>
<path d="M114.485 73.6608H113.352C113.259 73.6608 113.184 73.736 113.184 73.8288V73.9488C113.184 74.0416 113.259 74.1168 113.352 74.1168H114.485C114.578 74.1168 114.653 74.0416 114.653 73.9488V73.8288C114.653 73.736 114.578 73.6608 114.485 73.6608Z" fill="#FFD033"/>
<path d="M197.787 104.556C200.695 101.886 200.887 97.3652 198.217 94.4578C195.548 91.5503 191.026 91.3577 188.119 94.0275C185.211 96.6973 185.019 101.219 187.689 104.126C190.358 107.033 194.88 107.226 197.787 104.556Z" fill="#DE5753"/>
<path d="M194.371 95.8416V103.042H192.384V98.328C192.091 98.5542 191.778 98.7534 191.448 98.9232C191.083 99.0969 190.704 99.2414 190.315 99.3552V97.7472C190.879 97.5861 191.408 97.3225 191.875 96.9696C192.245 96.666 192.541 96.2839 192.744 95.8512L194.371 95.8416Z" fill="white"/>
</svg>
