<svg width="320" height="272" viewBox="0 0 320 272" fill="none" xmlns="http://www.w3.org/2000/svg">
<path d="M272.644 207.708H239.672L233.549 221.234H211.045L245.464 151.613H267.184L301.715 221.234H278.774L272.644 207.708ZM266.182 193.189L256.158 170.91L246.134 193.189H266.182Z" fill="#E0E0E0"/>
<path d="M120.009 131.465C120.009 141.434 110.323 147.29 92.0524 147.29H55.3697V89.6132H90.1195C107.981 89.6132 116.714 95.7922 116.714 104.689C116.714 110.21 113.413 114.658 107.593 117.209C115.261 119.52 120.009 124.46 120.009 131.465ZM74.3882 101.39V112.515H87.587C93.9923 112.515 97.2938 110.623 97.2938 106.911C97.2938 103.199 93.9923 101.39 87.587 101.39H74.3882ZM100.595 129.651C100.595 125.699 97.068 123.801 90.5004 123.801H74.3882V135.501H90.5004C97.0962 135.501 100.595 133.609 100.595 129.651Z" fill="#EBEBEB"/>
<path d="M25.1982 266.074C25.1982 266.074 11.6467 206.481 11.6115 194.225C11.5621 177.257 26.8701 170.503 26.8701 170.503L20.9303 156.133H53.6343L48.4705 170.401C48.4705 170.401 65.6902 178.149 63.2847 195.746C58.8263 228.646 51.6379 266.074 51.6379 266.074H25.1982Z" fill="#F5F5F5"/>
<path d="M56.3926 177.257C56.2707 177.269 56.1476 177.269 56.0257 177.257C55.6721 177.223 55.3163 177.209 54.9605 177.215C53.5923 177.235 52.2424 177.485 50.9889 177.951C49.0138 178.705 47.2707 179.836 45.8957 181.256C45.0248 182.131 44.2414 183.067 43.5536 184.052C42.7631 185.148 42.0766 186.295 41.5008 187.483C40.8544 188.776 40.5301 190.168 40.5485 191.572C40.5975 193.089 41.2829 194.542 42.4814 195.668C43.1129 196.242 43.9107 196.665 44.7952 196.895C45.7193 197.131 46.7078 197.11 47.6169 196.835C48.5501 196.53 49.3886 196.048 50.0684 195.425C50.7482 194.802 51.2513 194.056 51.5392 193.243C51.8151 192.381 51.8346 191.475 51.5957 190.606C51.3568 189.736 50.8671 188.931 50.1706 188.261C48.7274 186.81 46.7306 185.833 44.5271 185.501C42.2383 185.214 39.9006 185.458 37.762 186.208C35.5449 186.957 33.4935 188.02 31.6952 189.351C28.0685 191.93 25.5526 195.457 24.5421 199.38C24.0843 201.237 24.1301 203.157 24.6762 204.996C25.1332 206.776 26.2658 208.378 27.9 209.559C28.6774 210.102 29.6132 210.458 30.6089 210.588C31.585 210.723 32.5857 210.558 33.4306 210.121C34.5542 209.423 35.3626 208.419 35.7219 207.276C36.0811 206.134 35.9696 204.922 35.4058 203.841C35.0285 203.177 34.4984 202.585 33.8468 202.098C32.5884 201.188 31.0619 200.586 29.4308 200.356C26.6038 199.948 23.6974 200.371 21.1913 201.553C19.2831 202.422 17.6237 203.636 16.3308 205.11C15.4993 206.032 14.8358 207.056 14.3627 208.146C14.0382 208.894 13.9253 209.307 13.8971 209.301C13.9866 208.895 14.1116 208.494 14.271 208.104C14.7134 206.99 15.3585 205.941 16.1827 204.996C17.4727 203.487 19.1396 202.237 21.0643 201.338C23.6293 200.099 26.6166 199.643 29.5296 200.045C31.2233 200.281 32.8102 200.901 34.1219 201.841C34.8127 202.354 35.3763 202.979 35.7797 203.679C36.1817 204.417 36.3773 205.225 36.3511 206.038C36.3632 206.895 36.1262 207.741 35.6611 208.501C35.196 209.261 34.5171 209.912 33.6846 210.397C32.7673 210.869 31.6839 211.053 30.623 210.918C29.5459 210.778 28.5352 210.389 27.7025 209.792C25.9887 208.577 24.798 206.913 24.3164 205.062C23.7493 203.169 23.6962 201.191 24.1612 199.278C25.1698 195.275 27.7094 191.667 31.3849 189.016C33.2272 187.655 35.3288 186.57 37.5997 185.807C39.8162 185.037 42.2374 184.793 44.6047 185.1C46.9017 185.459 48.9795 186.486 50.481 188.004C51.198 188.747 51.7178 189.613 52.0048 190.543C52.2821 191.46 52.2503 192.424 51.913 193.327C51.6039 194.198 51.0607 194.997 50.3263 195.659C49.5918 196.322 48.6861 196.831 47.6804 197.147C46.7009 197.432 45.6412 197.453 44.6471 197.207C43.6941 196.957 42.8368 196.496 42.1639 195.871C40.9286 194.69 40.2263 193.176 40.1816 191.596C40.1766 190.156 40.5199 188.729 41.1904 187.405C41.7871 186.208 42.4948 185.053 43.3067 183.951C44.0092 182.958 44.8117 182.018 45.7052 181.142C47.1145 179.707 48.9031 178.575 50.9254 177.837C52.2041 177.38 53.5799 177.149 54.9676 177.161C55.4453 177.147 55.9233 177.179 56.3926 177.257Z" fill="#E0E0E0"/>
<path d="M57.2391 222.27C57.3192 223.289 57.2169 224.312 56.9358 225.305C56.6497 226.475 56.1749 227.605 55.5249 228.664C54.6687 230.083 53.5056 231.353 52.0965 232.406C50.3889 233.691 48.3418 234.607 46.1285 235.077C43.579 235.639 40.8979 235.606 38.3687 234.981C35.5685 234.261 33.1183 232.791 31.3849 230.79C29.4655 228.673 28.5134 226.038 28.7042 223.372C28.7823 222.001 29.4617 220.704 30.6089 219.737C31.2168 219.3 31.9456 219.002 32.7267 218.87C33.5078 218.738 34.3157 218.777 35.0743 218.983C35.8077 219.157 36.492 219.455 37.0861 219.859C37.6801 220.264 38.1716 220.766 38.5309 221.336C39.164 222.454 39.3234 223.722 38.9824 224.928C38.6816 226.064 38.0345 227.113 37.1059 227.97C36.2285 228.764 35.1603 229.389 33.9738 229.802C31.8504 230.536 29.5369 230.784 27.2651 230.52C25.4049 230.328 23.5995 229.857 21.932 229.131C20.6747 228.588 19.5096 227.904 18.4683 227.096C17.5606 226.427 16.7801 225.644 16.1545 224.773C16.1545 224.773 16.218 224.82 16.3167 224.922L16.74 225.377C17.3155 225.947 17.9429 226.478 18.6165 226.964C21.0702 228.772 24.1085 229.911 27.3357 230.233C29.5452 230.465 31.7879 230.209 33.8468 229.491C34.9814 229.08 35.999 228.467 36.8308 227.694C37.7025 226.879 38.3079 225.884 38.5874 224.808C38.8978 223.686 38.7459 222.507 38.157 221.468C37.8263 220.945 37.3736 220.486 36.8266 220.117C36.2796 219.749 35.6497 219.479 34.9755 219.324C34.2922 219.137 33.564 219.1 32.8593 219.217C32.1547 219.334 31.4967 219.602 30.9475 219.995C29.8747 220.897 29.2423 222.109 29.1768 223.389C28.9938 225.958 29.908 228.496 31.7517 230.538C33.4258 232.47 35.7879 233.893 38.4886 234.598C40.9413 235.212 43.5434 235.255 46.0227 234.724C48.1884 234.284 50.197 233.407 51.8778 232.167C53.2708 231.145 54.4285 229.913 55.2921 228.533C55.9587 227.496 56.4593 226.389 56.7806 225.24C56.9857 224.511 57.1225 223.771 57.1897 223.024C57.1897 222.791 57.1897 222.599 57.232 222.426C57.2281 222.374 57.2305 222.321 57.2391 222.27Z" fill="#E0E0E0"/>
<path d="M51.1441 250.357C51.1018 250.435 49.6839 249.758 47.2078 249.159C46.5355 248.987 45.8526 248.848 45.162 248.74C44.4566 248.596 43.6171 248.531 42.7777 248.435C40.9432 248.282 39.0956 248.282 37.2611 248.435C35.4312 248.625 33.6266 248.961 31.8716 249.441C31.0745 249.692 30.3055 249.908 29.6213 250.189C28.978 250.423 28.3494 250.685 27.7378 250.973C25.4804 252.033 24.26 252.931 24.2106 252.865C24.4596 252.625 24.7387 252.408 25.043 252.219C25.3759 251.972 25.7295 251.746 26.1011 251.542C26.5775 251.248 27.072 250.977 27.5826 250.728C28.1919 250.416 28.8233 250.136 29.4731 249.89C30.2111 249.591 30.967 249.325 31.7376 249.093C35.2945 248.042 39.0847 247.684 42.827 248.046C43.6806 248.153 44.4989 248.231 45.2467 248.393C45.9443 248.514 46.6323 248.672 47.3066 248.866C47.8696 249.01 48.423 249.18 48.9643 249.375C49.3769 249.51 49.7797 249.666 50.1706 249.842C50.5169 249.982 50.8434 250.155 51.1441 250.357Z" fill="#E0E0E0"/>
<path d="M48.8656 171.239C48.5285 171.482 48.1647 171.696 47.7792 171.88C47.0738 172.281 46.0085 172.808 44.6682 173.413C41.1551 174.98 37.4476 176.211 33.614 177.083C29.781 177.953 25.8469 178.463 21.8826 178.604C20.3589 178.652 19.1314 178.646 18.2849 178.604C17.8426 178.608 17.4008 178.576 16.9657 178.508C17.4026 178.456 17.8442 178.438 18.2849 178.454C19.1314 178.454 20.3518 178.412 21.8615 178.328C29.7412 177.904 37.442 176.149 44.513 173.167C45.8675 172.569 46.9538 172.113 47.6875 171.754C48.0605 171.552 48.4549 171.38 48.8656 171.239Z" fill="#E0E0E0"/>
<path d="M52.9783 156.792C52.9783 156.834 52.1741 156.732 50.7279 156.732C47.2658 156.744 43.8706 157.542 40.8941 159.043C40.2219 159.385 39.5762 159.763 38.9612 160.175C38.3066 160.593 37.7165 161.08 37.2047 161.624C36.6625 162.178 36.2916 162.839 36.1254 163.545C36.0507 163.9 36.0805 164.265 36.2122 164.608C36.3439 164.951 36.5733 165.26 36.8802 165.509C37.5724 166.02 38.4042 166.377 39.2999 166.545C40.1857 166.82 41.1354 166.915 42.0722 166.821C42.4972 166.709 42.8698 166.486 43.1371 166.184C43.4043 165.882 43.5525 165.516 43.5607 165.138C43.6279 164.365 43.4372 163.591 43.0105 162.905C42.2168 161.564 40.9389 160.473 39.3633 159.791C37.9498 159.153 36.385 158.793 34.7851 158.738C33.385 158.717 31.9906 158.893 30.6583 159.259C28.7214 159.805 26.9014 160.614 25.2687 161.653C24.6903 162.019 24.2529 162.318 23.9566 162.528C23.8128 162.64 23.6569 162.74 23.491 162.827C23.608 162.694 23.7429 162.574 23.8931 162.468C24.1682 162.24 24.5986 161.923 25.1559 161.528C26.7697 160.422 28.595 159.559 30.5524 158.977C31.9138 158.578 33.3446 158.375 34.7851 158.378C36.4519 158.415 38.0863 158.778 39.5609 159.438C41.2232 160.15 42.5749 161.293 43.4196 162.701C43.8854 163.454 44.0932 164.302 44.0192 165.15C43.9721 165.597 43.7952 166.027 43.5043 166.401C43.1889 166.788 42.7168 167.063 42.178 167.174C41.1625 167.289 40.1293 167.194 39.1658 166.898C38.1961 166.709 37.2969 166.318 36.5487 165.761C36.1928 165.466 35.9271 165.102 35.7747 164.7C35.6222 164.299 35.5876 163.871 35.6739 163.456C35.8556 162.687 36.2633 161.971 36.859 161.372C37.3935 160.806 38.0124 160.3 38.7002 159.869C39.3302 159.453 39.9925 159.073 40.6825 158.732C41.9201 158.118 43.236 157.626 44.6047 157.265C46.5807 156.733 48.6489 156.49 50.7209 156.546C51.2828 156.558 51.8434 156.598 52.3998 156.666C52.5969 156.692 52.7905 156.734 52.9783 156.792Z" fill="#E0E0E0"/>
<path d="M297.299 10.9929H209.091V119.514H297.299V10.9929Z" fill="#E0E0E0"/>
<path d="M292.883 10.9929H204.675V119.514H292.883V10.9929Z" fill="#F5F5F5"/>
<path d="M281.921 22.7461H215.631V107.761H281.921V22.7461Z" fill="white"/>
<path d="M281.921 107.773C281.921 107.773 281.921 107.629 281.921 107.36C281.921 107.09 281.921 106.677 281.921 106.162C281.921 105.091 281.921 103.528 281.921 101.498C281.921 97.4208 281.885 91.4873 281.864 83.9851C281.864 69.0166 281.794 47.7674 281.751 22.7701L281.97 22.9557H215.659L215.899 22.7521C215.899 54.8205 215.864 84.4222 215.849 107.773L215.659 107.611L263.911 107.701L277.244 107.743H280.771H281.977C281.977 107.743 281.589 107.743 280.813 107.743H277.349L264.059 107.785L215.687 107.875H215.433V107.773C215.433 84.4222 215.433 54.8325 215.384 22.7521V22.5485H215.631H281.942H282.167V22.7521C282.118 47.7973 282.083 69.0705 282.055 84.0929C282.055 91.5711 282.012 97.4927 281.998 101.558C281.998 103.576 281.998 105.151 281.998 106.186C281.998 106.701 281.998 107.096 281.998 107.384C281.998 107.671 281.921 107.773 281.921 107.773Z" fill="#E0E0E0"/>
<path d="M293.13 10.9929C292.675 11.6782 292.149 12.3275 291.557 12.9328C290.534 14.0943 289.081 15.675 287.416 17.3874C285.751 19.0998 284.206 20.6146 283.056 21.6863C282.472 22.291 281.822 22.8482 281.116 23.3508C281.619 22.6913 282.183 22.0667 282.802 21.4828L287.035 17.112L291.268 12.7352C291.832 12.1125 292.455 11.5298 293.13 10.9929Z" fill="#E0E0E0"/>
<path d="M282.259 107.486C285.559 111.928 289.437 116.042 293.821 119.748L282.259 107.486Z" fill="white"/>
<path d="M293.821 119.748C293.092 119.287 292.419 118.765 291.811 118.191C290.272 116.858 288.815 115.459 287.444 114C286.074 112.548 284.793 111.038 283.607 109.473C283.082 108.841 282.631 108.167 282.259 107.462C282.86 108.04 283.405 108.659 283.889 109.312C284.862 110.467 286.224 112.054 287.818 113.748C289.412 115.443 290.936 116.922 292.051 117.981C292.694 118.53 293.286 119.121 293.821 119.748Z" fill="#E0E0E0"/>
<path d="M204.661 119.424L216.216 107.324L204.661 119.424Z" fill="white"/>
<path d="M216.216 107.324C216.315 107.396 213.811 110.162 210.622 113.503C207.434 116.844 204.76 119.49 204.661 119.424C204.562 119.359 207.06 116.586 210.248 113.245C213.437 109.905 216.139 107.258 216.216 107.324Z" fill="#E0E0E0"/>
<path d="M204.675 10.9929C204.774 10.921 207.285 13.4717 210.284 16.6809C213.282 19.8901 215.617 22.5545 215.511 22.6264C215.405 22.6982 212.901 20.1476 209.903 16.9324C206.904 13.7171 204.569 11.0647 204.675 10.9929Z" fill="#E0E0E0"/>
<path d="M261.272 40.0078H239.072V93.4991H261.272V40.0078Z" fill="#E0E0E0"/>
<path d="M120.862 66.7594H24.3446V70.9745H120.862V66.7594Z" fill="#455A64"/>
<path d="M103.085 24.0873C103.085 24.0873 103.085 24.0394 103.015 23.9555L102.782 23.5903C102.57 23.273 102.239 22.812 101.766 22.2432C100.432 20.6206 98.7201 19.2472 96.7365 18.2077C95.3545 17.4925 93.8206 17.0145 92.2217 16.8006C90.3732 16.5711 88.4865 16.7378 86.7334 17.2856C84.7688 17.8751 83.1091 19.0295 82.0422 20.5487C80.9629 22.1474 80.6314 24.0214 79.9894 25.8116C79.6961 26.6988 79.2542 27.5457 78.6773 28.3263C78.0718 29.0514 77.3223 29.6815 76.4622 30.1884C75.6228 30.7153 74.748 31.1883 73.9509 31.7392C73.1689 32.2817 72.4803 32.9145 71.9051 33.6192C70.8589 34.9266 70.1387 36.4018 69.7888 37.9541C69.4839 39.2947 69.389 40.6637 69.5066 42.0255C69.6998 43.9859 70.1108 45.9265 70.7341 47.8213C70.9457 48.4919 71.1221 49.0188 71.242 49.36C71.2908 49.5426 71.3593 49.721 71.4466 49.8929C71.4184 49.7087 71.3736 49.5265 71.3125 49.3481C71.2067 48.9649 71.0656 48.444 70.8822 47.7913C70.3156 45.8967 69.9473 43.9632 69.7818 42.0135C69.6762 40.6723 69.783 39.3251 70.0992 38.0079C70.4491 36.5071 71.1521 35.0817 72.1661 33.8168C72.7294 33.1455 73.396 32.5414 74.1484 32.0206C74.9244 31.4877 75.7991 31.0207 76.6527 30.4878C77.5552 29.9625 78.3409 29.3057 78.9736 28.5479C79.5761 27.7435 80.0349 26.8678 80.3351 25.9493C80.977 24.1531 81.3227 22.2791 82.3526 20.7463C83.3736 19.2878 84.9632 18.178 86.8463 17.6089C88.5427 17.0696 90.3705 16.8968 92.1652 17.106C93.7261 17.3047 95.2262 17.7603 96.5813 18.4471C98.5526 19.4546 100.269 20.7834 101.632 22.3569C102.119 22.9137 102.472 23.3628 102.704 23.6681C102.82 23.8151 102.947 23.9551 103.085 24.0873Z" fill="#E0E0E0"/>
<path d="M75.4605 30.6614C76.046 30.2064 76.3282 30.5237 77.1112 30.6614C77.8937 30.8068 78.621 31.1155 79.2275 31.5595C80.5606 32.4967 81.5429 33.7435 82.0541 35.1472C82.5653 36.5509 82.5832 38.0506 82.1057 39.4629C80.8568 39.5165 79.614 39.2828 78.5087 38.7864C77.4034 38.2901 76.4766 37.5495 75.8262 36.643C75.1758 35.7365 74.826 34.6977 74.8138 33.6363C74.8016 32.575 75.1274 31.5306 75.7568 30.6135" fill="#E0E0E0"/>
<path d="M99.3607 21.4289C99.6499 20.8301 100.066 20.9918 100.835 20.8301C101.612 20.6805 102.421 20.6929 103.191 20.8661C104.872 21.2227 106.394 21.9876 107.57 23.0669C108.747 24.1463 109.527 25.4934 109.815 26.9433C108.715 27.4531 107.472 27.7004 106.22 27.659C104.967 27.6176 103.751 27.2891 102.7 26.7082C101.65 26.1274 100.804 25.3159 100.254 24.36C99.7029 23.4042 99.4675 22.3395 99.5723 21.2792" fill="#E0E0E0"/>
<path d="M70.198 43.1571C70.9958 42.3766 71.9926 41.7607 73.1128 41.356C74.233 40.9514 75.447 40.7687 76.6628 40.8218C77.8786 40.8749 79.0642 41.1624 80.1295 41.6625C81.1949 42.1626 82.1119 42.8621 82.8112 43.7079C81.0209 45.0885 78.6975 45.8658 76.2788 45.8933C73.836 45.8393 71.4984 45.0376 69.6971 43.6361" fill="#E0E0E0"/>
<path d="M72.1591 33.8288C70.9397 33.8595 69.7278 33.6564 68.6136 33.2346C67.4995 32.8128 66.5118 32.1832 65.724 31.3925C64.9362 30.6019 64.3686 29.6707 64.0636 28.6682C63.7585 27.6656 63.7237 26.6176 63.9619 25.6021C65.24 25.3545 66.5732 25.4041 67.8209 25.7457C69.0686 26.0873 70.1846 26.7083 71.0513 27.5432C71.9179 28.3781 72.5032 29.396 72.7453 30.4896C72.9875 31.5832 72.8776 32.7119 72.4271 33.7569" fill="#E0E0E0"/>
<path d="M80.5679 22.8599C79.4304 23.2321 78.2087 23.382 76.9935 23.2984C75.7784 23.2148 74.6011 22.8998 73.5491 22.3769C72.4971 21.8539 71.5976 21.1365 70.9172 20.2778C70.2369 19.4192 69.7934 18.4415 69.6195 17.4173C70.7277 16.8226 72.0044 16.4926 73.3151 16.4623C74.6258 16.4319 75.9218 16.7022 77.0666 17.2447C78.2114 17.7873 79.1625 18.5819 79.8197 19.5448C80.4769 20.5078 80.8158 21.6034 80.8007 22.7162" fill="#E0E0E0"/>
<path d="M83.3896 19.2793C84.5275 18.906 85.7499 18.7552 86.9659 18.8383C88.1819 18.9213 89.3602 19.2361 90.4131 19.7592C91.4659 20.2822 92.3663 21.0001 93.047 21.8593C93.7278 22.7185 94.1715 23.697 94.345 24.7219C93.2359 25.3148 91.959 25.6431 90.6486 25.6722C89.3382 25.7013 88.0428 25.4302 86.8986 24.8874C85.7544 24.3445 84.8037 23.55 84.1465 22.5873C83.4893 21.6247 83.1498 20.5296 83.1639 19.4171" fill="#E0E0E0"/>
<path d="M86.7545 17.3634C85.5992 17.0329 84.5465 16.4856 83.6747 15.7623C82.8029 15.0389 82.1344 14.158 81.7189 13.1852C81.3033 12.2124 81.1515 11.1725 81.2747 10.143C81.3978 9.11354 81.7928 8.12084 82.4302 7.23874C83.7273 7.38378 84.9545 7.82252 85.9829 8.50892C87.0113 9.19532 87.8031 10.104 88.275 11.1397C88.7469 12.1754 88.8816 13.2998 88.665 14.3949C88.4483 15.49 87.8884 16.5154 87.0438 17.3634" fill="#E0E0E0"/>
<path d="M95.3609 17.6987C94.9459 16.7254 94.7945 15.6853 94.9176 14.6555C95.0408 13.6257 95.4354 12.6326 96.0723 11.7499C96.7092 10.8672 97.572 10.1174 98.5967 9.55625C99.6215 8.99506 100.782 8.63682 101.992 8.50809C102.674 9.46112 103.039 10.553 103.049 11.6679C103.059 12.7829 102.714 13.8794 102.049 14.8412C101.385 15.803 100.426 16.5942 99.2744 17.131C98.1229 17.6678 96.8219 17.9302 95.509 17.8903" fill="#E0E0E0"/>
<path d="M60.6464 67.1126L56.054 42.6661L91.22 43.0254L87.7492 66.7893" fill="#263238"/>
<path d="M75.8203 38.1995C76.6694 38.6868 77.6516 38.9811 78.6729 39.0545C79.6942 39.1279 80.7207 38.9778 81.6542 38.6186C82.5597 38.1822 83.3247 37.5634 83.882 36.8169C84.4393 36.0704 84.7717 35.2189 84.8499 34.3377C83.964 33.9297 82.9819 33.6951 81.9754 33.6511C80.9689 33.607 79.9636 33.7545 79.033 34.0828C78.1024 34.4112 77.27 34.912 76.597 35.5487C75.9239 36.1854 75.4272 36.9417 75.1431 37.7624" fill="#FFD033"/>
<path d="M91.8901 43.4624C92.7398 43.9513 93.7232 44.2466 94.7461 44.32C95.7689 44.3934 96.7968 44.2424 97.7311 43.8816C98.6352 43.4444 99.3989 42.8253 99.9549 42.0788C100.511 41.3323 100.842 40.4813 100.92 39.6006C100.034 39.1926 99.0527 38.958 98.0467 38.914C97.0407 38.8699 96.0358 39.0175 95.1057 39.3459C94.1756 39.6743 93.3439 40.1752 92.6715 40.8118C91.9991 41.4485 91.5032 42.2048 91.22 43.0254" fill="#FFD033"/>
<path d="M82.8676 31.7331C83.2618 32.5368 83.8923 33.2411 84.6988 33.7789C85.5053 34.3166 86.4609 34.6698 87.4741 34.8047C88.5129 34.8654 89.5532 34.707 90.5023 34.3434C91.4513 33.9798 92.2795 33.4225 92.913 32.7211C92.4395 31.9656 91.7724 31.31 90.9606 30.8025C90.1489 30.295 89.2133 29.9487 88.2229 29.7889C87.2324 29.6292 86.2124 29.6602 85.2379 29.8796C84.2634 30.0989 83.3594 30.5012 82.5925 31.0566" fill="#FFD033"/>
<path d="M88.7368 37.7984C87.7178 37.759 86.7038 37.9406 85.7904 38.3261C84.8771 38.7116 84.0945 39.2883 83.5166 40.0017C83.0077 40.7737 82.7306 41.6402 82.7096 42.5247C82.6887 43.4091 82.9247 44.2843 83.3967 45.0731C84.4018 45.0326 85.3836 44.8019 86.2702 44.3979C87.1568 43.9939 87.9257 43.4268 88.5208 42.738C89.1159 42.0493 89.522 41.2564 89.7095 40.4172C89.897 39.5781 89.8612 38.714 89.6045 37.8882" fill="#FFD033"/>
<path d="M94.4015 47.4201C93.9224 48.1896 93.6838 49.0504 93.7085 49.9205C93.7332 50.7905 94.0204 51.6407 94.5426 52.3896C95.1492 53.1089 95.9564 53.6893 96.892 54.0791C97.8276 54.4688 98.8624 54.6557 99.9039 54.6229C100.259 53.8245 100.412 52.9716 100.354 52.1196C100.296 51.2676 100.027 50.4355 99.5653 49.6774C98.6412 48.2524 96.9763 47.5458 94.8953 47.1447" fill="#FFD033"/>
<path d="M103.749 48.5517C103.342 48.2241 102.863 47.9695 102.338 47.8033C101.723 47.6216 101.077 47.5246 100.426 47.5159C99.5584 47.5204 98.6918 47.5644 97.8299 47.6476C96.7596 47.7643 95.6723 47.6847 94.6413 47.4141C93.4648 47.0115 92.5187 46.2364 92.003 45.2527C91.4446 44.2014 91.0623 43.0889 90.8672 41.9476C90.6689 40.7562 90.2095 39.6067 89.5128 38.5588C88.675 37.5845 87.6718 36.7209 86.5359 35.9962C85.4651 35.2958 84.5153 34.4715 83.7141 33.5473C82.4487 31.8831 81.9467 29.8826 82.3032 27.9252C82.5128 26.6231 83.1074 25.3872 84.0316 24.3327C84.2833 24.0506 84.5643 23.7881 84.871 23.5484C85.0827 23.3807 85.1955 23.2969 85.2026 23.3089C85.125 23.412 85.0326 23.5066 84.9275 23.5903C84.6461 23.8477 84.3868 24.1218 84.1515 24.4106C83.099 25.7329 82.5249 27.2876 82.4998 28.8832C82.4747 30.4789 82.9998 32.046 84.0104 33.3917C84.813 34.2991 85.763 35.1054 86.8321 35.7866C88.0007 36.5293 89.0305 37.4174 89.8867 38.4211C90.6064 39.4993 91.078 40.6839 91.2764 41.9117C91.4582 43.0247 91.8215 44.1108 92.3557 45.1389C92.8253 46.0624 93.6973 46.7961 94.7895 47.1866C95.7803 47.4519 96.8253 47.5396 97.8581 47.4441C98.73 47.371 99.6064 47.343 100.482 47.3602C101.15 47.3821 101.808 47.4995 102.429 47.7075C102.827 47.8436 103.187 48.0473 103.487 48.3062C103.57 48.3686 103.643 48.4389 103.706 48.5158C103.721 48.5268 103.736 48.5388 103.749 48.5517Z" fill="#FFD033"/>
<path d="M103.749 48.5517C103.342 48.2241 102.863 47.9695 102.338 47.8033C101.723 47.6216 101.077 47.5246 100.426 47.5159C99.5584 47.5204 98.6918 47.5644 97.8299 47.6476C96.7596 47.7643 95.6723 47.6847 94.6413 47.4141C93.4648 47.0115 92.5187 46.2364 92.003 45.2527C91.4446 44.2014 91.0623 43.0889 90.8672 41.9476C90.6689 40.7562 90.2095 39.6067 89.5128 38.5588C88.675 37.5845 87.6718 36.7209 86.5359 35.9962C85.4651 35.2958 84.5153 34.4715 83.7141 33.5473C82.4487 31.8831 81.9467 29.8826 82.3032 27.9252C82.5128 26.6231 83.1074 25.3872 84.0316 24.3327C84.2833 24.0506 84.5643 23.7881 84.871 23.5484C85.0827 23.3807 85.1955 23.2969 85.2026 23.3089C85.125 23.412 85.0326 23.5066 84.9275 23.5903C84.6461 23.8477 84.3868 24.1218 84.1515 24.4106C83.099 25.7329 82.5249 27.2876 82.4998 28.8832C82.4747 30.4789 82.9998 32.046 84.0104 33.3917C84.813 34.2991 85.763 35.1054 86.8321 35.7866C88.0007 36.5293 89.0305 37.4174 89.8867 38.4211C90.6064 39.4993 91.078 40.6839 91.2764 41.9117C91.4582 43.0247 91.8215 44.1108 92.3557 45.1389C92.8253 46.0624 93.6973 46.7961 94.7895 47.1866C95.7803 47.4519 96.8253 47.5396 97.8581 47.4441C98.73 47.371 99.6064 47.343 100.482 47.3602C101.15 47.3821 101.808 47.4995 102.429 47.7075C102.827 47.8436 103.187 48.0473 103.487 48.3062C103.57 48.3686 103.643 48.4389 103.706 48.5158C103.721 48.5268 103.736 48.5388 103.749 48.5517Z" fill="#FFD033"/>
<path d="M36.6192 51.0545C36.6932 49.8015 36.3981 48.5526 35.7607 47.4207C35.1233 46.2889 34.1636 45.3096 32.9684 44.5715C31.7732 43.8334 30.3801 43.3597 28.9151 43.1933C27.4501 43.0268 25.9593 43.1728 24.5774 43.6181C25.62 45.5964 27.2474 47.3124 29.3016 48.5996C31.3559 49.8868 33.7672 50.7015 36.3017 50.9647" fill="#FFD033"/>
<path d="M34.2983 52.0903C32.577 53.6949 32.6899 56.2814 33.9174 58.1735C35.1448 60.0655 37.2682 61.4246 39.3845 62.6281C40.1119 60.5717 40.0226 58.3693 39.1303 56.3602C38.238 54.3511 36.5922 52.6467 34.4465 51.5095" fill="#FFD033"/>
<path d="M42.6013 44.5821C42.7341 45.7542 43.1457 46.8912 43.8112 47.9244C44.4767 48.9575 45.3822 49.8654 46.4729 50.593C47.5636 51.3206 48.8169 51.8529 50.157 52.1576C51.497 52.4623 52.896 52.5331 54.2692 52.3657C53.5638 50.0246 52.4915 47.6596 50.354 46.067C48.2166 44.4743 44.8516 43.8816 42.4884 45.2227" fill="#FFD033"/>
<path d="M42.6013 42.1871C42.171 40.0556 39.6878 38.5049 37.1483 38.3013C34.6087 38.0977 32.0903 39.0258 30.0516 40.331C31.5954 41.8255 33.7509 42.7659 36.0812 42.9615C38.4116 43.1572 40.7424 42.5936 42.6013 41.3848" fill="#FFD033"/>
<path d="M29.4731 60.3529C27.0605 62.1012 26.4539 65.2206 27.4556 67.7773C28.4573 70.3339 30.8135 72.3696 33.4518 73.8664C34.4676 71.3338 35.1025 68.6155 34.5664 65.9751C34.0302 63.3346 32.1608 60.79 29.2685 59.7182" fill="#FFD033"/>
<path d="M42.178 36.1997C42.8155 35.3985 43.6618 34.7326 44.6512 34.2536C45.6406 33.7746 46.7467 33.4953 47.8838 33.4375C49.0208 33.3796 50.1583 33.5446 51.2081 33.9198C52.2579 34.295 53.1919 34.8702 53.9377 35.601C53.4449 36.5409 52.6485 37.3429 51.6406 37.9143C50.6327 38.4857 49.4547 38.8029 48.2431 38.8292C47.0315 38.8555 45.8359 38.5899 44.7949 38.063C43.7539 37.5362 42.9102 36.7697 42.3614 35.8525" fill="#FFD033"/>
<path d="M45.1409 30.0387C43.8362 30.3757 42.4622 30.474 41.1095 30.3272C39.7568 30.1803 38.4562 29.7916 37.2936 29.1867C36.1309 28.5819 35.1326 27.7745 34.3646 26.8181C33.5965 25.8617 33.0763 24.7779 32.8381 23.6382C34.771 23.4463 36.7253 23.4705 38.6509 23.71C40.5863 23.9563 42.3835 24.7075 43.7935 25.8595C44.4327 26.3957 44.8939 27.0656 45.1304 27.8015C45.367 28.5374 45.3706 29.3132 45.1409 30.0507" fill="#FFD033"/>
<path d="M50.7209 28.4461C49.8196 27.8218 49.0923 27.0358 48.5914 26.1446C48.0904 25.2535 47.8282 24.2792 47.8234 23.2918C47.8187 22.3045 48.0716 21.3284 48.5641 20.4339C49.0565 19.5393 49.7762 18.7483 50.6715 18.1178C52.4129 19.9219 53.5962 22.0663 54.114 24.3567C54.3681 25.2054 54.3681 26.0945 54.114 26.9432C53.9747 27.3611 53.7043 27.7389 53.3315 28.0363C52.9587 28.3337 52.4977 28.5395 51.9977 28.6317" fill="#FFD033"/>
<g opacity="0.4">
<path d="M36.6192 51.0545C36.6932 49.8015 36.3981 48.5526 35.7607 47.4207C35.1233 46.2889 34.1636 45.3096 32.9684 44.5715C31.7732 43.8334 30.3801 43.3597 28.9151 43.1933C27.4501 43.0268 25.9593 43.1728 24.5774 43.6181C25.62 45.5964 27.2474 47.3124 29.3016 48.5996C31.3559 49.8868 33.7672 50.7015 36.3017 50.9647" fill="black"/>
</g>
<g opacity="0.4">
<path d="M34.2983 52.0903C32.577 53.6949 32.6899 56.2814 33.9174 58.1735C35.1448 60.0655 37.2682 61.4246 39.3845 62.6281C40.1119 60.5717 40.0226 58.3693 39.1303 56.3602C38.238 54.3511 36.5922 52.6467 34.4465 51.5095" fill="black"/>
</g>
<g opacity="0.4">
<path d="M42.6013 44.5821C42.7341 45.7542 43.1457 46.8912 43.8112 47.9244C44.4767 48.9575 45.3822 49.8654 46.4729 50.593C47.5636 51.3206 48.8169 51.8529 50.157 52.1576C51.497 52.4623 52.896 52.5331 54.2692 52.3657C53.5638 50.0246 52.4915 47.6596 50.354 46.067C48.2166 44.4743 44.8516 43.8816 42.4884 45.2227" fill="black"/>
</g>
<g opacity="0.4">
<path d="M42.6013 42.1871C42.171 40.0556 39.6878 38.5049 37.1483 38.3013C34.6087 38.0977 32.0903 39.0258 30.0516 40.331C31.5954 41.8255 33.7509 42.7659 36.0812 42.9615C38.4116 43.1572 40.7424 42.5936 42.6013 41.3848" fill="black"/>
</g>
<g opacity="0.4">
<path d="M29.4731 60.3529C27.0605 62.1012 26.4539 65.2206 27.4556 67.7773C28.4573 70.3339 30.8135 72.3696 33.4518 73.8664C34.4676 71.3338 35.1025 68.6155 34.5664 65.9751C34.0302 63.3346 32.1608 60.79 29.2685 59.7182" fill="black"/>
</g>
<g opacity="0.4">
<path d="M42.178 36.1997C42.8155 35.3985 43.6618 34.7326 44.6512 34.2536C45.6406 33.7746 46.7467 33.4953 47.8838 33.4375C49.0208 33.3796 50.1583 33.5446 51.2081 33.9198C52.2579 34.295 53.1919 34.8702 53.9377 35.601C53.4449 36.5409 52.6485 37.3429 51.6406 37.9143C50.6327 38.4857 49.4547 38.8029 48.2431 38.8292C47.0315 38.8555 45.8359 38.5899 44.7949 38.063C43.7539 37.5362 42.9102 36.7697 42.3614 35.8525" fill="black"/>
</g>
<g opacity="0.4">
<path d="M45.1409 30.0387C43.8362 30.3757 42.4622 30.474 41.1095 30.3272C39.7568 30.1803 38.4562 29.7916 37.2936 29.1867C36.1309 28.5819 35.1326 27.7745 34.3646 26.8181C33.5965 25.8617 33.0763 24.7779 32.8381 23.6382C34.771 23.4463 36.7253 23.4705 38.6509 23.71C40.5863 23.9563 42.3835 24.7075 43.7935 25.8595C44.4327 26.3957 44.8939 27.0656 45.1304 27.8015C45.367 28.5374 45.3706 29.3132 45.1409 30.0507" fill="black"/>
</g>
<g opacity="0.4">
<path d="M50.7209 28.4461C49.8196 27.8218 49.0923 27.0358 48.5914 26.1446C48.0904 25.2535 47.8282 24.2792 47.8234 23.2918C47.8187 22.3045 48.0716 21.3284 48.5641 20.4339C49.0565 19.5393 49.7762 18.7483 50.6715 18.1178C52.4129 19.9219 53.5962 22.0663 54.114 24.3567C54.3681 25.2054 54.3681 26.0945 54.114 26.9432C53.9747 27.3611 53.7043 27.7389 53.3315 28.0363C52.9587 28.3337 52.4977 28.5395 51.9977 28.6317" fill="black"/>
</g>
<path d="M60.3642 43.4505C60.3549 43.3949 60.3549 43.3384 60.3642 43.2828C60.3642 43.1571 60.3642 42.9954 60.3642 42.7919C60.3642 42.3608 60.4418 41.7261 60.4629 40.9058C60.5898 38.5967 60.1577 36.29 59.1932 34.1281C58.4921 32.656 57.4011 31.3407 56.0046 30.2842C54.3886 29.0857 52.302 28.4448 50.1565 28.488C49.002 28.4847 47.8631 28.7146 46.8339 29.1586C45.7777 29.6378 44.895 30.3518 44.2802 31.2242C43.0105 33.0204 42.693 35.2537 42.8059 37.4631C42.9187 39.6724 43.2715 41.8818 42.9752 44.0492C42.8453 45.0995 42.5215 46.1259 42.0158 47.0908C41.5328 48.0261 40.7897 48.8479 39.8501 49.4858C38.9326 50.0533 37.9163 50.4957 36.8379 50.797C35.8561 51.0803 34.9107 51.4475 34.0161 51.8927C32.4231 52.73 31.1321 53.9231 30.2844 55.3414C29.5826 56.5039 29.2106 57.7894 29.198 59.0955C29.1963 60.0872 29.387 61.0723 29.7624 62.0114C30.1038 62.8083 30.5511 63.5696 31.0956 64.2806C31.0473 64.2411 31.0046 64.1969 30.9687 64.1489C30.8453 64.0218 30.7321 63.8878 30.63 63.7477C30.2136 63.22 29.8748 62.6509 29.6213 62.0533C29.2144 61.1049 28.9997 60.1048 28.9864 59.0955C28.9687 57.7497 29.329 56.4197 30.0375 55.2157C30.8905 53.7436 32.2064 52.5003 33.8398 51.6233C35.5752 50.6353 37.8749 50.3958 39.6385 49.2283C41.4021 48.0608 42.3403 46.037 42.6154 43.9774C42.8905 41.9177 42.5237 39.7143 42.4249 37.4631C42.3262 35.2118 42.6013 32.9306 43.9628 31.0626C44.6078 30.1411 45.5404 29.3889 46.6576 28.8891C47.7272 28.4131 48.9136 28.1567 50.1213 28.1407C52.3536 28.1138 54.5164 28.7998 56.1809 30.0627C57.6106 31.1499 58.7258 32.5021 59.4401 34.0143C60.023 35.2547 60.3959 36.559 60.5476 37.8882C60.6632 38.8829 60.6962 39.8832 60.6464 40.8819C60.604 41.7081 60.5335 42.3428 60.4771 42.7739C60.4771 42.9715 60.4206 43.1331 60.4065 43.2649C60.4041 43.3282 60.3898 43.3909 60.3642 43.4505Z" fill="#FFD033"/>
<g opacity="0.4">
<path d="M60.3642 43.4505C60.3549 43.3949 60.3549 43.3384 60.3642 43.2828C60.3642 43.1571 60.3642 42.9954 60.3642 42.7919C60.3642 42.3608 60.4418 41.7261 60.4629 40.9058C60.5898 38.5967 60.1577 36.29 59.1932 34.1281C58.4921 32.656 57.4011 31.3407 56.0046 30.2842C54.3886 29.0857 52.302 28.4448 50.1565 28.488C49.002 28.4847 47.8631 28.7146 46.8339 29.1586C45.7777 29.6378 44.895 30.3518 44.2802 31.2242C43.0105 33.0204 42.693 35.2537 42.8059 37.4631C42.9187 39.6724 43.2715 41.8818 42.9752 44.0492C42.8453 45.0995 42.5215 46.1259 42.0158 47.0908C41.5328 48.0261 40.7897 48.8479 39.8501 49.4858C38.9326 50.0533 37.9163 50.4957 36.8379 50.797C35.8561 51.0803 34.9107 51.4475 34.0161 51.8927C32.4231 52.73 31.1321 53.9231 30.2844 55.3414C29.5826 56.5039 29.2106 57.7894 29.198 59.0955C29.1963 60.0872 29.387 61.0723 29.7624 62.0114C30.1038 62.8083 30.5511 63.5696 31.0956 64.2806C31.0473 64.2411 31.0046 64.1969 30.9687 64.1489C30.8453 64.0218 30.7321 63.8878 30.63 63.7477C30.2136 63.22 29.8748 62.6509 29.6213 62.0533C29.2144 61.1049 28.9997 60.1048 28.9864 59.0955C28.9687 57.7497 29.329 56.4197 30.0375 55.2157C30.8905 53.7436 32.2064 52.5003 33.8398 51.6233C35.5752 50.6353 37.8749 50.3958 39.6385 49.2283C41.4021 48.0608 42.3403 46.037 42.6154 43.9774C42.8905 41.9177 42.5237 39.7143 42.4249 37.4631C42.3262 35.2118 42.6013 32.9306 43.9628 31.0626C44.6078 30.1411 45.5404 29.3889 46.6576 28.8891C47.7272 28.4131 48.9136 28.1567 50.1213 28.1407C52.3536 28.1138 54.5164 28.7998 56.1809 30.0627C57.6106 31.1499 58.7258 32.5021 59.4401 34.0143C60.023 35.2547 60.3959 36.559 60.5476 37.8882C60.6632 38.8829 60.6962 39.8832 60.6464 40.8819C60.604 41.7081 60.5335 42.3428 60.4771 42.7739C60.4771 42.9715 60.4206 43.1331 60.4065 43.2649C60.4041 43.3282 60.3898 43.3909 60.3642 43.4505Z" fill="black"/>
</g>
<path d="M111.565 38.1157C111.893 37.4197 112.072 36.6797 112.094 35.9303C112.099 35.0524 111.857 34.1861 111.388 33.4036C110.761 32.3749 109.752 31.5501 108.517 31.0566C107.809 30.7668 107.044 30.5902 106.26 30.5357C105.407 30.4936 104.552 30.5787 103.734 30.7871C102.006 31.1763 100.306 31.9846 98.2673 32.3498C97.2211 32.5491 96.1333 32.5265 95.0999 32.284C94.0274 31.98 93.1188 31.3597 92.5391 30.5357C91.3117 28.9191 90.959 26.8953 89.4775 25.4045C88.7405 24.6781 87.7772 24.1428 86.6981 23.8597C85.6513 23.5755 84.5456 23.4816 83.4531 23.5843C81.3618 23.7737 79.4331 24.6296 78.0565 25.9793C76.808 27.1904 75.8923 28.622 75.3759 30.1704C74.9036 31.5295 74.7033 32.9463 74.7833 34.3616C74.9254 36.4083 75.2295 38.4446 75.6933 40.4568C75.8344 41.1513 75.9473 41.7021 76.0249 42.1093C76.0601 42.2829 76.0813 42.4266 76.1025 42.5404C76.1103 42.5901 76.1103 42.6404 76.1025 42.6901C76.079 42.6441 76.0624 42.5958 76.0531 42.5464C76.0178 42.4326 75.9825 42.2949 75.9402 42.1213C75.8414 41.7201 75.7004 41.1693 75.5311 40.4807C75.0113 38.467 74.6648 36.4239 74.4941 34.3676C74.4031 32.9338 74.5938 31.4972 75.0584 30.1166C75.5711 28.5032 76.5068 27.009 77.7955 25.7458C78.5036 25.0765 79.338 24.512 80.2645 24.0753C81.2387 23.6211 82.3116 23.34 83.4178 23.249C84.5624 23.1387 85.7216 23.2366 86.818 23.5364C87.9624 23.8384 88.984 24.4068 89.7668 25.177C91.3399 26.7696 91.6714 28.8113 92.8495 30.3501C93.3899 31.1146 94.2323 31.6917 95.2268 31.9786C96.2022 32.2097 97.2297 32.2323 98.2179 32.0445C100.186 31.7272 101.9 30.9069 103.671 30.5177C104.524 30.3065 105.415 30.2254 106.302 30.2782C107.122 30.3367 107.921 30.5256 108.658 30.835C109.934 31.3632 110.969 32.2347 111.6 33.3138C112.061 34.1267 112.281 35.0228 112.242 35.9243C112.221 36.489 112.093 37.0472 111.861 37.5768C111.789 37.7662 111.689 37.9472 111.565 38.1157Z" fill="#FFD033"/>
<path d="M91.0013 27.2845C91.9364 27.7663 92.9945 28.05 94.0861 28.1115C95.1777 28.1729 96.2706 28.0105 97.2726 27.6378C98.175 27.1986 98.9365 26.578 99.49 25.8305C100.044 25.0829 100.372 24.2314 100.447 23.3508C99.5612 22.9429 98.5791 22.7083 97.5726 22.6642C96.5661 22.6201 95.5608 22.7676 94.6302 23.096C93.6995 23.4243 92.8672 23.9252 92.1942 24.5619C91.5211 25.1985 91.0244 25.9549 90.7403 26.7756" fill="#FFD033"/>
<path d="M97.6676 32.4217C97.6756 33.3457 97.9443 34.2546 98.4512 35.0724C98.9581 35.8901 99.6884 36.5929 100.581 37.1218C101.491 37.5508 102.511 37.7834 103.552 37.7991C104.593 37.8148 105.622 37.613 106.549 37.2116C106.471 36.3604 106.184 35.5325 105.705 34.7816C105.226 34.0307 104.567 33.3736 103.77 32.8528C102.944 32.3699 102.008 32.0407 101.022 31.8869C100.036 31.7332 99.0224 31.7583 98.0486 31.9607" fill="#FFD033"/>
<path d="M109.23 31.2841C110.221 31.6751 111.308 31.859 112.401 31.8204C113.493 31.7819 114.558 31.522 115.508 31.0626C116.353 30.5467 117.036 29.8624 117.496 29.0699C117.956 28.2775 118.179 27.4012 118.146 26.5182C117.214 26.1895 116.207 26.0426 115.199 26.0881C114.19 26.1337 113.207 26.3706 112.321 26.7813C111.435 27.1921 110.669 27.7663 110.079 28.4616C109.489 29.1569 109.09 29.9557 108.912 30.7991" fill="#FFD033"/>
<path d="M81.2874 23.8896C79.6014 22.6562 78.4657 20.4888 78.7972 18.8662C79.0208 18.0033 79.491 17.2002 80.1664 16.5278C80.8417 15.8554 81.7016 15.3343 82.6701 15.0103C83.3926 15.6071 83.9483 16.3337 84.2964 17.1367C84.6444 17.9398 84.7759 18.7988 84.6811 19.6507C84.5864 20.5026 84.2678 21.3256 83.7489 22.0591C83.2299 22.7927 82.5238 23.4182 81.6825 23.8896" fill="#FFD033"/>
<path d="M36.1324 16.8605C36.1324 16.8605 36.1324 16.8126 36.203 16.7287L36.4358 16.3635C36.6474 16.0462 36.979 15.5852 37.4516 15.0164C38.7859 13.3938 40.4977 12.0204 42.4814 10.9809C43.8639 10.2678 45.3978 9.79183 46.9962 9.57981C48.8417 9.34913 50.7259 9.51379 52.4774 10.0588C54.442 10.6483 56.1017 11.8027 57.1685 13.3219C58.2479 14.9206 58.5794 16.7946 59.2284 18.5848C59.5177 19.4723 59.9573 20.3194 60.5335 21.0995C61.1431 21.8257 61.8975 22.4558 62.7627 22.9616C63.6021 23.4885 64.4839 23.9615 65.274 24.5124C66.056 25.0549 66.7446 25.6877 67.3198 26.3924C68.369 27.6984 69.0895 29.1741 69.4361 30.7273C69.7447 32.0675 69.8396 33.4369 69.7183 34.7987C69.5251 36.7591 69.1141 38.6997 68.4908 40.5945C68.2792 41.2651 68.1028 41.792 67.9829 42.1332C67.9325 42.3154 67.864 42.4937 67.7783 42.6661C67.8065 42.4819 67.8513 42.2997 67.9123 42.1213C68.0182 41.7381 68.1592 41.2172 68.3427 40.5645C68.8939 38.6684 69.2503 36.7352 69.4079 34.7867C69.5073 33.4452 69.3982 32.0985 69.0834 30.7812C68.7334 29.2803 68.0305 27.8549 67.0164 26.59C66.457 25.9161 65.7899 25.3116 65.0342 24.7938C64.2582 24.2609 63.3834 23.7939 62.5299 23.261C61.6332 22.721 60.8569 22.0499 60.2372 21.2792C59.636 20.4742 59.1772 19.5987 58.8757 18.6806C58.2338 16.8545 57.8881 15.0104 56.8582 13.4776C55.8394 12.0174 54.2491 10.907 52.3645 10.3402C50.6712 9.79847 48.8449 9.62556 47.0526 9.83727C45.4795 10.0321 43.967 10.4878 42.6013 11.1784C40.6314 12.1875 38.9151 13.516 37.5504 15.0882C37.0636 15.645 36.7109 16.0941 36.4781 16.3994C36.3759 16.5599 36.2604 16.7139 36.1324 16.8605Z" fill="#FFD033"/>
<path d="M63.7644 23.4346C63.1789 22.9736 62.8967 23.2969 62.1137 23.4346C61.3328 23.5804 60.6061 23.8868 59.9974 24.3267C58.6592 25.2661 57.6733 26.5167 57.1608 27.9249C56.6482 29.3331 56.6313 30.8378 57.1121 32.254C58.3621 32.3084 59.6061 32.0749 60.7124 31.5782C61.8188 31.0816 62.7464 30.3403 63.397 29.4328C64.0476 28.5254 64.397 27.4855 64.4083 26.4233C64.4196 25.361 64.0923 24.316 63.4611 23.3987" fill="#FFD033"/>
<path d="M39.8642 14.2021C39.5679 13.6033 39.1588 13.759 38.3828 13.6033C37.6055 13.4537 36.7971 13.4661 36.0266 13.6393C34.345 13.9953 32.8227 14.7608 31.6471 15.8416C30.4714 16.9224 29.6937 18.2713 29.4096 19.7224C30.5099 20.2307 31.7516 20.4768 33.0032 20.4346C34.2549 20.3925 35.4697 20.0636 36.5191 19.483C37.5684 18.9023 38.413 18.0915 38.9634 17.1365C39.5139 16.1815 39.7495 15.1179 39.6455 14.0584" fill="#FFD033"/>
<path d="M69.0199 35.9243C68.2245 35.1445 67.2306 34.5284 66.1134 34.1226C64.9961 33.7169 63.7848 33.5321 62.571 33.5823C61.3572 33.6325 60.1727 33.9163 59.1072 34.4123C58.0417 34.9083 57.1231 35.6035 56.4208 36.4452C58.2118 37.8249 60.5347 38.602 62.9531 38.6306C65.396 38.5766 67.7335 37.775 69.5349 36.3734" fill="#FFD033"/>
<path d="M67.0588 26.6019C68.2782 26.6327 69.4901 26.4296 70.6042 26.0078C71.7184 25.586 72.7061 24.9564 73.4939 24.1657C74.2817 23.3751 74.8492 22.4439 75.1543 21.4414C75.4594 20.4388 75.4941 19.3908 75.2559 18.3753C73.9778 18.1277 72.6446 18.1773 71.397 18.5189C70.1493 18.8605 69.0333 19.4815 68.1666 20.3164C67.2999 21.1513 66.7147 22.1692 66.4725 23.2628C66.2304 24.3563 66.3403 25.4851 66.7907 26.5301" fill="#FFD033"/>
<path d="M58.65 15.633C59.7885 16.0054 61.0113 16.155 62.2273 16.0706C63.4433 15.9863 64.6213 15.6703 65.6735 15.1461C66.7257 14.6219 67.6251 13.903 68.3046 13.0429C68.9841 12.1828 69.4264 11.2037 69.5983 10.1785C68.4892 9.5856 67.2123 9.25731 65.9019 9.2282C64.5915 9.19908 63.2961 9.4702 62.1519 10.0131C61.0077 10.5559 60.057 11.3504 59.3998 12.3131C58.7426 13.2757 58.4031 14.3709 58.4172 15.4834" fill="#FFD033"/>
<path d="M55.8282 12.0466C54.6897 11.6756 53.4674 11.5268 52.2519 11.6113C51.0364 11.6958 49.8589 12.0114 48.8067 12.5347C47.7544 13.058 46.8545 13.7756 46.1735 14.6343C45.4925 15.493 45.0479 16.4708 44.8728 17.4951C45.982 18.0881 47.2589 18.4164 48.5693 18.4455C49.8796 18.4746 51.1751 18.2035 52.3193 17.6606C53.4634 17.1178 54.4141 16.3232 55.0714 15.3606C55.7286 14.398 56.068 13.3028 56.054 12.1903" fill="#FFD033"/>
<path d="M52.4774 10.1187C53.6297 9.7857 54.679 9.23709 55.5477 8.51345C56.4164 7.78981 57.0824 6.90965 57.4962 5.93808C57.9101 4.96652 58.0613 3.92841 57.9386 2.90056C57.8159 1.8727 57.4226 0.881406 56.7876 0C55.4814 0.142453 54.2449 0.582423 53.2095 1.27321C52.1741 1.96401 51.3783 2.87984 50.9067 3.92353C50.4351 4.96721 50.3052 6.09979 50.5308 7.20108C50.7564 8.30237 51.3291 9.33126 52.1882 10.1786" fill="#FFD033"/>
<path d="M43.857 10.4719C44.2719 9.49859 44.4234 8.45847 44.3002 7.42867C44.1771 6.39888 43.7824 5.40581 43.1456 4.52309C42.5087 3.64037 41.6459 2.89062 40.6211 2.32944C39.5964 1.76825 38.4359 1.41001 37.2259 1.28128C36.5448 2.23343 36.1796 3.32415 36.1689 4.43802C36.1583 5.55189 36.5026 6.64749 37.1655 7.60887C37.8284 8.57026 38.7851 9.36169 39.9344 9.89941C41.0838 10.4371 42.3831 10.7011 43.6947 10.6635" fill="#FFD033"/>
<path d="M55.6095 64.2806L58.2973 67.1126H91.3893L93.6467 64.2806H55.6095Z" fill="#263238"/>
<path d="M92.9201 64.2507C92.9201 64.3405 84.7864 64.4123 74.7551 64.4123C64.7238 64.4123 56.5971 64.3405 56.5971 64.2507C56.5971 64.1608 64.7238 64.089 74.7551 64.089C84.7864 64.089 92.9201 64.1608 92.9201 64.2507Z" fill="#455A64"/>
<path d="M89.2024 53.5871C89.1446 53.6727 89.0735 53.7513 88.9908 53.8206C88.7825 54.032 88.5587 54.232 88.3206 54.4194C87.4407 55.1193 86.4449 55.7063 85.3648 56.1617C83.7532 56.8345 81.9952 57.2177 80.2011 57.2873C79.1405 57.3255 78.0785 57.249 77.0407 57.0598C75.9352 56.8446 74.8558 56.5419 73.8169 56.1557C71.7005 55.3833 69.7465 54.5032 67.8559 53.9943C66.2098 53.4831 64.4368 53.3388 62.7062 53.5752C61.5408 53.7437 60.4497 54.1737 59.5459 54.8205C59.2292 55.0709 58.93 55.3368 58.65 55.6169C58.65 55.6169 58.6923 55.5211 58.8122 55.3594C58.9994 55.1311 59.212 54.9185 59.4471 54.7247C60.3433 54.0221 61.4523 53.5453 62.6498 53.3476C64.4275 53.072 66.2594 53.198 67.9617 53.7129C69.8946 54.2158 71.8557 55.096 73.965 55.8563C74.9826 56.2331 76.0379 56.5316 77.1183 56.7485C78.125 56.9387 79.1562 57.0192 80.1869 56.988C81.9377 56.9339 83.6577 56.5816 85.2449 55.9521C86.7003 55.3423 88.0353 54.5445 89.2024 53.5871Z" fill="#455A64"/>
<path d="M89.5269 51.3957C89.5269 51.3957 89.4564 51.4796 89.3012 51.6113C89.0801 51.8112 88.8444 51.9991 88.5957 52.1741C87.6647 52.8248 86.635 53.3666 85.5341 53.7847C83.8949 54.411 82.1309 54.7686 80.3351 54.8385C79.2747 54.8812 78.212 54.8209 77.1677 54.6589C76.0529 54.4747 74.9581 54.2124 73.8944 53.8745C71.7076 53.2039 69.7041 52.4256 67.7854 51.9765C66.1097 51.5236 64.3378 51.3866 62.5934 51.5754C61.4214 51.7122 60.3018 52.0747 59.3201 52.6351C58.6147 53.0483 58.3325 53.3596 58.3043 53.3356C58.2761 53.3117 58.3678 53.2518 58.5089 53.1021C58.7227 52.8853 58.9588 52.6849 59.2143 52.5034C60.1909 51.8852 61.3278 51.4746 62.5299 51.3059C64.3152 51.0792 66.1378 51.1958 67.863 51.6472C69.817 52.0903 71.8416 52.8447 74.0003 53.5272C75.0441 53.8587 76.1174 54.1189 77.21 54.3056C78.2283 54.4673 79.2645 54.5336 80.2998 54.5032C82.0571 54.4432 83.7873 54.1146 85.4072 53.5332C86.886 52.979 88.2715 52.2602 89.5269 51.3957Z" fill="#455A64"/>
<path d="M53.3804 69.8668H50.481V76.7224H53.3804V69.8668Z" fill="#455A64"/>
<path d="M94.726 69.8668H91.8266V76.7224H94.726V69.8668Z" fill="#455A64"/>
<path d="M131.804 133.752L144.713 129.124L175.576 123.939L208.88 129.489L164.882 169.617L144.022 170.629L128.213 143.967L131.804 133.752Z" fill="#FFBE9D"/>
<path d="M243.94 164.36C243.94 164.36 222.911 135.698 217.246 132.279C211.582 128.861 193.543 126.699 193.543 126.699C193.543 126.699 173.678 164.773 154.766 163.456C135.853 162.138 133.779 132.992 133.779 132.992L125.448 135.812C123.972 136.31 122.641 137.074 121.545 138.049C120.45 139.025 119.615 140.189 119.099 141.464L102.422 182.669L130.781 188.393C135.761 204.14 142.773 217.839 151.577 229.706L152.48 225.772L211.405 225L228.47 219.396L207.92 179.759L243.94 164.36Z" fill="#FFD033"/>
<path d="M135.091 199.727C135.018 199.627 134.961 199.518 134.922 199.404C134.823 199.159 134.689 198.847 134.527 198.464C134.174 197.608 133.687 196.428 133.116 194.991C131.931 192.057 130.294 187.998 128.777 183.43C128.072 181.136 127.437 178.933 126.979 176.915C126.52 174.898 126.238 173.054 126.083 171.527C125.977 170.754 125.956 170.054 125.913 169.437C125.871 168.82 125.843 168.246 125.843 167.827V166.827C125.826 166.711 125.826 166.595 125.843 166.479C125.875 166.593 125.892 166.71 125.892 166.827C125.892 167.09 125.892 167.425 125.956 167.827C126.019 168.228 126.005 168.784 126.076 169.401C126.146 170.018 126.181 170.712 126.301 171.485C126.485 173.024 126.823 174.85 127.268 176.873C127.712 178.897 128.347 181.065 129.088 183.358C130.576 187.914 132.199 191.98 133.32 194.937C133.885 196.41 134.336 197.608 134.633 198.44C134.767 198.829 134.879 199.147 134.964 199.398C135.019 199.504 135.062 199.614 135.091 199.727Z" fill="#263238"/>
<path d="M194.411 193.129C194.316 193.19 194.211 193.24 194.101 193.279C193.889 193.369 193.579 193.512 193.163 193.656C191.995 194.088 190.787 194.436 189.551 194.698C185.452 195.592 181.153 195.588 177.057 194.686C172.96 193.784 169.201 192.015 166.13 189.543C165.203 188.806 164.348 188.005 163.577 187.148C163.294 186.848 163.111 186.597 162.97 186.429C162.893 186.35 162.832 186.261 162.786 186.166C162.786 186.166 163.111 186.489 163.682 187.07C164.494 187.892 165.371 188.666 166.307 189.387C169.386 191.781 173.11 193.498 177.152 194.387C181.195 195.276 185.432 195.311 189.494 194.488C190.723 194.25 191.93 193.938 193.106 193.554C193.532 193.393 193.968 193.251 194.411 193.129Z" fill="#263238"/>
<path d="M200.661 148.08C200.693 147.838 200.752 147.6 200.838 147.368C200.972 146.913 201.205 146.26 201.543 145.47C202.426 143.408 203.581 141.438 204.986 139.596C206.397 137.752 208.054 136.053 209.924 134.531C210.483 134.067 211.069 133.627 211.68 133.213C211.895 133.048 212.132 132.903 212.386 132.782C212.428 132.824 211.497 133.495 210.121 134.686C206.527 137.797 203.708 141.491 201.832 145.547C201.063 147.098 200.725 148.098 200.661 148.08Z" fill="#263238"/>
<path d="M202.608 180.023C202.51 180.023 201.684 174.706 200.76 168.126C199.836 161.546 199.173 156.199 199.272 156.193C199.37 156.187 200.203 161.51 201.127 168.09C202.051 174.67 202.735 180.017 202.608 180.023Z" fill="#263238"/>
<g opacity="0.3">
<path d="M163.16 187.274C166.173 191.028 169.298 194.824 173.573 197.56C177.848 200.296 183.526 201.829 188.641 200.494C190.261 200.048 191.795 199.401 193.191 198.572C195.215 197.422 197.184 195.847 197.473 193.782C197.546 193.551 197.536 193.306 197.445 193.08C197.353 192.854 197.183 192.656 196.958 192.513C196.638 192.405 196.286 192.391 195.956 192.471C192.358 193.069 189.219 195.207 185.558 195.434C183.677 195.467 181.803 195.243 180.006 194.77C173.657 193.411 167.506 191.411 163.16 187.256" fill="black"/>
</g>
<g opacity="0.3">
<path d="M205.472 203.877C206.389 202.937 207.01 202.164 207.871 201.296C208.299 200.844 208.609 200.319 208.781 199.757C208.943 199.108 208.943 198.437 208.781 197.787C207.834 192.235 206.251 186.775 204.054 181.484C203.983 181.402 203.937 181.306 203.922 181.204C203.906 181.103 203.922 181 203.966 180.906C204.011 180.811 204.083 180.727 204.176 180.663C204.269 180.599 204.381 180.555 204.499 180.538C205.571 180.256 206.827 179.879 207.899 179.598C209.472 186.184 210.777 193.5 212.329 199.817C212.329 199.727 207.737 202.595 205.465 203.877" fill="black"/>
</g>
<g opacity="0.3">
<path d="M130.506 188.465C127.959 186.354 125.869 183.88 124.333 181.154C123.657 179.996 123.15 178.771 122.824 177.508C122.534 176.087 122.435 174.643 122.527 173.203C122.683 168.319 123.471 163.464 124.876 158.726C125.104 159.007 125.247 159.332 125.293 159.672C126.365 164.569 125.709 169.641 126.605 174.562C126.971 176.55 127.585 178.496 127.966 180.478C128.127 181.499 128.362 182.511 128.672 183.507C128.982 184.4 129.462 185.25 129.8 186.136C130.099 186.983 130.334 187.845 130.506 188.716" fill="black"/>
</g>
<path d="M174.44 222.653L212.322 199.727L207.906 179.622L232.738 168.725C232.738 168.725 241.746 200.745 235.792 213.097C233.775 217.342 172.402 233.885 172.402 233.885L174.44 222.653Z" fill="#FFBE9D"/>
<path d="M226.643 197.757C226.643 197.811 225.796 197.548 224.413 197.332C223.602 197.213 222.782 197.145 221.958 197.129C219.943 197.093 217.938 197.388 216.054 197.997C215.288 198.246 214.545 198.544 213.832 198.889C212.611 199.488 211.941 199.973 211.899 199.931C211.857 199.889 212.033 199.781 212.336 199.554C212.762 199.239 213.217 198.954 213.698 198.703C214.408 198.323 215.156 197.996 215.934 197.728C216.893 197.41 217.885 197.172 218.897 197.015C219.913 196.871 220.943 196.813 221.973 196.841C222.811 196.869 223.644 196.961 224.463 197.117C225.015 197.218 225.558 197.357 226.085 197.53C226.283 197.582 226.471 197.659 226.643 197.757Z" fill="#EB996E"/>
<path d="M221.267 193.746C220.76 194.01 220.237 194.252 219.701 194.47C218.742 194.919 217.444 195.602 216.061 196.398C214.865 197.053 213.797 197.86 212.894 198.793C212.231 199.524 211.984 200.075 211.927 200.051C212.053 199.545 212.311 199.071 212.682 198.662C213.548 197.663 214.621 196.806 215.849 196.135C217.037 195.435 218.284 194.81 219.581 194.267C220.109 194.022 220.678 193.847 221.267 193.746Z" fill="#EB996E"/>
<path d="M144.255 238.112C146.286 238.112 147.93 238.112 147.93 238.155C147.93 238.197 146.286 238.197 144.255 238.197C142.223 238.197 140.579 238.197 140.579 238.155C140.579 238.112 142.23 238.112 144.255 238.112Z" fill="#EB996E"/>
<path d="M148.868 224.874C148.868 224.874 78.8043 200.476 67.1787 198.362C55.5531 196.249 35.1872 195.213 26.6161 209.738C20.627 219.875 19.9709 231.892 42.8411 242.13C65.7114 252.368 133.758 261.888 133.758 261.888C133.758 261.888 195.187 274.917 205.155 271.396C215.123 267.876 228.829 260.475 224.681 246.381C220.533 232.287 221.443 225.024 206.474 224.228C191.709 223.461 188.076 223.03 174.024 234.532L148.868 224.874Z" fill="#263238"/>
<path d="M228.166 218.725C228.166 218.725 240.751 236.562 235.983 246.866C231.214 257.17 219.052 263.882 219.052 263.882L198.771 226.323L228.166 218.725Z" fill="#263238"/>
<path d="M141.976 249.938L141.722 249.836L140.974 249.512C140.325 249.225 139.366 248.794 138.153 248.213C135.719 247.052 132.22 245.327 128.1 242.926C123.98 240.525 119.233 237.478 114.083 233.945C111.508 232.197 108.799 230.353 106.02 228.431C103.241 226.509 100.377 224.497 97.2797 222.617C94.2837 220.778 91.1258 219.136 87.8339 217.707C84.7523 216.396 81.5789 215.246 78.3316 214.265C72.8214 212.623 67.1861 211.301 61.4647 210.307C56.583 209.427 52.6044 208.858 49.8532 208.451L46.6858 207.99L45.8604 207.864L45.5853 207.81H45.8675L46.6999 207.906L49.8743 208.307C52.6326 208.678 56.6254 209.217 61.5211 210.068C67.2643 211.034 72.9215 212.339 78.4516 213.971C81.7128 214.95 84.9003 216.098 87.9961 217.408C91.3076 218.842 94.4844 220.489 97.4984 222.336C100.595 224.228 103.473 226.239 106.246 228.167C109.018 230.095 111.727 231.939 114.295 233.7C119.43 237.208 124.136 240.286 128.248 242.681C132.361 245.076 135.818 246.872 138.223 248.04C139.429 248.638 140.375 249.087 141.045 249.393C141.355 249.536 141.595 249.656 141.75 249.746C141.836 249.801 141.911 249.865 141.976 249.938Z" fill="#455A64"/>
<path d="M142.851 249.554C145.842 248.513 136.453 251.153 133.335 250.417C128.396 249.249 125.032 244.459 119.882 244.339C116.573 244.267 113.73 246.201 110.619 247.165C106.817 248.363 102.62 248.063 98.627 247.555C94.6343 247.046 90.5851 246.357 86.5641 246.722C85.3748 246.752 84.2339 247.128 83.3332 247.788C82.8286 248.293 82.5237 248.919 82.4617 249.579C82.3997 250.239 82.5836 250.898 82.9875 251.464C83.8376 252.586 85.1387 253.407 86.6487 253.775C88.1454 254.129 89.6746 254.376 91.22 254.512C98.4225 255.428 105.223 257.847 112.291 259.338C119.586 260.883 127.105 261.433 134.611 261.972C134.604 261.972 134.089 252.596 142.851 249.554Z" fill="#FFBE9D"/>
<path d="M207.857 249.926C207.914 249.998 207.954 250.08 207.977 250.165C208.083 250.398 208.175 250.636 208.252 250.878C208.548 251.76 208.747 252.664 208.844 253.578C208.991 254.94 208.91 256.312 208.605 257.655C208.236 259.307 207.485 260.88 206.397 262.284C205.274 263.675 203.802 264.839 202.086 265.69C200.697 266.391 199.162 266.858 197.564 267.067C196.489 267.21 195.395 267.21 194.319 267.067C194.029 267.032 193.741 266.98 193.459 266.912C193.357 266.895 193.258 266.869 193.163 266.834C194.607 267.026 196.078 267.026 197.522 266.834C199.077 266.598 200.566 266.121 201.917 265.427C203.574 264.583 204.996 263.446 206.086 262.092C207.151 260.721 207.894 259.188 208.273 257.577C208.589 256.262 208.693 254.917 208.583 253.578C208.512 252.673 208.357 251.774 208.118 250.89C208.007 250.573 207.92 250.251 207.857 249.926Z" fill="#455A64"/>
<path d="M159.464 238.166L202.192 221.575L215.807 223.994L216.4 225.24L166.462 242.232L159.464 240.801V238.166Z" fill="white"/>
<path d="M203.377 223.108L159.464 240.801L173.876 243.747L219.271 225.707L203.377 223.108Z" fill="#455A64"/>
<path d="M142.851 249.554C142.851 249.554 165.425 236.472 171.358 233.861C177.29 231.251 208.746 225.144 216.597 227.916C224.449 230.688 193.163 254.524 193.163 254.524L142.851 249.554Z" fill="#263238"/>
<path d="M188.803 239.052C188.744 239.04 188.687 239.022 188.634 238.999L188.154 238.825L186.327 238.142C184.101 237.283 181.802 236.566 179.449 235.999C177.826 235.617 176.158 235.394 174.476 235.334C173.533 235.305 172.59 235.339 171.654 235.436C170.673 235.547 169.706 235.73 168.762 235.981C164.839 236.993 161.1 239.22 157.249 241.531C153.397 243.842 149.489 245.866 146.082 247.764C144.36 248.71 142.738 249.632 141.249 250.518C139.837 251.292 138.607 252.283 137.624 253.44C136.837 254.412 136.201 255.467 135.733 256.578C135.303 257.553 135.028 258.416 134.788 259.128C134.548 259.841 134.414 260.374 134.294 260.769L134.16 261.2C134.151 261.25 134.132 261.299 134.103 261.344C134.094 261.292 134.094 261.239 134.103 261.188C134.103 261.074 134.16 260.93 134.195 260.757C134.287 260.374 134.421 259.817 134.633 259.098C134.873 258.225 135.17 257.364 135.521 256.518C135.978 255.386 136.606 254.309 137.391 253.314C138.379 252.13 139.621 251.115 141.052 250.321C142.54 249.417 144.156 248.489 145.877 247.537C149.306 245.621 153.15 243.609 157.016 241.292C160.882 238.975 164.642 236.735 168.642 235.717C170.514 235.214 172.479 235.001 174.44 235.089C176.144 235.157 177.832 235.394 179.47 235.795C181.829 236.384 184.128 237.137 186.341 238.047C187.131 238.358 187.752 238.609 188.14 238.783L188.605 238.981C188.676 238.994 188.743 239.018 188.803 239.052Z" fill="#455A64"/>
<path d="M192.457 237.999C192.415 238.041 191.822 237.556 190.679 237.017C189.18 236.339 187.543 235.91 185.854 235.753C184.16 235.581 182.451 235.535 180.747 235.616C180.044 235.676 179.337 235.696 178.631 235.676C179.323 235.521 180.032 235.427 180.747 235.394C182.467 235.25 184.201 235.266 185.918 235.442C187.663 235.596 189.348 236.07 190.856 236.831C191.305 237.062 191.726 237.33 192.111 237.633C192.344 237.849 192.471 237.987 192.457 237.999Z" fill="#455A64"/>
<path d="M221.973 230.383C221.973 230.383 221.514 230.131 220.703 229.67C219.528 229.054 218.279 228.544 216.978 228.149C215.039 227.591 213.024 227.245 210.982 227.12C208.479 226.969 205.965 227.027 203.476 227.293C200.824 227.569 198.312 227.976 196.027 228.347C193.741 228.718 191.709 229.101 189.995 229.437C188.281 229.772 186.905 230.065 185.953 230.269L184.853 230.502C184.726 230.536 184.596 230.558 184.465 230.568C184.581 230.514 184.704 230.472 184.831 230.443L185.918 230.155C186.856 229.916 188.225 229.586 189.932 229.221C191.639 228.856 193.685 228.461 195.963 228.066C198.242 227.67 200.753 227.257 203.434 226.982C205.947 226.714 208.485 226.664 211.01 226.832C213.079 226.972 215.117 227.347 217.07 227.946C218.378 228.36 219.624 228.904 220.78 229.568C221.19 229.808 221.486 230.024 221.683 230.167C221.881 230.311 221.987 230.377 221.973 230.383Z" fill="#455A64"/>
<path d="M114.09 185.31C114.09 185.31 117.878 209.523 119.402 213.373C120.926 217.222 132.897 231.293 132.897 231.293L148.854 224.874L138.188 207.84L130.816 188.603L114.09 185.31Z" fill="#FFBE9D"/>
<path d="M148.205 223.994C149.586 223.815 150.986 223.761 152.381 223.833C152.912 223.823 153.434 223.946 153.884 224.186C154.137 224.374 154.346 224.601 154.498 224.856C155.301 226.066 155.74 227.426 155.774 228.814C155.812 229.077 155.736 229.342 155.563 229.562C155.217 229.91 154.561 229.802 154.074 229.622C153.388 229.372 152.751 229.035 152.184 228.622C151.441 228.041 150.77 227.397 150.18 226.7L149.56 226.012C149.03 225.413 148.501 224.856 147.979 224.276" fill="#EB996E"/>
<path d="M142.442 213.546C143.606 216.073 147.126 224.108 147.126 224.108L149.56 226.371L144.057 213.043C143.986 212.868 143.839 212.723 143.647 212.636C143.455 212.55 143.231 212.528 143.02 212.576C142.904 212.604 142.796 212.651 142.703 212.716C142.61 212.781 142.534 212.862 142.479 212.953C142.425 213.044 142.393 213.144 142.387 213.246C142.38 213.348 142.399 213.451 142.442 213.546Z" fill="#E0E0E0"/>
<path d="M139.408 224.796C139.408 224.796 136.001 225.018 135.049 225.868C134.096 226.718 133.786 229.281 133.786 229.281C133.786 229.281 131.832 231.616 132.869 233.664C132.869 233.664 131.232 236.879 132.566 237.945C133.12 238.45 133.766 238.879 134.477 239.214H149.828L155.908 231.293L149.828 226.359C149.828 226.359 146.018 221.569 143.958 221.39C141.899 221.21 137.793 221.563 139.408 224.796Z" fill="#FFBE9D"/>
<path d="M139.408 224.797C139.361 224.72 139.32 224.64 139.288 224.557C139.17 224.336 139.087 224.102 139.041 223.862C138.942 223.46 138.994 223.041 139.19 222.665C139.482 222.171 139.987 221.791 140.601 221.605C141.346 221.362 142.137 221.238 142.935 221.24C143.392 221.217 143.851 221.249 144.297 221.336C144.765 221.477 145.197 221.69 145.574 221.964C147.253 223.229 148.73 224.674 149.969 226.263L156.064 231.185L156.169 231.269L156.085 231.371L150.011 239.298L149.962 239.37H149.052H134.484H134.442C133.833 239.07 133.269 238.708 132.763 238.292C132.48 238.107 132.255 237.867 132.107 237.592C131.982 237.318 131.918 237.028 131.917 236.735C131.963 235.665 132.25 234.612 132.763 233.634V233.736C132.406 232.947 132.362 232.081 132.636 231.269C132.86 230.548 133.225 229.864 133.715 229.245V229.293C133.825 228.225 134.162 227.182 134.71 226.216C134.844 226.008 135.026 225.827 135.246 225.683C135.451 225.564 135.671 225.466 135.902 225.389C136.299 225.252 136.71 225.148 137.13 225.078C137.7 224.97 138.277 224.892 138.858 224.844H139.302H139.458C139.458 224.844 139.401 224.844 139.31 224.874L138.865 224.928C138.477 224.982 137.892 225.054 137.158 225.204C136.751 225.288 136.353 225.398 135.966 225.533C135.748 225.613 135.54 225.712 135.345 225.826C135.151 225.962 134.991 226.129 134.872 226.317C134.362 227.262 134.052 228.275 133.955 229.311C133.49 229.913 133.146 230.577 132.939 231.275C132.688 232.039 132.735 232.852 133.073 233.592V233.634V233.688C132.585 234.633 132.314 235.65 132.276 236.681C132.278 236.942 132.335 237.199 132.446 237.442C132.578 237.679 132.777 237.884 133.024 238.041C133.504 238.43 134.034 238.771 134.604 239.058H134.548H149.115H149.828L149.672 239.13L155.76 231.215V231.401L149.694 226.449C148.479 224.871 147.033 223.431 145.39 222.162C145.042 221.902 144.64 221.699 144.205 221.563C143.781 221.477 143.344 221.441 142.907 221.456C142.135 221.444 141.368 221.553 140.643 221.779C140.057 221.941 139.567 222.289 139.274 222.749C139.085 223.099 139.024 223.489 139.098 223.868C139.139 224.113 139.207 224.354 139.302 224.587C139.387 224.725 139.415 224.803 139.408 224.797Z" fill="#EB996E"/>
<path d="M146.618 235.358C145.953 235.365 145.29 235.319 144.636 235.221C144.022 235.161 143.302 235.083 142.519 234.987C142.084 234.936 141.658 234.842 141.249 234.706C140.82 234.549 140.415 234.348 140.043 234.107C138.754 233.28 137.595 232.316 136.594 231.239C136.154 230.811 135.791 230.331 135.514 229.814C135.557 229.784 136.001 230.311 136.798 231.095C137.836 232.116 138.997 233.041 140.262 233.855C140.608 234.094 140.987 234.295 141.391 234.454C141.772 234.584 142.17 234.679 142.576 234.736L144.692 235.035C145.344 235.093 145.989 235.201 146.618 235.358Z" fill="#EB996E"/>
<path d="M145.976 238.723C145.35 238.851 144.708 238.915 144.064 238.915C143.358 238.95 142.65 238.93 141.948 238.855C141.086 238.754 140.248 238.537 139.465 238.214C138.075 237.597 136.816 236.788 135.74 235.819C135.263 235.449 134.834 235.035 134.463 234.586C134.981 234.909 135.467 235.268 135.916 235.658C137.02 236.559 138.267 237.325 139.62 237.933C141.007 238.475 142.524 238.735 144.05 238.693C144.692 238.665 145.336 238.675 145.976 238.723Z" fill="#EB996E"/>
<path d="M148.685 232.023C148.146 231.863 147.634 231.643 147.161 231.371C145.984 230.769 144.87 230.082 143.831 229.317C142.792 228.552 141.833 227.71 140.967 226.802C140.579 226.445 140.253 226.042 140.001 225.605C140.086 225.545 141.659 227.305 144.071 229.077C146.484 230.85 148.748 231.939 148.685 232.023Z" fill="#EB996E"/>
<path d="M114.09 242.771V238.166H159.464V239.651V239.951L153.108 243.747L114.09 242.771Z" fill="white"/>
<path d="M152.268 244.088H110.697V242.232H155.535L152.268 244.088Z" fill="#455A64"/>
<path d="M167.146 224.078C166.666 224.156 156.565 225.629 156.565 225.629L149.355 232.975V238.166C149.355 238.166 151.563 239.256 152.621 237.627C152.621 237.627 150.406 242.932 151.274 243.711C152.141 244.489 153.538 245.136 154.737 243.711C155.853 242.13 156.817 240.476 157.623 238.765L157.912 240.956C157.912 240.956 163.972 238.442 164.642 237.705C165.312 236.969 169.262 232.155 169.262 232.155L171.089 230.766L169.262 233.215C169.262 233.215 165.989 236.155 167.337 236.729C168.684 237.304 171.089 235.179 171.089 235.179L174.835 231.502L178.01 231.179C178.093 229.399 177.932 227.617 177.53 225.868C177.311 224.737 175.033 222.449 175.259 222.21C175.259 222.21 175.259 222.168 175.259 222.174L167.146 224.078Z" fill="#FFBE9D"/>
<path d="M158.758 227.964C158.379 228.42 157.965 228.854 157.517 229.263C156.509 230.287 155.567 231.356 154.695 232.466C154.307 233.111 154.043 233.804 153.912 234.52C153.7 235.179 153.468 235.765 153.263 236.25C153.077 236.787 152.821 237.306 152.501 237.795C152.624 237.248 152.796 236.709 153.016 236.185C153.193 235.694 153.39 235.107 153.581 234.448C153.679 234.113 153.757 233.772 153.849 233.406C153.943 233.012 154.125 232.636 154.385 232.299C155.263 231.172 156.249 230.109 157.333 229.119C157.752 228.687 158.231 228.299 158.758 227.964Z" fill="#EB996E"/>
<path d="M163.873 229.191C163.873 229.191 163.753 229.323 163.513 229.539L162.525 230.467C162.109 230.862 161.615 231.341 161.115 231.874C160.854 232.143 160.571 232.424 160.296 232.724C159.993 233.008 159.754 233.336 159.591 233.694C158.73 236.167 157.99 238.304 157.679 238.999L157.594 239.19V238.993C157.594 238.777 157.559 238.675 157.594 238.669C157.63 238.663 157.658 238.765 157.721 238.975H157.587C157.764 238.232 158.392 236.107 159.266 233.586C159.344 233.385 159.454 233.194 159.591 233.017C159.725 232.844 159.866 232.688 160.007 232.538C160.289 232.233 160.578 231.939 160.854 231.688C161.404 231.155 161.919 230.694 162.356 230.317C162.788 229.876 163.3 229.496 163.873 229.191Z" fill="#EB996E"/>
<path d="M166.476 230.736C166.199 231.141 165.86 231.514 165.467 231.844L164.296 232.981C164.066 233.197 163.851 233.425 163.654 233.664C163.459 233.924 163.299 234.201 163.174 234.49C162.913 235.089 162.744 235.688 162.554 236.25L162.053 237.699C161.928 238.155 161.744 238.596 161.503 239.017C161.542 238.552 161.641 238.092 161.799 237.645L162.229 236.173C162.393 235.566 162.593 234.966 162.829 234.376C162.962 234.066 163.14 233.77 163.358 233.496C163.575 233.248 163.811 233.012 164.063 232.79C164.515 232.365 164.945 231.999 165.298 231.694C165.658 231.347 166.052 231.026 166.476 230.736Z" fill="#EB996E"/>
<path d="M178.341 230.838C178.271 230.863 178.198 230.881 178.123 230.892L177.453 231.035L174.857 231.556C174.342 232.071 173.749 232.664 173.072 233.352L171.999 234.418C171.619 234.821 171.211 235.204 170.779 235.568C170.291 235.962 169.751 236.307 169.171 236.598C168.857 236.755 168.517 236.87 168.162 236.939C167.965 236.985 167.757 236.989 167.558 236.95C167.358 236.911 167.173 236.831 167.019 236.717C166.95 236.644 166.899 236.56 166.871 236.469C166.844 236.378 166.839 236.283 166.857 236.191C166.883 236.02 166.935 235.853 167.012 235.694C167.172 235.383 167.365 235.087 167.59 234.807C168.051 234.232 168.563 233.688 169.121 233.179L170.941 230.724L171.167 230.886L169.347 232.281L165.002 237.532C164.903 237.645 164.818 237.759 164.705 237.873C164.581 237.984 164.444 238.085 164.296 238.172C164.021 238.346 163.739 238.502 163.45 238.651C162.871 238.951 162.279 239.25 161.672 239.508C160.463 240.066 159.222 240.611 157.947 241.142L157.721 241.238V241.022C157.63 240.334 157.531 239.585 157.432 238.831L157.778 238.873C157.298 239.855 156.79 240.843 156.212 241.831C155.93 242.328 155.626 242.819 155.288 243.304C154.97 243.837 154.481 244.283 153.877 244.591C153.659 244.682 153.422 244.735 153.179 244.747C152.937 244.758 152.694 244.727 152.466 244.657C152.03 244.516 151.634 244.3 151.302 244.022C151.213 243.954 151.13 243.88 151.055 243.8C150.982 243.706 150.931 243.6 150.907 243.489C150.865 243.292 150.85 243.091 150.865 242.89C150.892 242.518 150.949 242.148 151.034 241.783C151.394 240.361 151.866 238.961 152.445 237.592L152.776 237.717C152.617 237.977 152.386 238.199 152.104 238.367C151.821 238.535 151.495 238.643 151.154 238.681C150.492 238.715 149.834 238.586 149.256 238.31L149.172 238.274V238.184C149.172 236.396 149.172 234.666 149.172 232.993V232.909V232.868C151.789 230.215 154.215 227.754 156.409 225.539V225.503H156.466L167.047 223.988L173.072 222.611L174.673 222.258L175.089 222.174C175.132 222.174 175.174 222.144 175.195 222.174C175.216 222.204 175.195 222.204 175.195 222.204C175.195 222.204 175.047 222.204 174.694 222.306L173.107 222.701L167.111 224.15L156.529 225.737L156.614 225.695L149.418 233.053L149.461 232.963C149.461 234.632 149.461 236.362 149.461 238.154L149.369 238.023C149.881 238.265 150.463 238.377 151.048 238.346C151.334 238.316 151.606 238.227 151.842 238.086C152.077 237.945 152.267 237.756 152.395 237.538L152.72 237.663C152.16 239.01 151.703 240.386 151.351 241.783C151.27 242.135 151.215 242.491 151.189 242.848C151.179 243.021 151.191 243.193 151.224 243.363C151.259 243.516 151.363 243.652 151.514 243.741C151.769 244.007 152.114 244.199 152.504 244.291C152.893 244.383 153.306 244.371 153.686 244.256C154.219 243.961 154.644 243.547 154.914 243.058C155.245 242.585 155.542 242.1 155.831 241.609C156.395 240.627 156.91 239.645 157.383 238.675L157.658 238.118L157.736 238.717C157.834 239.466 157.933 240.214 158.018 240.903L157.764 240.783C159.034 240.256 160.275 239.711 161.474 239.166C162.074 238.885 162.667 238.609 163.238 238.316C163.52 238.166 163.802 238.017 164.063 237.855C164.187 237.78 164.303 237.696 164.409 237.604C164.515 237.502 164.606 237.376 164.698 237.268C166.222 235.472 167.682 233.676 169.058 232.041L170.885 230.652L171.703 230.053L171.118 230.832L169.284 233.275C168.732 233.775 168.225 234.309 167.767 234.873C167.552 235.137 167.368 235.418 167.217 235.712C167.076 235.993 166.984 236.31 167.167 236.514C167.294 236.598 167.443 236.656 167.601 236.683C167.759 236.71 167.922 236.705 168.077 236.67C168.407 236.608 168.724 236.503 169.015 236.358C169.583 236.081 170.11 235.749 170.589 235.37C171.02 235.011 171.43 234.633 171.816 234.239L172.895 233.191L174.708 231.443L177.326 230.97L178.031 230.856C178.133 230.84 178.237 230.834 178.341 230.838Z" fill="#EB996E"/>
<path d="M126.696 97.3729C125.062 96.3452 123.807 94.9428 123.08 93.3306C122.353 91.7184 122.183 89.9634 122.591 88.2721C122.694 88.1115 122.753 87.9329 122.762 87.75C122.772 87.5671 122.732 87.3848 122.645 87.2171C122.559 87.0495 122.428 86.9009 122.263 86.7827C122.099 86.6646 121.904 86.5801 121.695 86.5357C120.743 86.1131 119.903 85.5305 119.225 84.8233C118.547 84.1161 118.045 83.2993 117.751 82.4224C117.475 81.5395 117.478 80.6104 117.759 79.7286C118.04 78.8468 118.59 78.0433 119.353 77.399C116.228 76.459 114.916 72.8905 116.383 70.3698C117.85 67.8491 121.462 66.5498 124.756 66.8851C123.621 65.4661 124.114 63.4244 125.462 62.1491C126.916 60.94 128.796 60.1682 130.816 59.9517C133.49 59.5386 136.699 59.8021 138.23 61.706C138.371 60.299 140.043 59.353 141.659 59.0117C143.848 58.621 146.131 58.9281 148.071 59.8745C150.011 60.8209 151.472 62.3403 152.177 64.1429C153.504 63.2136 155.138 62.6571 156.854 62.5503C158.561 62.5503 160.381 63.4244 160.748 64.8374C161.453 63.5502 163.316 63.0412 164.98 62.8856C166.186 62.743 167.414 62.9098 168.508 63.3646C169.049 63.6041 169.491 63.9788 169.773 64.4381C170.056 64.8974 170.166 65.4192 170.088 65.9331C171.198 65.5755 172.426 65.5846 173.528 65.9584C174.631 66.3323 175.528 67.0438 176.043 67.9522C176.557 68.8606 176.651 69.8997 176.306 70.864C175.961 71.8284 175.202 72.6477 174.179 73.1599C175.081 73.5872 175.838 74.2035 176.379 74.9501C176.92 75.6967 177.227 76.5485 177.269 77.4242C177.312 78.2999 177.089 79.1702 176.622 79.952C176.155 80.7338 175.46 81.4009 174.603 81.8895C175.618 81.9614 176.133 83.1229 175.675 83.9013C175.404 84.2705 175.034 84.5802 174.595 84.8049C174.156 85.0297 173.661 85.1632 173.149 85.1946L174.356 94.1158C174.733 96.025 174.754 97.9727 174.419 99.8876C173.961 101.78 172.656 103.63 170.575 104.414" fill="#263238"/>
<path d="M125.596 88.781C125.074 81.5422 133.137 73.3994 141.68 73.2617L169.679 74.7765L170.158 78.6503L176.677 128.615L146.173 143.374L144.297 124.568C144.297 124.568 133.264 124.196 129.257 112.461C127.254 106.623 126.181 96.822 125.596 88.781Z" fill="#FFBE9D"/>
<path d="M130.075 97.5405C130.132 97.9409 130.37 98.307 130.738 98.5616C131.107 98.8162 131.577 98.9396 132.051 98.9057C132.283 98.8974 132.511 98.8495 132.721 98.765C132.931 98.6804 133.119 98.5608 133.274 98.4134C133.429 98.2659 133.547 98.0936 133.621 97.9066C133.696 97.7197 133.726 97.5219 133.708 97.325C133.655 96.9245 133.419 96.5576 133.052 96.3025C132.684 96.0475 132.213 95.9245 131.74 95.9599C131.508 95.9682 131.279 96.016 131.069 96.1005C130.858 96.185 130.67 96.3045 130.515 96.4518C130.359 96.5992 130.241 96.7715 130.165 96.9584C130.09 97.1454 130.059 97.3434 130.075 97.5405Z" fill="#263238"/>
<path d="M128.841 93.5949C129.095 93.7685 130.343 92.7626 132.29 92.559C134.237 92.3555 135.818 93.032 135.966 92.8105C136.058 92.7087 135.775 92.3734 135.098 92.0501C134.181 91.646 133.139 91.4913 132.114 91.607C131.102 91.7103 130.155 92.0859 129.412 92.6788C128.869 93.1338 128.721 93.517 128.841 93.5949Z" fill="#263238"/>
<path d="M147.486 96.3371C147.539 96.7387 147.776 97.1066 148.145 97.3618C148.514 97.617 148.987 97.7392 149.461 97.7022C149.693 97.6931 149.92 97.6447 150.13 97.5599C150.34 97.4751 150.527 97.3555 150.682 97.2082C150.836 97.0609 150.955 96.8889 151.03 96.7023C151.105 96.5157 151.135 96.3182 151.119 96.1215C151.065 95.721 150.829 95.3541 150.462 95.0991C150.094 94.844 149.623 94.7211 149.15 94.7564C148.918 94.7647 148.689 94.8126 148.479 94.8971C148.268 94.9816 148.08 95.101 147.925 95.2484C147.77 95.3957 147.651 95.568 147.575 95.755C147.5 95.942 147.469 96.1399 147.486 96.3371Z" fill="#263238"/>
<path d="M148.022 92.2058C148.276 92.3854 149.524 91.3795 151.471 91.1759C153.418 90.9724 154.963 91.649 155.147 91.4214C155.238 91.3196 154.956 90.9843 154.279 90.667C153.362 90.2605 152.32 90.1037 151.295 90.218C150.283 90.3237 149.337 90.6989 148.593 91.2897C148.05 91.7687 147.902 92.1519 148.022 92.2058Z" fill="#263238"/>
<path d="M142.773 104.875C142.773 104.779 141.532 104.731 139.535 104.725C139.034 104.725 138.555 104.725 138.428 104.42C138.321 103.99 138.373 103.543 138.576 103.139C138.886 102.067 139.225 100.941 139.571 99.7679C140.939 94.9779 141.863 91.0562 141.63 91.0143C141.398 90.9724 140.114 94.8163 138.745 99.6062L137.835 102.983C137.602 103.526 137.602 104.122 137.835 104.666C137.929 104.807 138.06 104.928 138.218 105.019C138.375 105.111 138.556 105.17 138.745 105.192C139.028 105.225 139.316 105.225 139.599 105.192C141.546 105.091 142.773 104.971 142.773 104.875Z" fill="#263238"/>
<path d="M144.297 124.574C150.953 123.953 157.276 121.777 162.561 118.287C162.561 118.287 158.78 127.184 144.495 127.561L144.297 124.574Z" fill="#EB996E"/>
<path d="M144.184 108.767C144.496 108.332 144.932 107.973 145.453 107.721C145.974 107.47 146.562 107.335 147.161 107.33C147.596 107.316 148.03 107.378 148.436 107.51C148.842 107.643 149.212 107.845 149.524 108.102C149.825 108.35 150.029 108.67 150.108 109.019C150.188 109.368 150.139 109.729 149.969 110.054C149.699 110.385 149.319 110.639 148.878 110.785C148.437 110.932 147.955 110.963 147.493 110.874C146.533 110.694 145.624 110.354 144.819 109.875C144.582 109.765 144.369 109.622 144.191 109.449C144.112 109.367 144.061 109.267 144.046 109.161C144.031 109.055 144.052 108.947 144.107 108.851" fill="#EB996E"/>
<path d="M148.664 105.408C148.346 105.408 148.6 107.204 146.985 108.689C145.369 110.174 143.084 110.192 143.105 110.443C143.105 110.563 143.655 110.743 144.607 110.659C145.848 110.545 147 110.061 147.859 109.294C148.68 108.561 149.132 107.586 149.122 106.576C149.122 105.803 148.805 105.378 148.664 105.408Z" fill="#263238"/>
<path d="M146.568 86.392C146.822 86.8171 148.741 86.392 151.055 86.392C153.369 86.392 155.288 86.7153 155.542 86.2782C155.647 86.0747 155.267 85.6795 154.455 85.3262C153.384 84.901 152.209 84.6959 151.027 84.7275C149.841 84.7365 148.674 84.9805 147.62 85.44C146.822 85.7873 146.456 86.2184 146.568 86.392Z" fill="#263238"/>
<path d="M128.855 88.7331C129.25 89.0744 130.534 88.5415 132.142 88.3559C133.751 88.1703 135.162 88.29 135.416 87.8649C135.528 87.6554 135.253 87.3021 134.604 87.0147C133.741 86.6755 132.778 86.561 131.837 86.6857C130.897 86.8104 130.021 87.1686 129.321 87.7152C128.806 88.1643 128.665 88.5655 128.855 88.7331Z" fill="#263238"/>
<path d="M129.37 74.3634C129.072 75.5096 129.187 76.7054 129.7 77.7955C130.212 78.8856 131.099 79.8198 132.245 80.4769C133.391 81.1339 134.743 81.4835 136.126 81.4802C137.509 81.4769 138.859 81.121 140.001 80.4585C139.176 81.3207 139.535 82.7038 140.516 83.4522C141.564 84.1365 142.885 84.4459 144.198 84.3144C145.571 84.2322 146.907 83.9004 148.116 83.3415C149.324 82.7827 150.377 82.0098 151.203 81.0752C151.478 81.9822 152.001 82.8211 152.731 83.5233C153.461 84.2256 154.376 84.7713 155.402 85.1159C156.428 85.4604 157.535 85.594 158.633 85.5057C159.732 85.4174 160.79 85.1097 161.721 84.6078C161.091 85.262 160.648 86.032 160.43 86.8566C160.211 87.6813 160.222 88.5378 160.461 89.3583C160.701 90.1788 161.163 90.9405 161.81 91.583C162.457 92.2255 163.272 92.7311 164.189 93.0596C165.107 93.3881 166.102 93.5305 167.096 93.4755C168.09 93.4204 169.055 93.1694 169.914 92.7425C170.774 92.3155 171.504 91.7243 172.047 91.0158C172.591 90.3074 172.932 89.5012 173.044 88.6613C173.996 88.192 174.807 87.5424 175.415 86.763C176.023 85.9836 176.41 85.0955 176.547 84.1682C176.683 83.2408 176.565 82.2992 176.203 81.4168C175.84 80.5344 175.241 79.7352 174.454 79.0814C175.124 78.7868 175.69 78.3479 176.096 77.8087C176.502 77.2696 176.734 76.6492 176.768 76.0099C176.814 74.7317 176.468 73.4652 175.767 72.3336C174.193 69.5136 171.47 67.0528 168.007 66.0888C164.543 65.1248 160.247 65.9092 158.025 68.376C157.814 68.6797 157.499 68.9219 157.122 69.0705C156.84 69.0963 156.555 69.0652 156.291 68.9799C156.026 68.8946 155.789 68.7574 155.598 68.5796C153.658 67.2204 151.619 65.7595 149.136 65.4481C147.625 65.2964 146.098 65.5814 144.801 66.2571C143.505 66.9329 142.514 67.9599 141.99 69.1723C139.952 66.8971 136.114 65.7236 133.017 66.8432C129.92 67.9629 128.291 71.5852 130.195 73.9502" fill="#263238"/>
<path d="M166.292 90.7688C166.794 93.1892 167.702 95.5361 168.987 97.7382C169.53 98.6662 170.328 99.6781 171.548 99.7798C172.108 99.7824 172.654 99.6326 173.106 99.3524C173.558 99.0722 173.892 98.6764 174.059 98.2231C174.368 97.3072 174.409 96.3415 174.179 95.4091C173.541 92.0845 172.641 88.8 171.485 85.5778" fill="#263238"/>
<path d="M169.77 93.2715C169.933 93.1757 176.578 90.4036 177.594 96.4987C178.609 102.594 171.188 102.205 171.146 102.031C171.104 101.857 169.77 93.2715 169.77 93.2715Z" fill="#FFBE9D"/>
<path d="M172.959 99.4625C172.959 99.4625 173.093 99.5224 173.319 99.5763C173.634 99.6467 173.97 99.6125 174.257 99.4805C174.962 99.1512 175.449 98.0555 175.301 96.9478C175.229 96.423 175.022 95.918 174.694 95.4689C174.595 95.2866 174.444 95.1277 174.256 95.0056C174.068 94.8836 173.848 94.8022 173.615 94.7684C173.463 94.7487 173.307 94.7767 173.177 94.8473C173.047 94.9178 172.952 95.0259 172.909 95.1516C172.839 95.3312 172.909 95.445 172.867 95.4629C172.825 95.4809 172.698 95.3791 172.712 95.1216C172.726 94.9647 172.803 94.8167 172.931 94.7025C173.119 94.5466 173.373 94.4605 173.636 94.463C173.939 94.4787 174.231 94.5595 174.487 94.6978C174.742 94.8361 174.952 95.0273 175.096 95.2534C175.485 95.7456 175.727 96.3107 175.802 96.8999C175.957 98.1333 175.414 99.3727 174.391 99.7559C174.208 99.8294 174.008 99.8676 173.805 99.8676C173.603 99.8676 173.403 99.8294 173.22 99.7559C172.994 99.6062 172.938 99.4745 172.959 99.4625Z" fill="#EB996E"/>
<path d="M131.141 103.516C129.419 103.516 127.282 103.414 126.583 102.917C125.554 102.223 124.22 99.3907 123.056 96.7143C122.908 96.373 122.809 96.1156 122.774 96.0796L123.388 95.7923C123.516 96.0257 123.626 96.2657 123.719 96.5107C124.347 97.9477 126.005 101.762 127.021 102.45C128.22 103.259 137.348 102.833 138.124 102.229C138.604 101.798 139.394 98.1573 139.796 95.7084L139.839 95.4869L143.436 95.0438L143.549 95.2354C144.459 96.7742 147.189 100.911 148.875 101.564C150.992 102.378 158.66 101.127 159.153 100.367C159.584 99.726 160.423 95.4869 160.882 92.7986L160.924 92.5591L171.978 91.8705L172.028 92.4693L161.538 93.1279C161.305 94.463 160.353 99.7918 159.767 100.666C158.977 101.863 150.709 102.929 148.579 102.109C146.449 101.289 143.641 96.7203 143.034 95.6965L140.459 96.0138C140.227 97.3969 139.394 101.959 138.632 102.642C137.87 103.324 133.342 103.444 132.827 103.462C132.312 103.48 131.797 103.516 131.141 103.516Z" fill="#455A64"/>
<path d="M143.782 96.0856L142.943 95.1216C147.415 92.3136 155.774 90.5054 161.467 92.4812L160.938 93.5889C155.859 91.8286 147.965 93.4572 143.782 96.0856Z" fill="#455A64"/>
<path d="M123.289 96.6724L122.619 95.6186C128.157 93.0859 135.684 92.9901 140.516 95.3911L139.81 96.4269C135.437 94.2535 128.34 94.3612 123.289 96.6724Z" fill="#455A64"/>
<path d="M175.329 96.5047C174.937 96.3089 174.49 96.2056 174.035 96.2056C173.579 96.2056 173.133 96.3089 172.74 96.5047C172.486 96.6686 172.293 96.892 172.186 97.1474C172.078 97.4028 172.061 97.6792 172.136 97.9428C172.211 98.2065 172.374 98.4459 172.607 98.6318C172.84 98.8176 173.131 98.942 173.446 98.9895C173.776 98.9999 174.102 99.0544 174.412 99.1512C174.564 99.2367 174.689 99.3522 174.776 99.4878C174.863 99.6234 174.91 99.775 174.913 99.9295C174.916 100.237 174.881 100.544 174.807 100.846C174.696 101.549 174.756 102.264 174.983 102.947C175.036 103.15 175.159 103.336 175.336 103.48C175.5 103.58 175.698 103.633 175.901 103.63C176.214 103.618 176.52 103.543 176.792 103.411C177.065 103.279 177.296 103.093 177.467 102.869C177.806 102.419 178.02 101.909 178.094 101.378C178.255 100.563 178.279 99.7326 178.165 98.9117C178.129 98.4044 177.939 97.9137 177.615 97.4867C177.057 96.828 174.92 96.2892 173.968 96.2054" fill="#263238"/>
<path d="M151.387 79.8119C151.32 79.844 151.249 79.8682 151.175 79.8837C151.027 79.9256 150.808 79.9795 150.519 80.0394C149.685 80.2219 148.826 80.3105 147.965 80.3028C147.348 80.2996 146.733 80.2271 146.138 80.0873C145.372 79.9246 144.66 79.6134 144.059 79.1782C143.458 78.7429 142.984 78.1954 142.674 77.5786C142.293 76.8384 142.247 76.0044 142.547 75.2375L142.801 75.3812C141.27 76.5625 139.33 77.2931 137.271 77.4648C136.147 77.5636 135.012 77.4885 133.92 77.2433C133.344 77.1153 132.795 76.9134 132.29 76.6445C131.766 76.366 131.341 75.9704 131.063 75.501C130.766 74.9509 130.619 74.3514 130.633 73.7466C130.634 73.1714 130.686 72.597 130.788 72.0283C130.866 71.4665 131.042 70.9177 131.31 70.3997C131.433 70.1363 131.624 69.8994 131.868 69.7058C132.112 69.5122 132.403 69.3668 132.721 69.2801L132.841 69.5555C131.668 69.9934 130.357 70.0861 129.116 69.8189C127.987 69.5955 126.955 69.1057 126.139 68.4059C125.412 67.784 124.92 66.9916 124.728 66.1307C124.54 65.2457 124.628 64.3343 124.984 63.4874C125.341 62.6405 125.953 61.8879 126.76 61.3049C127.091 61.0525 127.47 60.8501 127.881 60.7061C127.881 60.7361 127.472 60.8857 126.837 61.3587C125.942 62.046 125.315 62.9482 125.039 63.9453C124.838 64.6399 124.819 65.3633 124.982 66.0648C125.176 66.8779 125.65 67.6239 126.344 68.2083C127.123 68.8598 128.1 69.3157 129.165 69.5255C130.343 69.775 131.585 69.6823 132.693 69.2621L132.812 69.5375C132.539 69.6129 132.289 69.7391 132.08 69.9069C131.872 70.0747 131.71 70.2798 131.606 70.5075C131.355 70.9971 131.191 71.5157 131.119 72.0462C130.957 73.1299 130.795 74.3214 131.366 75.3393C131.644 75.7454 132.021 76.0958 132.473 76.3665C132.925 76.6373 133.44 76.822 133.984 76.908C135.034 77.1422 136.126 77.2152 137.207 77.1235C139.194 76.9674 141.069 76.2726 142.555 75.1417L143.034 74.7705L142.816 75.2854C142.536 75.9898 142.571 76.757 142.914 77.4409C143.222 78.0678 143.707 78.6209 144.325 79.0515C144.869 79.4278 145.498 79.7049 146.173 79.8658C146.752 80.0097 147.349 80.0902 147.951 80.1053C148.799 80.1241 149.646 80.0618 150.477 79.9196C151.076 79.8658 151.387 79.7939 151.387 79.8119Z" fill="white"/>
<path d="M128.756 79.4946C128.626 79.6032 128.469 79.6869 128.298 79.7401C127.852 79.9074 127.374 80.0029 126.887 80.0215C126.144 80.0563 125.406 79.8997 124.771 79.5724C124.37 79.3589 124.081 79.0221 123.966 78.6324C123.899 78.4149 123.908 78.1852 123.993 77.9722C124.079 77.7592 124.236 77.5723 124.446 77.4349L124.629 77.7043L124.51 77.7463C123.738 78.0204 122.904 78.1475 122.068 78.1185C121.232 78.0896 120.413 77.9053 119.67 77.5786C119.224 77.3875 118.814 77.1391 118.457 76.8422C118.21 76.6266 118.097 76.4889 118.111 76.4769C118.635 76.8211 119.194 77.1238 119.783 77.381C120.498 77.662 121.275 77.8139 122.063 77.8273C122.851 77.8407 123.633 77.7153 124.361 77.4589L124.474 77.4229L126.132 76.8242L124.658 77.6744C124.507 77.7765 124.394 77.9132 124.333 78.0683C124.272 78.2233 124.264 78.3901 124.312 78.5486C124.408 78.8623 124.64 79.1339 124.961 79.309C125.541 79.6214 126.214 79.7857 126.901 79.782C127.532 79.7595 128.156 79.6627 128.756 79.4946Z" fill="white"/>
<path d="M136.749 92.5171C136.714 92.559 136.283 92.2896 135.5 92.0082C134.491 91.6337 133.39 91.4713 132.291 91.5349C131.192 91.5985 130.127 91.8861 129.187 92.3734C128.481 92.7446 128.072 93.062 128.03 93.026C128.287 92.6838 128.635 92.3968 129.045 92.1878C130 91.6288 131.113 91.296 132.269 91.2238C133.427 91.1645 134.582 91.3714 135.613 91.8226C136.052 91.9736 136.441 92.2118 136.749 92.5171Z" fill="#EB996E"/>
<path d="M155.838 90.4574C155.489 90.3405 155.148 90.2086 154.815 90.0623C153.999 89.7671 153.113 89.6394 152.228 89.6893C151.343 89.7392 150.484 89.9655 149.722 90.3497C149.419 90.5336 149.103 90.7016 148.777 90.8526C148.777 90.8526 149.002 90.5173 149.588 90.1641C150.359 89.7041 151.264 89.4329 152.205 89.3802C153.145 89.3274 154.085 89.495 154.921 89.8647C155.556 90.1521 155.866 90.4095 155.838 90.4574Z" fill="#EB996E"/>
<path d="M150.477 105.851C150.427 105.851 150.328 105.755 150.138 105.624C149.881 105.463 149.584 105.352 149.27 105.3C148.523 105.186 147.859 105.252 147.824 105.145C148.292 104.935 148.836 104.881 149.348 104.995C149.728 105.053 150.073 105.222 150.321 105.474C150.533 105.671 150.533 105.833 150.477 105.851Z" fill="#EB996E"/>
<path d="M151.944 106.575C151.845 106.575 151.626 106.156 151.238 105.659C150.85 105.162 150.533 104.797 150.604 104.731C150.674 104.666 151.175 104.959 151.556 105.498C151.937 106.037 152.071 106.575 151.944 106.575Z" fill="#EB996E"/>
<path d="M137.003 122.304C137.039 122.386 137.065 122.47 137.08 122.556C137.13 122.741 137.193 122.993 137.278 123.31C137.447 123.993 137.694 124.963 137.983 126.214C138.639 128.729 139.549 132.381 141.186 136.776C142.823 141.171 145.341 146.296 149.835 151.044C150.956 152.241 152.177 153.397 153.439 154.576C154.033 155.191 154.707 155.745 155.45 156.229C156.215 156.685 157.159 156.869 158.081 156.744C159.023 156.583 159.912 156.248 160.684 155.762C161.484 155.264 162.237 154.714 162.935 154.115C164.409 152.948 165.806 151.685 167.167 150.385C172.648 145.146 176.754 139.261 178.701 133.405C179.648 130.642 180.165 127.786 180.239 124.909C180.305 122.402 180.125 119.895 179.703 117.413C179.061 113.817 178.182 110.255 177.072 106.743C176.691 105.51 176.366 104.546 176.19 103.869C176.098 103.552 176.02 103.306 175.964 103.121C175.937 103.036 175.916 102.95 175.901 102.863C175.944 102.945 175.979 103.029 176.006 103.115C176.07 103.294 176.154 103.54 176.26 103.857C176.486 104.522 176.803 105.486 177.206 106.713C178.376 110.22 179.297 113.783 179.964 117.383C180.402 119.876 180.595 122.395 180.542 124.915C180.482 127.815 179.972 130.696 179.026 133.483C177.079 139.392 172.952 145.326 167.442 150.589C166.031 151.9 164.621 153.169 163.16 154.343C162.447 154.95 161.678 155.509 160.861 156.013C160.044 156.526 159.105 156.88 158.109 157.049C157.092 157.178 156.056 156.963 155.224 156.45C154.458 155.956 153.762 155.387 153.15 154.756C151.895 153.559 150.667 152.397 149.545 151.2C145.637 146.909 142.708 142.035 140.911 136.83C139.666 133.342 138.632 129.803 137.814 126.226C137.532 124.975 137.306 123.993 137.151 123.31C137.08 122.987 137.031 122.712 136.989 122.55C136.985 122.468 136.989 122.386 137.003 122.304Z" fill="#263238"/>
<path d="M163.047 223.443C163.047 223.443 163.047 223.389 162.984 223.276C162.921 223.162 162.885 222.976 162.822 222.767C162.758 222.557 162.674 222.258 162.575 221.935C162.485 221.551 162.422 221.163 162.384 220.773C162.124 218.284 162.379 215.775 163.139 213.361C163.958 210.283 165.531 206.774 166.666 202.739C167.298 200.642 167.604 198.484 167.576 196.32C167.484 194.001 166.903 191.713 165.862 189.567C164.86 187.333 163.619 185.238 162.49 183.184C161.361 181.13 160.247 179.101 160.106 176.969C159.965 174.838 160.952 172.934 161.517 171.167C161.804 170.321 161.951 169.444 161.954 168.563C161.922 167.743 161.726 166.933 161.376 166.168C160.732 164.871 159.98 163.614 159.125 162.408C158.482 161.482 157.968 160.495 157.594 159.468C157.471 159.088 157.386 158.699 157.341 158.307C157.323 158.021 157.323 157.736 157.341 157.45L157.446 156.923C157.452 156.864 157.466 156.806 157.489 156.75C157.333 157.648 157.415 158.564 157.729 159.432C158.127 160.44 158.654 161.408 159.302 162.318C160.184 163.525 160.96 164.786 161.623 166.09C161.984 166.87 162.191 167.696 162.236 168.533C162.248 169.447 162.108 170.358 161.82 171.239C161.291 173.036 160.346 174.898 160.487 176.957C160.628 179.017 161.728 181.029 162.857 183.064C163.986 185.1 165.234 187.208 166.25 189.459C167.302 191.641 167.888 193.964 167.979 196.32C168.002 198.509 167.686 200.692 167.04 202.811C165.855 206.864 164.254 210.367 163.407 213.42C162.63 215.808 162.332 218.289 162.525 220.761C162.555 221.148 162.609 221.534 162.688 221.917C162.765 222.24 162.836 222.515 162.892 222.749C162.949 222.982 162.984 223.132 163.019 223.264C163.035 223.323 163.044 223.383 163.047 223.443Z" fill="#263238"/>
<path d="M155.535 156.109L155.316 156.774L157.03 158.618H157.75L159.64 156.774L159.337 156.109H155.535Z" fill="#455A64"/>
<path d="M12.5356 218.779L44.1391 266.038L166.68 266.08C167.176 266.076 167.649 265.907 167.998 265.609C168.347 265.311 168.543 264.907 168.543 264.487C168.545 264.067 168.351 263.664 168.003 263.365C167.655 263.067 167.182 262.897 166.688 262.894L125.977 261.93C125.06 261.92 124.164 261.701 123.382 261.296C122.6 260.89 121.961 260.313 121.533 259.625L95.0999 216.845C94.8314 216.414 94.431 216.051 93.9407 215.796C93.4504 215.541 92.8883 215.403 92.3134 215.396L15.3291 214.744C14.77 214.739 14.2194 214.86 13.7329 215.094C13.2464 215.328 12.8411 215.667 12.5578 216.076C12.2746 216.485 12.1234 216.95 12.1195 217.425C12.1156 217.9 12.2591 218.367 12.5356 218.779Z" fill="#455A64"/>
<path d="M12.6696 217.001C12.6696 217.001 12.7966 217.001 13.0365 217.001H14.1158H18.2496L33.4588 217.115L83.6436 217.6L87.2977 217.642H89.1037C89.7327 217.639 90.3531 217.766 90.912 218.011C91.4709 218.256 91.9517 218.612 92.3134 219.049C92.6591 219.498 92.8848 219.941 93.174 220.384L94.7965 223.012L100.983 233.029C104.92 239.412 108.461 245.166 111.438 249.997L118.492 261.451C119.303 262.798 119.945 263.846 120.383 264.571C120.587 264.924 120.75 265.169 120.869 265.385C120.989 265.601 121.018 265.672 121.018 265.672L120.834 265.403C120.707 265.211 120.538 264.942 120.319 264.601C119.861 263.882 119.205 262.84 118.365 261.505C116.672 258.805 114.238 254.919 111.24 250.099C108.242 245.279 104.68 239.555 100.687 233.179L94.4791 223.168L92.8495 220.545C92.5744 220.114 92.3204 219.635 92.0171 219.246C91.6895 218.85 91.2538 218.528 90.7473 218.306C90.2396 218.083 89.6755 217.968 89.1037 217.971H87.2907L83.6436 217.935L33.4306 217.342L18.2214 217.133L14.0805 217.061L13.0082 217.031L12.6696 217.001Z" fill="#263238"/>
<path d="M63.8702 239.172C63.9228 239.684 63.7919 240.198 63.4946 240.646C63.1974 241.094 62.7476 241.455 62.2043 241.682C61.661 241.909 61.0496 241.991 60.4501 241.919C59.8506 241.846 59.291 241.621 58.8448 241.273C58.3985 240.926 58.0864 240.472 57.9493 239.971C57.8122 239.471 57.8565 238.946 58.0764 238.467C58.2963 237.989 58.6816 237.577 59.1817 237.287C59.6819 236.997 60.2735 236.843 60.8792 236.843C61.6396 236.816 62.3819 237.045 62.9428 237.482C63.5036 237.919 63.8372 238.527 63.8702 239.172Z" fill="white"/>
<path d="M320 266.008C320 266.092 248.363 266.163 160.007 266.163C71.6512 266.163 0 266.092 0 266.008C0 265.924 71.6229 265.84 160.007 265.84C248.391 265.84 320 265.918 320 266.008Z" fill="#263238"/>
<path d="M199.384 111.054L211.038 105.438C217.669 108.913 225.592 110.158 233.249 108.927C240.906 107.695 247.744 104.078 252.418 98.7848C257.092 93.4918 259.264 86.9064 258.507 80.323C257.751 73.7397 254.12 67.6347 248.329 63.2082C242.538 58.7816 235.005 56.3538 227.212 56.4018C219.419 56.4499 211.929 58.9704 206.215 63.4679C200.5 67.9655 196.974 74.1146 196.33 80.7066C195.687 87.2985 197.971 93.8565 202.735 99.0913L199.384 111.054Z" fill="white"/>
<path d="M199.385 111.054L202.615 99.0793L202.651 98.9595L202.764 99.0374L202.63 99.1451C201.097 97.4671 199.802 95.6425 198.771 93.7086C197.555 91.4006 196.733 88.957 196.33 86.4519C196.101 85.0639 196.018 83.6612 196.083 82.2607C196.125 81.5422 196.147 80.8118 196.224 80.0693C196.302 79.3269 196.485 78.5904 196.619 77.836C198.16 71.1764 202.633 65.2652 209.127 61.3049C212.717 59.0995 216.823 57.5743 221.168 56.8323C225.76 56.069 230.493 56.1753 235.03 57.1436C239.785 58.136 244.191 60.0779 247.883 62.8077L249.294 63.8914C249.76 64.2447 250.148 64.6698 250.585 65.053C251.022 65.4361 251.453 65.8193 251.813 66.2504L252.934 67.5198C253.309 67.9392 253.651 68.3792 253.957 68.837L254.916 70.1782L255.721 71.5852C256.006 72.0441 256.255 72.518 256.468 73.0042C258.209 76.772 258.932 80.823 258.585 84.8592C258.278 88.6795 256.985 92.3957 254.797 95.7443C250.853 101.763 244.334 106.265 236.589 108.318C233.299 109.139 229.881 109.527 226.452 109.467C223.476 109.397 220.527 108.961 217.698 108.174C215.347 107.515 213.096 106.625 210.989 105.522H211.081L199.385 111.072L210.996 105.378H211.038H211.081C213.183 106.464 215.427 107.338 217.768 107.983C220.579 108.752 223.506 109.173 226.459 109.234C229.858 109.281 233.246 108.888 236.505 108.066C244.161 106.021 250.601 101.561 254.5 95.6066C256.659 92.2896 257.933 88.6104 258.232 84.8293C258.569 80.8383 257.846 76.834 256.116 73.112C255.915 72.633 255.68 72.165 255.41 71.7109L254.62 70.3219L253.668 68.9927C253.369 68.5396 253.032 68.1053 252.659 67.6934L251.502 66.46C251.142 66.0289 250.684 65.6697 250.282 65.2625C249.88 64.8554 249.47 64.4662 249.005 64.1129L247.594 63.0472C243.948 60.3454 239.595 58.422 234.896 57.437C230.41 56.4786 225.73 56.3703 221.19 57.1197C216.895 57.8543 212.836 59.3587 209.282 61.5324C202.848 65.4462 198.407 71.2892 196.859 77.8779C196.725 78.6204 196.591 79.3628 196.457 80.0873C196.323 80.8118 196.365 81.5482 196.309 82.2607C196.246 83.6489 196.324 85.0391 196.542 86.416C197.26 91.0145 199.397 95.3705 202.735 99.0434L203.159 99.5164L202.608 99.1571L202.749 99.1152L199.385 111.054Z" fill="#263238"/>
<path d="M221.93 81.65H213.931L212.35 84.7934H209.289L216.491 71.208H219.419L226.643 84.7934H223.532L221.93 81.65ZM220.95 79.6682L217.93 73.7287L214.939 79.6682H220.95Z" fill="#263238"/>
<path d="M245.315 84.4761H230.699C230.418 84.4761 230.149 84.3814 229.951 84.213C229.752 84.0446 229.641 83.8161 229.641 83.5779C229.641 83.3398 229.752 83.1113 229.951 82.9429C230.149 82.7745 230.418 82.6798 230.699 82.6798H245.315C245.596 82.6798 245.865 82.7745 246.064 82.9429C246.262 83.1113 246.374 83.3398 246.374 83.5779C246.374 83.8161 246.262 84.0446 246.064 84.213C245.865 84.3814 245.596 84.4761 245.315 84.4761Z" fill="#263238"/>
<path d="M238.007 84.476C237.726 84.476 237.457 84.3814 237.259 84.213C237.06 84.0445 236.949 83.8161 236.949 83.5779V80.231C236.949 79.9928 237.06 79.7643 237.259 79.5959C237.457 79.4275 237.726 79.3329 238.007 79.3329C238.288 79.3329 238.557 79.4275 238.755 79.5959C238.954 79.7643 239.065 79.9928 239.065 80.231V83.5779C239.065 83.8161 238.954 84.0445 238.755 84.213C238.557 84.3814 238.288 84.476 238.007 84.476Z" fill="#263238"/>
<path d="M231.066 95.1516C230.822 95.1505 230.587 95.0782 230.399 94.9469C230.211 94.8156 230.082 94.6333 230.034 94.4308C229.986 94.2282 230.021 94.0178 230.135 93.835C230.248 93.6522 230.433 93.5081 230.656 93.4272C230.755 93.3913 240.448 89.8767 241.287 83.4761C241.303 83.3582 241.346 83.2441 241.414 83.1402C241.482 83.0364 241.573 82.9448 241.682 82.8709C241.792 82.797 241.917 82.742 242.051 82.7092C242.186 82.6765 242.327 82.6665 242.466 82.6798C242.604 82.6932 242.739 82.7297 242.861 82.7871C242.984 82.8446 243.091 82.922 243.179 83.0148C243.266 83.1077 243.33 83.2142 243.369 83.3283C243.408 83.4424 243.419 83.5618 243.404 83.6797C242.423 91.128 231.933 94.924 231.489 95.0857C231.355 95.1327 231.211 95.1551 231.066 95.1516Z" fill="#263238"/>
<path d="M242.649 95.1516C242.549 95.1514 242.449 95.1393 242.353 95.1156C236.935 93.7745 232.646 87.7811 232.477 87.5296C232.332 87.3256 232.288 87.081 232.355 86.8497C232.423 86.6184 232.596 86.4193 232.836 86.2962C233.077 86.1732 233.365 86.1362 233.637 86.1934C233.91 86.2507 234.144 86.3975 234.289 86.6016C234.332 86.6614 238.332 92.2477 242.952 93.3913C243.218 93.4618 243.441 93.6179 243.572 93.826C243.704 94.0342 243.735 94.2779 243.658 94.5049C243.595 94.691 243.463 94.8547 243.281 94.9713C243.099 95.088 242.877 95.1512 242.649 95.1516Z" fill="#263238"/>
</svg>
