<svg width="358" height="288" viewBox="0 0 358 288" fill="none" xmlns="http://www.w3.org/2000/svg">
<path d="M358 253.09H0V253.283H358V253.09Z" fill="#EBEBEB"/>
<path d="M322.128 265.528H298.414V265.721H322.128V265.528Z" fill="#EBEBEB"/>
<path d="M237.153 267.631H230.931V267.824H237.153V267.631Z" fill="#EBEBEB"/>
<path d="M297.699 258.354H283.958V258.548H297.699V258.354Z" fill="#EBEBEB"/>
<path d="M68.4854 259.653H37.5613V259.846H68.4854V259.653Z" fill="#EBEBEB"/>
<path d="M79.3972 259.653H74.8649V259.846H79.3972V259.653Z" fill="#EBEBEB"/>
<path d="M161.207 262.915H94.1325V263.108H161.207V262.915Z" fill="#EBEBEB"/>
<path d="M169.692 218.613H31.4395C30.3565 218.611 29.3184 218.145 28.5533 217.317C27.7881 216.49 27.3583 215.368 27.3583 214.199V4.37535C27.3678 3.21273 27.8017 2.10108 28.5658 1.28185C29.33 0.462626 30.3627 0.00199162 31.4395 0H169.692C170.776 0 171.816 0.465045 172.583 1.29283C173.35 2.12062 173.78 3.24333 173.78 4.414V214.199C173.78 215.37 173.35 216.492 172.583 217.32C171.816 218.148 170.776 218.613 169.692 218.613ZM31.4395 0.154607C30.404 0.156654 29.4114 0.602241 28.6798 1.39356C27.9482 2.18488 27.5373 3.25728 27.5373 4.37535V214.199C27.5373 215.317 27.9482 216.389 28.6798 217.181C29.4114 217.972 30.404 218.418 31.4395 218.42H169.692C170.728 218.418 171.721 217.972 172.454 217.181C173.187 216.39 173.599 215.318 173.601 214.199V4.37535C173.599 3.25657 173.187 2.18419 172.454 1.39309C171.721 0.60199 170.728 0.15665 169.692 0.154607H31.4395Z" fill="#EBEBEB"/>
<path d="M324.57 218.613H186.31C185.227 218.611 184.188 218.145 183.422 217.318C182.655 216.49 182.224 215.369 182.222 214.199V4.37535C182.233 3.21203 182.669 2.10038 183.434 1.28137C184.199 0.462356 185.233 0.0019699 186.31 0H324.57C325.646 0.00402323 326.676 0.465557 327.439 1.28457C328.202 2.10357 328.635 3.21407 328.644 4.37535V214.199C328.644 215.367 328.215 216.487 327.452 217.315C326.688 218.142 325.652 218.609 324.57 218.613ZM186.31 0.154607C185.274 0.15665 184.281 0.60199 183.548 1.39309C182.815 2.18419 182.403 3.25657 182.401 4.37535V214.199C182.403 215.318 182.815 216.39 183.548 217.181C184.281 217.972 185.274 218.418 186.31 218.42H324.57C325.606 218.418 326.6 217.972 327.332 217.181C328.065 216.39 328.477 215.318 328.479 214.199V4.37535C328.477 3.25657 328.065 2.18419 327.332 1.39309C326.6 0.60199 325.606 0.15665 324.57 0.154607H186.31Z" fill="#EBEBEB"/>
<path d="M143.479 45.7093H50.0842V50.8886H143.479V45.7093Z" fill="#E0E0E0"/>
<path d="M58.4972 26.6154H54.3802V45.7093H58.4972V26.6154Z" fill="#EBEBEB"/>
<path d="M78.3949 26.6154H74.2779V45.7093H78.3949V26.6154Z" fill="#EBEBEB"/>
<path d="M100.976 26.1324L96.9187 26.8875L99.9228 45.7038L103.98 44.9488L100.976 26.1324Z" fill="#EBEBEB"/>
<path d="M63.5951 29.1278H59.4781V45.7093H63.5951V29.1278Z" fill="#EBEBEB"/>
<path d="M73.0535 29.1278H68.9365V45.7093H73.0535V29.1278Z" fill="#EBEBEB"/>
<path d="M96.9249 29.1278H92.8079V45.7093H96.9249V29.1278Z" fill="#EBEBEB"/>
<path d="M83.8037 28.5563L79.7848 29.5206L83.1168 45.7072L87.1357 44.7429L83.8037 28.5563Z" fill="#EBEBEB"/>
<path d="M67.1536 25.6646H65.0987V45.7092H67.1536V25.6646Z" fill="#EBEBEB"/>
<path d="M91.6265 25.6646H89.5716V45.7092H91.6265V25.6646Z" fill="#EBEBEB"/>
<path d="M134.515 30.5965H114.467V45.5392H134.515V30.5965Z" fill="#EBEBEB"/>
<path d="M50.0841 89.571L143.479 89.571V84.3917L50.0841 84.3917V89.571Z" fill="#E0E0E0"/>
<path d="M135.059 84.3839H139.176V65.2901H135.059V84.3839Z" fill="#EBEBEB"/>
<path d="M115.169 84.3839H119.286V65.2901H115.169V84.3839Z" fill="#EBEBEB"/>
<path d="M89.5777 83.6292L93.6349 84.3843L96.639 65.5679L92.5818 64.8129L89.5777 83.6292Z" fill="#EBEBEB"/>
<path d="M129.961 84.3839H134.078V67.8025H129.961V84.3839Z" fill="#EBEBEB"/>
<path d="M120.503 84.3839H124.62V67.8025H120.503V84.3839Z" fill="#EBEBEB"/>
<path d="M96.6314 84.3839H100.748V67.8025H96.6314V84.3839Z" fill="#EBEBEB"/>
<path d="M106.436 83.4122L110.455 84.3765L113.787 68.1899L109.768 67.2256L106.436 83.4122Z" fill="#EBEBEB"/>
<path d="M126.41 84.3917H128.465V64.347H126.41V84.3917Z" fill="#EBEBEB"/>
<path d="M101.937 84.3917H103.992V64.347H101.937V84.3917Z" fill="#EBEBEB"/>
<path d="M59.0486 84.2139H79.0966V69.2712H59.0486V84.2139Z" fill="#EBEBEB"/>
<path d="M305.56 27.7054H211.821V139.694H305.56V27.7054Z" fill="#E9E9E9"/>
<path d="M301.679 32.1426H215.946V135.489H301.679V32.1426Z" fill="#F4F4F4"/>
<path d="M240.175 32.1426L215.946 130.116V77.0788L227.036 32.1426H240.175Z" fill="white"/>
<path d="M251.008 32.1426L225.454 135.489H220.635L246.182 32.1426H251.008Z" fill="white"/>
<path d="M301.679 60.3272V113.373L296.252 135.489H283.106L301.679 60.3272Z" fill="white"/>
<path d="M260.352 27.7054H257.023V139.694H260.352V27.7054Z" fill="#E9E9E9"/>
<path d="M303.756 50.4325H213.447V54.0271H303.756V50.4325Z" fill="#E9E9E9"/>
<path d="M317.639 198.846C316.35 196.527 314.224 198.553 314.224 198.553C314.532 194.162 310.787 191.155 310.787 191.155C310.787 191.155 315.133 191.155 315.742 186.679C316.35 182.203 314.224 184.283 312.233 184.252C310.243 184.221 308.159 190.505 310.801 194.038C313.443 197.571 312.72 203.593 306.663 209.398C305.209 210.86 304.12 212.695 303.498 214.732C303.949 209.406 304.214 201.9 302.782 196.883C300.312 188.38 305.016 186.061 306.362 181.824C307.708 177.588 302.782 173.97 302.782 173.97C302.782 173.97 307.436 171.651 305.166 169.062C302.897 166.472 298.193 166.797 298.193 170.221C298.193 173.646 301.379 174.952 301.379 174.952C301.379 174.952 305.016 179.041 305.016 181.175C305.016 183.309 301.379 187.885 301.379 187.885C301.379 187.885 303.04 183.958 299.71 183.796C296.381 183.633 295.314 188.372 296.675 190.505C298.035 192.639 300.312 190.83 300.312 190.83C300.454 193.315 300.804 195.78 301.357 198.197C301.701 199.419 301.536 204.219 301.25 209.213C300.619 207.41 299.609 205.791 298.3 204.482C292.235 198.684 291.527 192.654 294.154 189.122C296.782 185.589 294.698 179.312 292.722 179.343C290.746 179.374 288.612 177.287 289.214 181.77C289.815 186.254 294.169 186.246 294.169 186.246C294.169 186.246 290.431 189.253 290.732 193.644C290.732 193.644 288.584 191.65 287.324 193.938C285.018 198.027 290.352 200.57 291.247 198.576C291.247 198.576 302.553 207.218 299.839 219.656L300.477 220.669C300.391 221.674 300.341 222.277 300.341 222.277L301.228 221.867L302.231 223.467C302.195 225.276 302.281 227.084 302.489 228.879L305.195 224.573C302.467 212.127 313.787 203.485 313.787 203.485C314.603 205.479 319.937 202.944 317.639 198.846Z" fill="#E0E0E0"/>
<path opacity="0.2" d="M317.639 198.846C316.35 196.527 314.224 198.553 314.224 198.553C314.532 194.162 310.787 191.155 310.787 191.155C310.787 191.155 315.133 191.155 315.742 186.679C316.35 182.203 314.224 184.283 312.233 184.252C310.243 184.221 308.159 190.505 310.801 194.038C313.443 197.571 312.72 203.593 306.663 209.398C305.209 210.86 304.12 212.695 303.498 214.732C303.949 209.406 304.214 201.9 302.782 196.883C300.312 188.38 305.016 186.061 306.362 181.824C307.708 177.588 302.782 173.97 302.782 173.97C302.782 173.97 307.436 171.651 305.166 169.062C302.897 166.472 298.193 166.797 298.193 170.221C298.193 173.646 301.379 174.952 301.379 174.952C301.379 174.952 305.016 179.041 305.016 181.175C305.016 183.309 301.379 187.885 301.379 187.885C301.379 187.885 303.04 183.958 299.71 183.796C296.381 183.633 295.314 188.372 296.675 190.505C298.035 192.639 300.312 190.83 300.312 190.83C300.454 193.315 300.804 195.78 301.357 198.197C301.701 199.419 301.536 204.219 301.25 209.213C300.619 207.41 299.609 205.791 298.3 204.482C292.235 198.684 291.527 192.654 294.154 189.122C296.782 185.589 294.698 179.312 292.722 179.343C290.746 179.374 288.612 177.287 289.214 181.77C289.815 186.254 294.169 186.246 294.169 186.246C294.169 186.246 290.431 189.253 290.732 193.644C290.732 193.644 288.584 191.65 287.324 193.938C285.018 198.027 290.352 200.57 291.247 198.576C291.247 198.576 302.553 207.218 299.839 219.656L300.477 220.669C300.391 221.674 300.341 222.277 300.341 222.277L301.228 221.867L302.231 223.467C302.195 225.276 302.281 227.084 302.489 228.879L305.195 224.573C302.467 212.127 313.787 203.485 313.787 203.485C314.603 205.479 319.937 202.944 317.639 198.846Z" fill="#E0E0E0"/>
<path d="M315.427 251.915H289.522L286.729 221.295H318.219L315.427 251.915Z" fill="#E6E6E6"/>
<path d="M319.601 217.917H285.347V224.673H319.601V217.917Z" fill="#F0F0F0"/>
<path d="M179 288C255.671 288 317.825 284.082 317.825 279.249C317.825 274.416 255.671 270.499 179 270.499C102.329 270.499 40.1748 274.416 40.1748 279.249C40.1748 284.082 102.329 288 179 288Z" fill="#F5F5F5"/>
<path d="M47.5854 278.198H173.616L173.616 107.513L47.5854 107.513L47.5854 278.198Z" fill="#FFD033"/>
<path opacity="0.5" d="M173.68 107.505H47.5782V277.75H173.68V107.505Z" fill="white"/>
<path opacity="0.2" d="M169.885 112.862H69.9389V144.301H169.885V112.862Z" fill="black"/>
<path opacity="0.5" d="M75.6168 117.957H69.9389V144.309H75.6168V117.957Z" fill="white"/>
<path opacity="0.5" d="M103.068 117.957H97.3904V144.309H103.068V117.957Z" fill="white"/>
<path opacity="0.5" d="M134.237 117.293L128.642 118.335L132.788 144.304L138.383 143.263L134.237 117.293Z" fill="white"/>
<path opacity="0.5" d="M82.6479 121.428H76.97V144.309H82.6479V121.428Z" fill="white"/>
<path opacity="0.5" d="M95.7006 121.428H90.0227V144.309H95.7006V121.428Z" fill="white"/>
<path opacity="0.5" d="M128.644 121.428H122.966V144.309H128.644V121.428Z" fill="white"/>
<path opacity="0.5" d="M110.533 120.635L104.99 121.965L109.588 144.301L115.13 142.971L110.533 120.635Z" fill="white"/>
<path opacity="0.5" d="M87.5597 116.65H84.7243V144.309H87.5597V116.65Z" fill="white"/>
<path opacity="0.5" d="M121.326 116.65H118.491V144.309H121.326V116.65Z" fill="white"/>
<path opacity="0.2" d="M69.9389 180.727H169.885V149.288H69.9389V180.727Z" fill="black"/>
<path opacity="0.5" d="M164.207 180.727H169.885V154.374H164.207V180.727Z" fill="white"/>
<path opacity="0.5" d="M136.749 180.727H142.427V154.374H136.749V180.727Z" fill="white"/>
<path opacity="0.5" d="M101.442 179.683L107.037 180.724L111.184 154.754L105.588 153.713L101.442 179.683Z" fill="white"/>
<path opacity="0.5" d="M157.176 180.727H162.854V157.845H157.176V180.727Z" fill="white"/>
<path opacity="0.5" d="M144.117 180.727H149.794V157.845H144.117V180.727Z" fill="white"/>
<path opacity="0.5" d="M111.181 180.727H116.858V157.845H111.181V180.727Z" fill="white"/>
<path opacity="0.5" d="M124.709 179.389L130.251 180.719L134.849 158.382L129.307 157.053L124.709 179.389Z" fill="white"/>
<path opacity="0.5" d="M152.265 180.727H155.1V153.068H152.265V180.727Z" fill="white"/>
<path opacity="0.5" d="M118.498 180.727H121.333V153.068H118.498V180.727Z" fill="white"/>
<path opacity="0.5" d="M75.6168 154.374H69.9389V180.727H75.6168V154.374Z" fill="white"/>
<path opacity="0.5" d="M82.6479 157.845H76.97V180.727H82.6479V157.845Z" fill="white"/>
<path opacity="0.5" d="M95.7006 157.845H90.0227V180.727H95.7006V157.845Z" fill="white"/>
<path opacity="0.5" d="M87.5597 153.068H84.7243V180.727H87.5597V153.068Z" fill="white"/>
<path opacity="0.2" d="M169.885 185.705H69.9389V217.144H169.885V185.705Z" fill="black"/>
<g opacity="0.5">
<path d="M132.983 190.799H127.305V217.152H132.983V190.799Z" fill="white"/>
<path d="M164.151 190.131L158.556 191.172L162.702 217.142L168.297 216.101L164.151 190.131Z" fill="white"/>
<path d="M112.562 194.27H106.884V217.152H112.562V194.27Z" fill="white"/>
<path d="M125.615 194.27H119.937V217.152H125.615V194.27Z" fill="white"/>
<path d="M158.551 194.27H152.873V217.152H158.551V194.27Z" fill="white"/>
<path d="M140.446 193.471L134.903 194.801L139.501 217.137L145.044 215.807L140.446 193.471Z" fill="white"/>
<path d="M117.467 189.485H114.632V217.144H117.467V189.485Z" fill="white"/>
<path d="M151.241 189.485H148.405V217.144H151.241V189.485Z" fill="white"/>
<path d="M98.8345 190.136L93.2391 191.178L97.3853 217.147L102.981 216.106L98.8345 190.136Z" fill="white"/>
<path d="M93.2303 194.27H87.5525V217.152H93.2303V194.27Z" fill="white"/>
<path d="M75.127 193.48L69.5844 194.81L74.1823 217.147L79.725 215.817L75.127 193.48Z" fill="white"/>
<path d="M85.92 189.485H83.0846V217.144H85.92V189.485Z" fill="white"/>
</g>
<path opacity="0.2" d="M47.5854 278.198H66.137L66.137 107.513H47.5854L47.5854 278.198Z" fill="black"/>
<path opacity="0.1" d="M169.141 222.725H121.835V271.094H169.141V222.725Z" fill="black"/>
<path opacity="0.1" d="M118.061 222.725H69.9389V271.094H118.061V222.725Z" fill="black"/>
<path opacity="0.2" d="M115.183 244.455C115.183 244.941 115.049 245.417 114.799 245.821C114.549 246.225 114.193 246.54 113.777 246.726C113.361 246.912 112.904 246.961 112.462 246.866C112.02 246.771 111.614 246.537 111.296 246.193C110.978 245.85 110.761 245.412 110.673 244.935C110.585 244.458 110.63 243.964 110.802 243.515C110.975 243.065 111.267 242.681 111.641 242.411C112.015 242.141 112.456 241.997 112.906 241.997C113.51 241.997 114.089 242.256 114.516 242.717C114.943 243.178 115.183 243.803 115.183 244.455Z" fill="black"/>
<path opacity="0.2" d="M128.787 244.455C128.787 244.941 128.653 245.417 128.403 245.821C128.153 246.225 127.797 246.54 127.381 246.726C126.965 246.912 126.508 246.961 126.066 246.866C125.624 246.771 125.218 246.537 124.9 246.193C124.582 245.85 124.365 245.412 124.277 244.935C124.189 244.458 124.234 243.964 124.406 243.515C124.579 243.065 124.871 242.681 125.245 242.411C125.62 242.141 126.06 241.997 126.51 241.997C127.114 241.997 127.693 242.256 128.12 242.717C128.547 243.178 128.787 243.803 128.787 244.455Z" fill="black"/>
<path d="M257.073 123.955H247.872L250.321 152.395L235.772 154.753V156.732H266.416V154.753L260.137 152.395L257.073 123.955Z" fill="#263238"/>
<path d="M221.351 142.006C221.304 142.441 221.342 142.883 221.465 143.301C221.587 143.719 221.79 144.104 222.061 144.431C222.332 144.758 222.664 145.019 223.036 145.196C223.407 145.374 223.809 145.464 224.215 145.461H279.956C280.827 145.442 281.662 145.08 282.304 144.444C282.946 143.808 283.351 142.941 283.443 142.006L286.751 103.509C286.789 103.133 286.765 102.754 286.679 102.388C286.519 101.717 286.154 101.123 285.644 100.703C285.134 100.282 284.507 100.059 283.865 100.069H228.146C227.275 100.088 226.44 100.449 225.798 101.086C225.157 101.722 224.752 102.589 224.659 103.524L221.351 142.006Z" fill="#263238"/>
<path d="M279.956 143.528C280.381 143.511 280.787 143.33 281.099 143.018C281.412 142.707 281.611 142.284 281.66 141.828L284.968 103.331C284.994 103.175 284.994 103.015 284.968 102.859C284.913 102.601 284.775 102.371 284.578 102.211C284.382 102.052 284.14 101.972 283.894 101.986H228.146C227.722 102.003 227.317 102.184 227.006 102.496C226.694 102.809 226.497 103.231 226.449 103.686L223.141 142.183C223.121 142.357 223.134 142.534 223.181 142.702C223.228 142.87 223.307 143.025 223.414 143.157C223.519 143.28 223.648 143.377 223.791 143.441C223.934 143.505 224.089 143.535 224.244 143.528H279.956Z" fill="#FFD033"/>
<path opacity="0.6" d="M279.956 143.528C280.381 143.511 280.787 143.33 281.099 143.018C281.412 142.707 281.611 142.284 281.66 141.828L284.968 103.331C284.994 103.175 284.994 103.015 284.968 102.859C284.913 102.601 284.775 102.371 284.578 102.211C284.382 102.052 284.14 101.972 283.894 101.986H228.146C227.722 102.003 227.317 102.184 227.006 102.496C226.694 102.809 226.497 103.231 226.449 103.686L223.141 142.183C223.121 142.357 223.134 142.534 223.181 142.702C223.228 142.87 223.307 143.025 223.414 143.157C223.519 143.28 223.648 143.377 223.791 143.441C223.934 143.505 224.089 143.535 224.244 143.528H279.956Z" fill="white"/>
<path d="M241.228 133.332C241.228 133.332 240.096 111.811 245.008 106.895C249.92 101.978 256.536 103.408 260.044 106.036C263.552 108.665 267.405 115.491 263.91 135.775L241.228 133.332Z" fill="#263238"/>
<path d="M263.782 143.528C263.778 143.495 263.778 143.461 263.782 143.428C264.206 141.959 264.684 140.374 265.214 138.674C265.607 137.383 266.03 136.015 266.502 134.569C263.692 133.6 260.821 132.853 257.91 132.335C254.849 131.749 251.753 131.398 248.645 131.284C244.629 131.245 240.018 131.732 240.018 131.732C240.018 131.732 239.359 131.902 238.951 136.502C238.808 138.156 238.664 140.452 238.586 143.528H263.782Z" fill="#FFD033"/>
<path d="M263.782 143.528C263.778 143.495 263.778 143.461 263.782 143.428C264.206 141.959 264.684 140.374 265.214 138.674C265.607 137.383 266.03 136.015 266.502 134.569C263.692 133.6 260.821 132.853 257.91 132.335C254.849 131.749 251.753 131.398 248.645 131.284C244.629 131.245 240.018 131.732 240.018 131.732C240.018 131.732 239.359 131.902 238.951 136.502C238.822 137.986 238.7 140.367 238.636 143.528H263.782Z" fill="#FFD033"/>
<g opacity="0.2">
<path d="M263.782 143.528C263.778 143.495 263.778 143.461 263.782 143.428C264.206 141.959 264.684 140.374 265.214 138.674C265.607 137.383 266.03 136.015 266.502 134.569C263.692 133.6 260.821 132.853 257.91 132.335C254.849 131.749 251.753 131.398 248.645 131.284C244.629 131.245 240.018 131.732 240.018 131.732C240.018 131.732 239.359 131.902 238.951 136.502C238.808 138.156 238.664 140.452 238.586 143.528H263.782Z" fill="black"/>
<path d="M263.782 143.528C263.778 143.495 263.778 143.461 263.782 143.428C264.207 141.959 264.684 140.374 265.214 138.674C265.607 137.383 266.03 136.015 266.502 134.569C263.693 133.6 260.821 132.853 257.91 132.335C254.849 131.749 251.753 131.398 248.645 131.284C244.629 131.245 240.018 131.732 240.018 131.732C240.018 131.732 239.359 131.902 238.951 136.502C238.822 137.986 238.7 140.367 238.636 143.528H263.782Z" fill="black"/>
</g>
<path d="M239.624 143.528L239.266 137.143L238.958 131.732C237.726 131.995 234.454 138.048 231.726 143.528H239.624Z" fill="white"/>
<path opacity="0.2" d="M239.624 143.528L239.266 137.143C237.771 139.073 236.544 141.226 235.621 143.536L239.624 143.528Z" fill="black"/>
<path d="M270.068 143.528C267.877 136.61 266.524 134.569 266.524 134.569L263.581 143.528H270.068Z" fill="white"/>
<path d="M250.385 136.2C255.469 135.497 257.001 133.154 257.001 133.154C253.772 129.869 256.457 124.172 256.457 124.172L250.335 125.401C250.475 126.321 250.554 127.251 250.571 128.184C250.614 132.196 248.939 132.242 248.939 132.242C247.865 134.414 250.385 136.2 250.385 136.2Z" fill="#EEC1BB"/>
<path opacity="0.2" d="M250.335 125.401C250.475 126.321 250.554 127.251 250.571 128.184C254.71 128.184 256.457 124.172 256.457 124.172L250.335 125.401Z" fill="black"/>
<path d="M253.715 106.918C248.395 106.609 246.555 109.585 245.839 115.483C244.979 122.85 246.232 128.199 252.999 127.009C262.106 125.401 262.557 107.451 253.715 106.918Z" fill="#EEC1BB"/>
<path d="M249.29 115.359C248.824 116.203 248.264 116.982 247.621 117.678C247.761 117.931 247.963 118.137 248.204 118.273C248.446 118.41 248.717 118.471 248.989 118.451L249.29 115.359Z" fill="#D4827D"/>
<path d="M252.827 111.123C253.25 111.092 253.674 111.166 254.067 111.34C254.459 111.515 254.809 111.784 255.089 112.128" stroke="#263238" stroke-width="0.72468" stroke-linecap="round" stroke-linejoin="round"/>
<path d="M248.975 110.651C248.616 110.53 248.237 110.498 247.865 110.557C247.493 110.615 247.138 110.764 246.827 110.992" stroke="#263238" stroke-width="0.72468" stroke-linecap="round" stroke-linejoin="round"/>
<path d="M249.655 120.693C249.873 121.356 250.045 122.036 250.17 122.726H250.514C252.075 122.649 252.777 122.061 253.077 121.427C253.22 121.116 253.289 120.77 253.278 120.423C253.283 120.224 253.262 120.026 253.213 119.835C252.273 120.351 251.239 120.636 250.185 120.67C249.884 120.693 249.655 120.693 249.655 120.693Z" fill="#263238"/>
<path d="M250.185 120.654L250.349 121.25C251.817 121.172 252.841 120.91 253.278 120.407C253.283 120.209 253.262 120.011 253.213 119.82C252.273 120.335 251.239 120.62 250.185 120.654Z" fill="white"/>
<path d="M250.514 122.711C252.075 122.633 252.777 122.046 253.077 121.412C252.486 121.452 251.906 121.606 251.366 121.868C251.008 122.047 250.71 122.341 250.514 122.711Z" fill="#DE5753"/>
<path d="M259.042 116.952C259.042 116.952 256.793 112.082 257.352 108.448C257.352 108.448 247.042 103.176 245.939 114.702C245.939 114.702 245.431 104.382 254.588 104.691C263.746 105.001 262.98 119.449 258.032 123.476C258.032 123.484 260.431 119.99 259.042 116.952Z" fill="#263238"/>
<path d="M258.111 118.111C258.198 117.451 258.523 116.854 259.015 116.45C259.506 116.047 260.126 115.868 260.739 115.954C262.378 116.248 262.98 119.951 258.834 120.593C258.24 120.678 257.939 120.036 258.111 118.111Z" fill="#EEC1BB"/>
<path d="M251.466 115.135C251.466 115.135 252.784 113.89 253.786 114.911C253.022 115.069 252.245 115.144 251.466 115.135Z" fill="#263238"/>
<path d="M248.953 115.065C248.953 115.065 247.758 113.689 246.662 114.594C247.41 114.831 248.177 114.989 248.953 115.065Z" fill="#263238"/>
<path d="M261.72 133.734C261.72 133.734 255.741 138.968 250.185 138.883C244.629 138.798 242.667 132.041 242.667 132.041C242.667 132.041 251.316 129.32 261.72 133.734Z" fill="#EEC1BB"/>
<path d="M264.655 143.528C265.192 140.436 265.808 137.344 266.517 134.569L261.211 132.776C259.604 136.17 258.443 139.789 257.76 143.528H264.655Z" fill="white"/>
<path d="M242.538 143.528C243.175 137.87 243.218 131.284 243.218 131.284L238.958 131.732C237.905 134.824 237.347 139.091 237.075 143.528H242.538Z" fill="white"/>
<path d="M251.466 105.604C249.99 105.739 248.589 106.366 247.457 107.398C246.325 108.429 245.517 109.814 245.144 111.363C246.706 110.368 248.529 109.963 250.328 110.211C250.653 109.482 251.034 108.784 251.466 108.124C251.148 108.794 250.937 109.518 250.843 110.265C251.811 110.382 252.769 110.581 253.707 110.86C253.973 110.302 254.303 109.783 254.688 109.314C254.493 109.884 254.385 110.485 254.366 111.092C255.079 111.32 255.78 111.591 256.464 111.904C256.727 110.47 257.274 109.114 258.068 107.93C258.068 107.93 256.722 105.078 251.466 105.604Z" fill="#263238"/>
<path d="M259.092 119.704C259.073 119.679 259.057 119.653 259.042 119.626C258.899 119.346 258.846 119.023 258.891 118.706C258.97 118.034 259.901 116.387 260.624 117.346C260.789 117.598 260.865 117.905 260.839 118.212C260.824 118.632 260.718 119.042 260.531 119.41C260.462 119.576 260.357 119.721 260.225 119.834C260.093 119.947 259.937 120.025 259.772 120.059C259.64 120.068 259.508 120.04 259.389 119.977C259.27 119.915 259.168 119.821 259.092 119.704Z" fill="#FFD033"/>
<path opacity="0.2" d="M259.092 119.704C259.073 119.679 259.057 119.653 259.042 119.626C258.899 119.346 258.846 119.023 258.891 118.706C258.97 118.034 259.901 116.387 260.624 117.346C260.789 117.598 260.865 117.905 260.839 118.212C260.824 118.632 260.718 119.042 260.531 119.41C260.462 119.576 260.357 119.721 260.225 119.834C260.093 119.947 259.937 120.025 259.772 120.059C259.64 120.068 259.508 120.04 259.389 119.977C259.27 119.915 259.168 119.821 259.092 119.704Z" fill="black"/>
<path d="M259.192 118.645C259.192 118.645 259.829 117.191 260.259 117.462C260.688 117.732 260.517 119.008 260.101 119.255C259.843 119.419 259.648 119.677 259.55 119.982C259.55 119.982 257.782 122.301 257.316 122.061V121.412C258.171 120.699 258.821 119.74 259.192 118.645Z" fill="#FFD033"/>
<path d="M247.908 280.733H252.297L260.18 162.274H254.359L247.908 280.733Z" fill="#263238"/>
<path opacity="0.4" d="M247.908 280.734H252.297L259.793 168.157L260.18 162.46H254.359L254.044 168.157L247.908 280.734Z" fill="white"/>
<path opacity="0.2" d="M254.044 167.871H259.793L260.18 162.46H254.359L254.044 167.871Z" fill="black"/>
<path d="M215.717 280.733H220.106L220.822 162.274H215.001L215.717 280.733Z" fill="#263238"/>
<path opacity="0.5" d="M215.001 162.46L215.115 181.577L215.717 280.734H220.106L220.707 181.577L220.822 162.46H215.001Z" fill="white"/>
<path opacity="0.2" d="M215.001 162.46L215.115 181.786H220.707L220.822 162.46H215.001Z" fill="black"/>
<path d="M169.148 280.733H173.537L181.42 162.274H175.599L169.148 280.733Z" fill="#263238"/>
<path opacity="0.5" d="M169.148 280.734H173.537L181.033 168.157L181.42 162.46H175.599L175.284 168.157L169.148 280.734Z" fill="white"/>
<path opacity="0.2" d="M175.284 167.871H181.034L181.42 162.46H175.599L175.284 167.871Z" fill="black"/>
<path d="M298.085 280.733H302.474L296.03 162.274H290.209L298.085 280.733Z" fill="#263238"/>
<path opacity="0.5" d="M290.209 162.46L290.596 168.157L298.092 280.734H302.474L296.345 168.157L296.03 162.46H290.209Z" fill="white"/>
<path opacity="0.2" d="M296.03 162.46H290.209L290.596 167.871H296.345L296.03 162.46Z" fill="black"/>
<path d="M299.066 165.235L172.527 165.235C172.324 165.235 172.123 165.192 171.936 165.108C171.748 165.024 171.577 164.901 171.434 164.746C171.29 164.591 171.176 164.407 171.099 164.204C171.021 164.002 170.981 163.785 170.981 163.565V159.306L300.634 159.306V163.565C300.634 163.787 300.593 164.006 300.514 164.21C300.435 164.414 300.319 164.599 300.174 164.754C300.028 164.91 299.855 165.032 299.665 165.115C299.474 165.197 299.271 165.238 299.066 165.235Z" fill="#FFD033"/>
<path opacity="0.6" d="M299.066 165.235L172.527 165.235C172.324 165.235 172.123 165.192 171.936 165.108C171.748 165.024 171.577 164.901 171.434 164.746C171.29 164.591 171.176 164.407 171.099 164.204C171.021 164.002 170.981 163.785 170.981 163.565V159.306L300.634 159.306V163.565C300.634 163.787 300.593 164.006 300.514 164.21C300.435 164.414 300.319 164.599 300.174 164.754C300.028 164.91 299.855 165.032 299.665 165.115C299.474 165.197 299.271 165.238 299.066 165.235Z" fill="white"/>
<path opacity="0.2" d="M170.981 162.267L300.634 162.267V159.298L170.981 159.298V162.267Z" fill="black"/>
<path d="M168.26 160.079H303.362C303.565 160.079 303.766 160.036 303.954 159.952C304.142 159.868 304.312 159.745 304.456 159.59C304.599 159.435 304.713 159.251 304.791 159.048C304.869 158.846 304.909 158.629 304.909 158.409C304.909 157.966 304.746 157.54 304.456 157.226C304.166 156.911 303.773 156.734 303.362 156.732H168.26C167.849 156.734 167.456 156.911 167.166 157.226C166.876 157.54 166.713 157.966 166.713 158.409C166.713 158.629 166.753 158.846 166.831 159.048C166.909 159.251 167.023 159.435 167.166 159.59C167.31 159.745 167.481 159.868 167.668 159.952C167.856 160.036 168.057 160.079 168.26 160.079Z" fill="#FFD033"/>
<path opacity="0.6" d="M168.26 160.079H303.362C303.565 160.079 303.766 160.036 303.954 159.952C304.142 159.868 304.312 159.745 304.456 159.59C304.599 159.435 304.713 159.251 304.791 159.048C304.869 158.846 304.909 158.629 304.909 158.409C304.909 157.966 304.746 157.54 304.456 157.226C304.166 156.911 303.773 156.734 303.362 156.732H168.26C167.849 156.734 167.456 156.911 167.166 157.226C166.876 157.54 166.713 157.966 166.713 158.409C166.713 158.629 166.753 158.846 166.831 159.048C166.909 159.251 167.023 159.435 167.166 159.59C167.31 159.745 167.481 159.868 167.668 159.952C167.856 160.036 168.057 160.079 168.26 160.079Z" fill="white"/>
<path d="M247.958 156.732L247.249 153.856H218.215L204.848 155.294L204.339 156.732H247.958Z" fill="#263238"/>
<path opacity="0.4" d="M218.215 153.856V156.732H247.958L247.249 153.856H218.215Z" fill="black"/>
<path d="M301.565 152.527C301.624 153.969 301.379 155.406 300.849 156.732H270.061V155.959H270.684V149.117H270.061V148.344H300.849C301.368 149.665 301.612 151.093 301.565 152.527Z" fill="#263238"/>
<path opacity="0.2" d="M301.565 152.527C301.624 153.969 301.379 155.406 300.849 156.732H270.061V155.959H270.684V149.117H270.061V148.344H300.849C301.368 149.665 301.612 151.093 301.565 152.527Z" fill="white"/>
<path opacity="0.2" d="M285.097 152.527C285.156 153.969 284.911 155.406 284.381 156.732H270.061V155.959H270.684V149.117H270.061V148.344H284.381C284.9 149.665 285.144 151.093 285.097 152.527Z" fill="black"/>
<path opacity="0.8" d="M283.579 152.526C283.627 153.698 283.428 154.866 282.999 155.943H270.691V149.102H282.999C283.423 150.184 283.621 151.353 283.579 152.526Z" fill="white"/>
<path opacity="0.6" d="M296.553 152.527C296.612 153.969 296.367 155.406 295.837 156.732H290.109C290.639 155.406 290.884 153.969 290.825 152.527C290.876 151.082 290.632 149.644 290.109 148.314H295.837C296.36 149.644 296.604 151.082 296.553 152.527Z" fill="white"/>
<path d="M304.3 144.108C304.359 145.55 304.114 146.988 303.584 148.314H272.796V147.54H273.419V140.691H272.796V139.918H303.584C304.104 141.242 304.348 142.672 304.3 144.108Z" fill="#FFD033"/>
<path opacity="0.2" d="M287.832 144.108C287.891 145.55 287.646 146.988 287.116 148.314H272.796V147.54H273.419V140.691H272.796V139.918H287.116C287.636 141.242 287.88 142.672 287.832 144.108Z" fill="black"/>
<path opacity="0.8" d="M286.321 144.108C286.369 145.28 286.171 146.448 285.741 147.525H273.433V140.691H285.741C286.164 141.771 286.362 142.937 286.321 144.108Z" fill="white"/>
<path opacity="0.2" d="M299.288 144.108C299.347 145.55 299.102 146.988 298.572 148.313H292.844C293.374 146.988 293.619 145.55 293.56 144.108C293.611 142.664 293.367 141.226 292.844 139.895H298.572C299.095 141.226 299.339 142.664 299.288 144.108Z" fill="black"/>
<path d="M249.662 143.459L240.827 152.287L242.051 153.361L250.6 144.557C250.727 144.413 250.798 144.222 250.798 144.023C250.798 143.825 250.727 143.634 250.6 143.49C250.473 143.364 250.309 143.291 250.136 143.285C249.964 143.28 249.796 143.341 249.662 143.459Z" fill="#FFD033"/>
<path d="M237.225 150.64L242.416 148.089C242.416 148.089 246.762 147.216 248.552 147.649C250.342 148.082 254.316 153.903 254.223 154.606C254.13 155.309 247.342 157.057 247.192 157.057C247.041 157.057 244.106 155.255 244.106 155.255L239.301 157.057L237.225 150.64Z" fill="#E4897B"/>
<path d="M192.267 272.833L197.967 271.991L198.762 257.349L193.062 258.2L192.267 272.833Z" fill="#EBB376"/>
<path opacity="0.2" d="M193.062 258.2L198.762 257.357L198.303 265.729L192.618 266.262L193.062 258.2Z" fill="black"/>
<path d="M192.497 186.779L191.065 177.372L159.088 175.308C159.088 175.308 155.687 194.889 158.3 200.106C162.969 209.422 188.1 204.745 195.454 205.641C191.057 225.052 191.487 262.985 191.487 262.985L201.991 263.851C201.991 263.851 210.074 222.973 211.707 203.554C212.845 190.444 202.793 190.776 192.497 186.779Z" fill="#FFD033"/>
<path d="M190.291 263.518L202.914 264.415L203.996 258.578L190.127 257.883L190.291 263.518Z" fill="#FFD033"/>
<path opacity="0.2" d="M190.291 263.518L202.914 264.415L203.996 258.578L190.127 257.883L190.291 263.518Z" fill="white"/>
<path d="M198.396 271.248L191.952 270.816C191.9 270.809 191.846 270.814 191.795 270.83C191.744 270.846 191.697 270.873 191.656 270.909C191.614 270.945 191.58 270.989 191.555 271.039C191.53 271.09 191.514 271.145 191.508 271.202L190.878 276.691C190.862 276.979 190.952 277.262 191.127 277.481C191.302 277.699 191.55 277.834 191.816 277.858C194.072 277.966 195.146 277.897 197.988 278.067C200.502 278.348 203.031 278.436 205.556 278.329C207.962 278.074 207.669 275.523 206.63 275.4C204.167 275.098 200.902 273.142 199.37 271.666C199.098 271.412 198.755 271.265 198.396 271.248Z" fill="#263238"/>
<path d="M205.42 272.779L211.163 273.235L214.764 259.096L209.029 258.648L205.42 272.779Z" fill="#EBB376"/>
<path d="M211.936 273.513C211.936 273.513 211.936 273.513 211.936 273.56H211.986C212.44 273.832 212.92 274.049 213.418 274.209C213.778 274.356 214.175 274.356 214.535 274.209C214.653 274.136 214.75 274.028 214.813 273.898C214.876 273.768 214.904 273.621 214.893 273.475C214.9 273.383 214.886 273.29 214.853 273.205C214.819 273.12 214.766 273.046 214.7 272.988C214.185 272.765 213.614 272.748 213.089 272.941C213.499 272.64 213.8 272.195 213.941 271.681C213.949 271.559 213.919 271.438 213.855 271.337C213.792 271.236 213.698 271.161 213.59 271.125C213.501 271.077 213.403 271.052 213.304 271.052C213.204 271.052 213.106 271.077 213.017 271.125C212.301 271.534 212.043 273.274 212.022 273.367C211.991 273.37 211.96 273.37 211.929 273.367C211.913 273.388 211.904 273.414 211.906 273.442C211.907 273.469 211.918 273.494 211.936 273.513ZM212.358 273.166L212.23 273.212C212.366 272.64 212.659 271.705 213.074 271.465C213.12 271.435 213.171 271.415 213.224 271.407C213.277 271.399 213.331 271.403 213.382 271.419H213.447C213.626 271.496 213.647 271.612 213.633 271.697C213.619 272.107 212.953 272.833 212.387 273.166H212.358ZM212.358 273.49C213.117 273.235 214.17 273.019 214.506 273.274C214.541 273.3 214.568 273.337 214.584 273.379C214.601 273.422 214.606 273.468 214.6 273.513C214.607 273.606 214.591 273.698 214.553 273.781C214.515 273.864 214.457 273.935 214.385 273.985C214.084 274.178 213.368 273.993 212.409 273.49H212.358Z" fill="#FFD033"/>
<path opacity="0.2" d="M209.029 258.648L214.757 259.104L212.702 267.182L207.031 266.432L209.029 258.648Z" fill="black"/>
<path d="M216.705 266.185L206.595 262.977C206.595 262.977 212.63 226.196 218.767 213.441C218.308 213.279 217.7 213.07 216.948 212.831C215.595 212.39 213.798 211.841 211.685 211.207C196.993 206.809 167.215 198.56 167.215 198.56L180.819 184.855C180.819 184.855 235.005 193.775 236.13 209.19C236.652 216.603 216.705 266.185 216.705 266.185Z" fill="#FFD033"/>
<path d="M205.291 263.224L217.463 266.935L219.647 261.47L206.215 257.674L205.291 263.224Z" fill="#FFD033"/>
<path opacity="0.2" d="M205.291 263.224L217.463 266.935L219.647 261.47L206.215 257.674L205.291 263.224Z" fill="white"/>
<path d="M211.728 272.609L205.492 270.731C205.388 270.696 205.277 270.707 205.18 270.76C205.084 270.814 205.011 270.906 204.976 271.017L203.344 276.25C203.308 276.389 203.299 276.534 203.315 276.678C203.332 276.821 203.375 276.959 203.442 277.084C203.508 277.209 203.597 277.319 203.703 277.406C203.809 277.494 203.931 277.558 204.06 277.595C206.208 278.213 207.311 278.368 210.053 279.187C212.458 280.028 214.915 280.684 217.406 281.151C219.805 281.445 220.012 278.878 219.017 278.523C216.669 277.672 213.862 275.036 212.645 273.235C212.414 272.92 212.091 272.699 211.728 272.609Z" fill="#263238"/>
<path d="M198.54 272.006H198.654C198.654 272.006 198.783 272.052 198.805 272.068H198.855C199.341 272.231 199.843 272.337 200.351 272.385C200.73 272.461 201.122 272.378 201.447 272.153C201.544 272.057 201.614 271.934 201.651 271.798C201.688 271.661 201.689 271.517 201.654 271.38C201.643 271.288 201.611 271.2 201.561 271.125C201.511 271.049 201.445 270.988 201.368 270.947C200.808 270.867 200.24 271.004 199.764 271.333C200.106 270.952 200.308 270.449 200.33 269.919C200.308 269.793 200.248 269.679 200.16 269.594C200.072 269.509 199.961 269.457 199.843 269.447C199.732 269.427 199.618 269.431 199.509 269.458C199.399 269.486 199.296 269.538 199.206 269.61C198.604 270.166 198.49 271.929 198.49 272.029L198.54 272.006ZM199.155 271.65L199.034 271.72C199.004 271.046 199.175 270.38 199.521 269.818C199.56 269.779 199.606 269.748 199.656 269.728C199.707 269.708 199.76 269.7 199.814 269.702H199.879C200.072 269.702 200.115 269.842 200.122 269.927C199.995 270.605 199.653 271.214 199.155 271.65ZM199.234 271.952C199.95 271.542 200.917 271.086 201.282 271.272C201.32 271.29 201.353 271.319 201.377 271.356C201.401 271.392 201.415 271.436 201.418 271.48C201.44 271.57 201.441 271.663 201.419 271.753C201.398 271.842 201.356 271.924 201.296 271.991C201.01 272.261 200.251 272.238 199.234 271.952Z" fill="#FFD033"/>
<path d="M215.867 114.501C215.731 114.826 215.58 115.151 215.423 115.452C214.505 117.222 213.112 118.65 211.428 119.549C211.003 119.778 210.562 119.972 210.11 120.129C208.371 120.765 206.487 120.767 204.747 120.134C203.007 119.502 201.508 118.269 200.48 116.627C197.738 112.422 198.482 108.286 199.213 101.166C199.358 99.5034 199.894 97.9081 200.772 96.5324C201.649 95.1567 202.838 94.0463 204.226 93.3071C205.613 92.5678 207.153 92.2243 208.698 92.3091C210.243 92.3939 211.742 92.9043 213.053 93.7917C219.032 97.7883 218.273 108.425 215.867 114.501Z" fill="#E4897B"/>
<path opacity="0.2" d="M211.428 119.549C211.003 119.778 210.562 119.972 210.11 120.129C208.919 120.554 207.656 120.688 206.411 120.521C205.167 120.354 203.972 119.89 202.914 119.163C203.339 118.37 203.856 117.64 204.454 116.99C206.958 117.103 209.379 117.991 211.428 119.549Z" fill="black"/>
<path d="M194.172 121.435C195.303 126.027 202.599 129.707 202.599 129.707C202.599 129.707 207.518 131.392 207.482 129.367C205.284 127.21 204.833 125.138 205.291 123.182C205.615 122.01 206.147 120.918 206.86 119.966C207.242 119.428 207.651 118.912 208.084 118.42L203.788 106.013C202.234 111.169 198.747 120.137 194.172 121.435Z" fill="#E4897B"/>
<path d="M214.936 98.9478C214.936 98.9478 216.783 105.665 210.404 110.489C210.404 110.489 207.726 116.673 206.229 117.446C204.733 118.219 201.353 117.756 200.215 117.446C199.077 117.137 193.184 111.865 194.888 99.4658C196.592 87.0664 206.229 90.9624 206.229 90.9624C206.229 90.9624 209.523 87.8703 215.645 91.7355C220.757 94.9358 219.755 100.919 214.936 98.9478Z" fill="#263238"/>
<path d="M209.537 107.273C209.56 107.957 209.723 108.627 210.014 109.236C210.305 109.844 210.716 110.375 211.22 110.791C212.451 111.641 213.64 109.786 213.776 107.637C213.891 105.727 213.404 102.921 211.929 102.999C210.454 103.076 209.373 105.294 209.537 107.273Z" fill="#E4897B"/>
<path d="M215.724 130.402C215.724 130.402 206.673 119.456 194.58 120.585C182.487 121.714 170.408 131.802 164.343 147.649C158.279 163.496 156.503 187.452 156.503 187.452C156.503 187.452 176.072 193.505 195.969 187.985C200.125 167.919 206.77 148.55 215.724 130.402Z" fill="#263238"/>
<path d="M215.724 130.402C218.781 133.827 227.509 149.527 229.994 150.115C232.478 150.702 236.094 148.29 238.922 149.21C241.75 150.13 244.65 152.913 244.006 154.699C243.361 156.484 236.702 161.239 228.447 161.494C221.38 161.718 206.487 142.717 206.487 142.717C206.487 135.373 215.724 130.402 215.724 130.402Z" fill="#263238"/>
<path d="M216.103 117.377V116.604C216.273 116.598 216.44 116.555 216.594 116.479C216.748 116.402 216.886 116.292 217 116.157C217.114 116.021 217.202 115.862 217.258 115.69C217.315 115.517 217.338 115.333 217.327 115.151C217.327 113.999 214.678 111.51 213.031 110.211L213.447 109.585C213.919 109.948 218.079 113.233 218.072 115.151C218.084 115.438 218.041 115.725 217.948 115.994C217.854 116.263 217.711 116.509 217.527 116.717C217.343 116.925 217.122 117.09 216.877 117.204C216.633 117.317 216.369 117.376 216.103 117.377Z" fill="#263238"/>
<path d="M215.688 107.003C215.688 110.203 213.955 112.801 211.829 112.801C209.702 112.801 207.969 110.203 207.969 107.003C207.969 103.802 209.695 101.213 211.829 101.213C213.962 101.213 215.688 103.802 215.688 107.003Z" fill="#FFD033"/>
<path opacity="0.2" d="M215.688 107.003C215.688 110.203 213.955 112.801 211.829 112.801C209.702 112.801 207.969 110.203 207.969 107.003C207.969 103.802 209.695 101.213 211.829 101.213C213.962 101.213 215.688 103.802 215.688 107.003Z" fill="black"/>
<path d="M213.182 110.822C214.586 110.822 215.724 109.112 215.724 107.003C215.724 104.894 214.586 103.184 213.182 103.184C211.778 103.184 210.64 104.894 210.64 107.003C210.64 109.112 211.778 110.822 213.182 110.822Z" fill="#FFD033"/>
<path d="M214.392 104.235C214.392 104.235 214.592 87.5224 202.936 90.4058C202.936 90.4058 211.65 91.5422 212.244 104.691L214.392 104.235Z" fill="#FFD033"/>
<path d="M216.292 116.374L215.699 116.485C215.5 116.522 215.367 116.726 215.401 116.94L215.457 117.291C215.492 117.505 215.681 117.649 215.879 117.612L216.472 117.501C216.671 117.464 216.804 117.26 216.77 117.046L216.714 116.695C216.679 116.481 216.49 116.337 216.292 116.374Z" fill="#263238"/>
<path d="M151.362 202.673H199.277C200.227 202.673 201.137 203.08 201.809 203.805C202.48 204.53 202.857 205.513 202.857 206.538V211.71H147.782V206.538C147.782 205.513 148.16 204.53 148.831 203.805C149.502 203.08 150.413 202.673 151.362 202.673Z" fill="#FFD033"/>
<path opacity="0.3" d="M151.362 202.673H199.277C200.227 202.673 201.137 203.08 201.809 203.805C202.48 204.53 202.857 205.513 202.857 206.538V211.71H147.782V206.538C147.782 205.513 148.16 204.53 148.831 203.805C149.502 203.08 150.413 202.673 151.362 202.673Z" fill="black"/>
<path d="M142.126 168.064H161.816C167.581 168.064 172.255 163.018 172.255 156.794V148.476C172.255 142.251 167.581 137.205 161.816 137.205H142.126C136.361 137.205 131.687 142.251 131.687 148.476V156.794C131.687 163.018 136.361 168.064 142.126 168.064Z" fill="#FFD033"/>
<g opacity="0.3">
<path d="M142.126 168.064H161.816C167.581 168.064 172.255 163.018 172.255 156.794V148.476C172.255 142.251 167.581 137.205 161.816 137.205H142.126C136.361 137.205 131.687 142.251 131.687 148.476V156.794C131.687 163.018 136.361 168.064 142.126 168.064Z" fill="black"/>
</g>
<path d="M149.88 263.155L170.515 260.967V229.667H178.692V260.959L199.399 263.155C200.392 263.259 201.314 263.758 201.985 264.555C202.656 265.352 203.028 266.391 203.029 267.468V270.816H146.257V267.468C146.258 266.392 146.629 265.355 147.299 264.557C147.968 263.76 148.888 263.26 149.88 263.155Z" fill="#263238"/>
<path opacity="0.2" d="M149.88 263.155L170.515 260.967V229.667H178.692V260.959L199.399 263.155C200.392 263.259 201.314 263.758 201.985 264.555C202.656 265.352 203.028 266.391 203.029 267.468V270.816H146.257V267.468C146.258 266.392 146.629 265.355 147.299 264.557C147.968 263.76 148.888 263.26 149.88 263.155Z" fill="white"/>
<path d="M201.717 280.658C204.633 280.147 206.613 277.181 206.139 274.033C205.666 270.885 202.919 268.747 200.003 269.258C197.087 269.769 195.107 272.735 195.581 275.883C196.054 279.031 198.801 281.169 201.717 280.658Z" fill="#263238"/>
<path d="M152.228 279.051C154.316 276.796 154.316 273.14 152.228 270.885C150.139 268.629 146.752 268.629 144.664 270.885C142.575 273.14 142.575 276.796 144.664 279.051C146.752 281.306 150.139 281.306 152.228 279.051Z" fill="#263238"/>
<path d="M177.138 236.393H172.062C171.278 236.393 170.526 236.056 169.971 235.457C169.416 234.859 169.105 234.047 169.105 233.2V208.509H180.096V233.192C180.096 233.612 180.021 234.028 179.873 234.416C179.724 234.805 179.507 235.157 179.232 235.455C178.957 235.752 178.631 235.988 178.272 236.149C177.913 236.31 177.527 236.393 177.138 236.393Z" fill="#263238"/>
<path opacity="0.3" d="M177.138 236.393H172.062C171.278 236.393 170.526 236.056 169.971 235.457C169.416 234.859 169.105 234.047 169.105 233.2V208.509H180.096V233.192C180.096 233.612 180.021 234.028 179.873 234.416C179.724 234.805 179.507 235.157 179.232 235.455C178.957 235.752 178.631 235.988 178.272 236.149C177.913 236.31 177.527 236.393 177.138 236.393Z" fill="white"/>
<path d="M155.057 159.584C155.057 159.584 153.496 201.328 164.258 208.509H151.971C151.971 208.509 142.448 194.293 145.14 159.584H155.057Z" fill="#263238"/>
<path opacity="0.3" d="M155.057 159.584C155.057 159.584 153.496 201.328 164.258 208.509H151.971C151.971 208.509 142.448 194.293 145.14 159.584H155.057Z" fill="white"/>
<path d="M203.716 207.195H146.93C146.136 207.195 145.491 207.891 145.491 208.749V210.156C145.491 211.014 146.136 211.71 146.93 211.71H203.716C204.511 211.71 205.156 211.014 205.156 210.156V208.749C205.156 207.891 204.511 207.195 203.716 207.195Z" fill="#263238"/>
<path opacity="0.6" d="M203.716 207.195H146.93C146.136 207.195 145.491 207.891 145.491 208.749V210.156C145.491 211.014 146.136 211.71 146.93 211.71H203.716C204.511 211.71 205.156 211.014 205.156 210.156V208.749C205.156 207.891 204.511 207.195 203.716 207.195Z" fill="white"/>
<path d="M155.215 146.582H144.095C140.837 146.582 138.195 149.434 138.195 152.952V157.644C138.195 161.162 140.837 164.014 144.095 164.014H155.215C158.473 164.014 161.114 161.162 161.114 157.644V152.952C161.114 149.434 158.473 146.582 155.215 146.582Z" fill="#263238"/>
<path opacity="0.2" d="M155.215 146.582H144.095C140.837 146.582 138.195 149.434 138.195 152.952V157.644C138.195 161.162 140.837 164.014 144.095 164.014H155.215C158.473 164.014 161.114 161.162 161.114 157.644V152.952C161.114 149.434 158.473 146.582 155.215 146.582Z" fill="white"/>
<path d="M263.948 56H313.052C315.785 56 318 57.0487 318 58.3423V81.5873C318 82.8809 315.785 83.9296 313.052 83.9296H263.948C261.215 83.9296 259 82.8809 259 81.5873V58.3423C259 57.0487 261.215 56 263.948 56Z" fill="#FFD033"/>
<path d="M295.253 82.4327C295.253 82.4327 292.248 90.3021 270.284 93.8503C270.284 93.8503 282.76 88.1454 282.76 82.4327H295.253Z" fill="#FFD033"/>
<path d="M273.368 75.24C273.128 75.24 272.928 75.168 272.768 75.024C272.608 74.88 272.528 74.696 272.528 74.472V66.072C272.528 65.832 272.608 65.64 272.768 65.496C272.928 65.352 273.128 65.28 273.368 65.28C273.624 65.28 273.824 65.352 273.968 65.496C274.128 65.64 274.208 65.832 274.208 66.072V68.496C274.208 68.976 274.432 69.216 274.88 69.216H278.336C278.784 69.216 279.008 68.976 279.008 68.496V66.072C279.008 65.832 279.08 65.64 279.224 65.496C279.384 65.352 279.592 65.28 279.848 65.28C280.104 65.28 280.304 65.352 280.448 65.496C280.608 65.64 280.688 65.832 280.688 66.072V74.472C280.688 74.696 280.608 74.88 280.448 75.024C280.304 75.168 280.104 75.24 279.848 75.24C279.592 75.24 279.384 75.168 279.224 75.024C279.08 74.88 279.008 74.696 279.008 74.472V71.424C279.008 70.944 278.784 70.704 278.336 70.704H274.88C274.432 70.704 274.208 70.944 274.208 71.424V74.472C274.208 74.696 274.128 74.88 273.968 75.024C273.824 75.168 273.624 75.24 273.368 75.24ZM286.092 75.24C284.892 75.24 283.956 74.896 283.284 74.208C282.612 73.52 282.276 72.592 282.276 71.424C282.276 70.4 282.612 69.56 283.284 68.904C283.972 68.248 284.852 67.92 285.924 67.92C286.964 67.92 287.796 68.224 288.42 68.832C289.044 69.424 289.356 70.16 289.356 71.04C289.356 71.392 289.26 71.656 289.068 71.832C288.892 72.008 288.66 72.096 288.372 72.096H284.196C284.036 72.096 283.98 72.184 284.028 72.36C284.156 72.808 284.412 73.16 284.796 73.416C285.196 73.656 285.644 73.776 286.14 73.776C286.508 73.776 286.86 73.728 287.196 73.632C287.548 73.536 287.852 73.392 288.108 73.2C288.188 73.136 288.292 73.104 288.42 73.104C288.596 73.104 288.756 73.184 288.9 73.344C289.044 73.488 289.116 73.664 289.116 73.872C289.116 73.968 289.1 74.064 289.068 74.16C289.036 74.256 288.964 74.352 288.852 74.448C288.436 74.752 287.988 74.96 287.508 75.072C287.044 75.184 286.572 75.24 286.092 75.24ZM287.484 70.848C287.58 70.848 287.628 70.8 287.628 70.704C287.628 70.336 287.46 70.016 287.124 69.744C286.804 69.472 286.404 69.336 285.924 69.336C285.508 69.336 285.108 69.448 284.724 69.672C284.356 69.896 284.132 70.192 284.052 70.56C284.052 70.56 284.052 70.568 284.052 70.584C284.036 70.648 284.028 70.704 284.028 70.752C284.044 70.8 284.116 70.824 284.244 70.824L287.484 70.848ZM291.647 75.24C291.439 75.24 291.247 75.176 291.071 75.048C290.911 74.92 290.831 74.736 290.831 74.496V65.376C290.831 65.104 290.911 64.904 291.071 64.776C291.247 64.632 291.439 64.56 291.647 64.56C291.855 64.56 292.039 64.632 292.199 64.776C292.375 64.904 292.463 65.104 292.463 65.376V74.496C292.463 74.736 292.375 74.92 292.199 75.048C292.039 75.176 291.855 75.24 291.647 75.24ZM295.292 75.24C295.084 75.24 294.892 75.176 294.716 75.048C294.556 74.92 294.476 74.736 294.476 74.496V65.376C294.476 65.104 294.556 64.904 294.716 64.776C294.892 64.632 295.084 64.56 295.292 64.56C295.5 64.56 295.684 64.632 295.844 64.776C296.02 64.904 296.108 65.104 296.108 65.376V74.496C296.108 74.736 296.02 74.92 295.844 75.048C295.684 75.176 295.5 75.24 295.292 75.24ZM301.362 75.24C300.658 75.24 300.018 75.08 299.442 74.76C298.882 74.44 298.442 74 298.122 73.44C297.802 72.864 297.642 72.224 297.642 71.52C297.642 70.832 297.802 70.216 298.122 69.672C298.442 69.128 298.882 68.704 299.442 68.4C300.018 68.08 300.658 67.92 301.362 67.92C302.066 67.92 302.698 68.08 303.258 68.4C303.818 68.704 304.258 69.128 304.578 69.672C304.914 70.216 305.082 70.832 305.082 71.52C305.082 72.224 304.914 72.864 304.578 73.44C304.258 74 303.818 74.44 303.258 74.76C302.698 75.08 302.066 75.24 301.362 75.24ZM301.362 73.752C301.986 73.752 302.49 73.552 302.874 73.152C303.258 72.736 303.45 72.192 303.45 71.52C303.45 70.88 303.258 70.368 302.874 69.984C302.49 69.6 301.986 69.408 301.362 69.408C300.722 69.408 300.21 69.6 299.826 69.984C299.458 70.368 299.274 70.88 299.274 71.52C299.274 72.192 299.458 72.736 299.826 73.152C300.21 73.552 300.722 73.752 301.362 73.752Z" fill="white"/>
</svg>
