<svg width="24" height="24" viewBox="0 0 24 24" fill="none" xmlns="http://www.w3.org/2000/svg">
<path d="M11.9999 2.3999C17.3018 2.3999 21.5999 6.69797 21.5999 11.9999C21.5999 17.3018 17.3018 21.5999 11.9999 21.5999C6.69797 21.5999 2.3999 17.3018 2.3999 11.9999C2.3999 6.69797 6.69797 2.3999 11.9999 2.3999ZM9.37122 8.53636C9.13738 8.37437 8.81407 8.39751 8.60579 8.60579L8.53636 8.68889C8.37437 8.92273 8.39751 9.24604 8.60579 9.45432L11.1514 11.9999L8.60579 14.5455L8.53636 14.6286C8.37437 14.8624 8.39751 15.1857 8.60579 15.394L8.68889 15.4634C8.92273 15.6254 9.24604 15.6023 9.45432 15.394L11.9999 12.8484L14.5455 15.394L14.6286 15.4634C14.8624 15.6254 15.1857 15.6023 15.394 15.394L15.4634 15.3109C15.6254 15.0771 15.6023 14.7538 15.394 14.5455L12.8484 11.9999L15.394 9.45432L15.4634 9.37122C15.6254 9.13738 15.6023 8.81407 15.394 8.60579L15.3109 8.53636C15.0771 8.37437 14.7538 8.39751 14.5455 8.60579L11.9999 11.1514L9.45432 8.60579L9.37122 8.53636Z" fill="#728091"/>
</svg>
