<svg width="21" height="21" viewBox="0 0 21 21" fill="none" xmlns="http://www.w3.org/2000/svg">
<path d="M10.7773 2.5C15.1956 2.5 18.7773 6.08172 18.7773 10.5C18.7773 14.9183 15.1956 18.5 10.7773 18.5C6.35907 18.5 2.77734 14.9183 2.77734 10.5C2.77734 6.08172 6.35907 2.5 10.7773 2.5ZM8.58678 7.61372C8.39191 7.47872 8.12248 7.49801 7.94892 7.67157L7.89106 7.74082C7.75607 7.93569 7.77535 8.20511 7.94892 8.37868L10.0702 10.5L7.94892 12.6213L7.89106 12.6906C7.75607 12.8854 7.77535 13.1549 7.94892 13.3284L8.01816 13.3863C8.21303 13.5213 8.48246 13.502 8.65602 13.3284L10.7773 11.2071L12.8987 13.3284L12.9679 13.3863C13.1628 13.5213 13.4322 13.502 13.6058 13.3284L13.6636 13.2592C13.7986 13.0643 13.7793 12.7949 13.6058 12.6213L11.4845 10.5L13.6058 8.37868L13.6636 8.30943C13.7986 8.11456 13.7793 7.84514 13.6058 7.67157L13.5365 7.61372C13.3417 7.47872 13.0722 7.49801 12.8987 7.67157L10.7773 9.79289L8.65602 7.67157L8.58678 7.61372Z" fill="#FA7066"/>
</svg>
