<svg width="28" height="28" viewBox="0 0 28 28" fill="none" xmlns="http://www.w3.org/2000/svg">
<path d="M13.9867 0.666626C6.62675 0.666626 0.666748 6.63996 0.666748 14C0.666748 21.36 6.62675 27.3333 13.9867 27.3333C21.3601 27.3333 27.3334 21.36 27.3334 14C27.3334 6.63996 21.3601 0.666626 13.9867 0.666626ZM23.2267 8.66663H19.2934C18.8667 6.99996 18.2534 5.39996 17.4534 3.91996C19.9067 4.75996 21.9467 6.46663 23.2267 8.66663ZM14.0001 3.38663C15.1067 4.98663 15.9734 6.75996 16.5467 8.66663H11.4534C12.0267 6.75996 12.8934 4.98663 14.0001 3.38663ZM3.68008 16.6666C3.46675 15.8133 3.33341 14.92 3.33341 14C3.33341 13.08 3.46675 12.1866 3.68008 11.3333H8.18675C8.08008 12.2133 8.00008 13.0933 8.00008 14C8.00008 14.9066 8.08008 15.7866 8.18675 16.6666H3.68008ZM4.77341 19.3333H8.70675C9.13341 21 9.74675 22.6 10.5467 24.08C8.09341 23.24 6.05341 21.5466 4.77341 19.3333ZM8.70675 8.66663H4.77341C6.05341 6.45329 8.09341 4.75996 10.5467 3.91996C9.74675 5.39996 9.13341 6.99996 8.70675 8.66663ZM14.0001 24.6133C12.8934 23.0133 12.0267 21.24 11.4534 19.3333H16.5467C15.9734 21.24 15.1067 23.0133 14.0001 24.6133ZM17.1201 16.6666H10.8801C10.7601 15.7866 10.6667 14.9066 10.6667 14C10.6667 13.0933 10.7601 12.2 10.8801 11.3333H17.1201C17.2401 12.2 17.3334 13.0933 17.3334 14C17.3334 14.9066 17.2401 15.7866 17.1201 16.6666ZM17.4534 24.08C18.2534 22.6 18.8667 21 19.2934 19.3333H23.2267C21.9467 21.5333 19.9067 23.24 17.4534 24.08ZM19.8134 16.6666C19.9201 15.7866 20.0001 14.9066 20.0001 14C20.0001 13.0933 19.9201 12.2133 19.8134 11.3333H24.3201C24.5334 12.1866 24.6667 13.08 24.6667 14C24.6667 14.92 24.5334 15.8133 24.3201 16.6666H19.8134Z" fill="black"/>
</svg>
