<svg width="28" height="27" viewBox="0 0 28 27" fill="none" xmlns="http://www.w3.org/2000/svg">
<path d="M8.10679 2.44004L6.20012 0.533374C3.00012 2.97337 0.893454 6.73337 0.706787 11H3.37345C3.57345 7.46671 5.38679 4.37337 8.10679 2.44004ZM24.6268 11H27.2935C27.0935 6.73337 24.9868 2.97337 21.8001 0.533374L19.9068 2.44004C22.6001 4.37337 24.4268 7.46671 24.6268 11ZM22.0001 11.6667C22.0001 7.57337 19.8135 4.14671 16.0001 3.24004V2.33337C16.0001 1.22671 15.1068 0.333374 14.0001 0.333374C12.8935 0.333374 12.0001 1.22671 12.0001 2.33337V3.24004C8.17345 4.14671 6.00012 7.56004 6.00012 11.6667V18.3334L3.33345 21V22.3334H24.6668V21L22.0001 18.3334V11.6667ZM14.0001 26.3334C14.1868 26.3334 14.3601 26.32 14.5335 26.28C15.4001 26.0934 16.1068 25.5067 16.4535 24.7067C16.5868 24.3867 16.6535 24.04 16.6535 23.6667H11.3201C11.3335 25.1334 12.5201 26.3334 14.0001 26.3334Z" fill="black"/>
</svg>
