<!DOCTYPE svg PUBLIC "-//W3C//DTD SVG 1.1//EN" "http://www.w3.org/Graphics/SVG/1.1/DTD/svg11.dtd">
<!-- Uploaded to: SVG Repo, www.svgrepo.com, Transformed by: SVG Repo Mixer Tools -->
<svg fill="#000000" version="1.1" id="Capa_1" xmlns="http://www.w3.org/2000/svg" xmlns:xlink="http://www.w3.org/1999/xlink" width="64px" height="64px" viewBox="0 0 370.49 370.49" xml:space="preserve" transform="rotate(270)">
<g id="SVGRepo_bgCarrier" stroke-width="0"/>
<g id="SVGRepo_tracerCarrier" stroke-linecap="round" stroke-linejoin="round"/>
<g id="SVGRepo_iconCarrier"> <g> <g> <path d="M259.011,160.89c8.041-3.002,15.061-7.833,19.264-13.253c3.219-4.155,4.456-8.19,3.375-11.072 c-1.501-4.029-8.028-6.741-16.231-6.741c-5.368,0-11.181,1.114-16.813,3.209c-8.034,3.002-15.054,7.827-19.263,13.253 c-3.213,4.155-4.456,8.19-3.375,11.072c1.501,4.026,8.022,6.741,16.23,6.741C247.554,164.105,253.379,162.992,259.011,160.89z"/> <path d="M122.363,96.915c-7.022,0-14.862,12.703-14.862,29.717c0,17.015,7.839,29.724,14.862,29.724 c7.023,0,14.862-12.709,14.862-29.724C137.225,109.618,129.386,96.915,122.363,96.915z"/> <path d="M198.225,65.348c-0.469-0.117-0.937-0.165-1.43-0.165c-6.653,0-16.204,9.758-20.047,25.523 c-2.026,8.337-1.972,16.865,0.15,23.389c1.627,4.999,4.278,8.29,7.266,9.016c6.746,1.666,17.352-8.425,21.471-25.364 C209.651,81.212,205.04,67.014,198.225,65.348z"/> <path d="M357.982,163.301C332.365,71.761,255.631,7.831,171.362,7.831c-14.721,0-29.379,2.018-43.571,5.99 C31.475,40.776-21.983,151.697,8.626,261.077c9.917,35.459,22.272,79.582,56.268,97.386c5.314,2.787,11.13,4.197,17.267,4.197 c10.565,0,21.92-4.323,31.174-11.871c20.371-16.621,22.206-46.285,23.827-72.454c1.552-25.094,3.198-40.454,12.938-42.171 c0.457-0.084,0.913-0.127,1.372-0.127c11.34,0,30.192,20.236,46.82,38.095c26.234,28.156,56.469,60.229,88.637,56.385 c32.089-3.854,54.613-14.712,66.947-32.257C380.422,260.476,370.016,206.29,357.982,163.301z M76.922,308.695 c-21.464,0-38.936-17.468-38.936-38.935c0-21.462,17.471-38.936,38.936-38.936c21.473,0,38.935,17.474,38.935,38.936 C115.856,291.227,98.401,308.695,76.922,308.695z M122.363,174.803c-18.681,0-33.309-21.158-33.309-48.171 c0-27.012,14.628-48.164,33.309-48.164c18.681,0,33.309,21.152,33.309,48.164C155.671,153.645,141.044,174.803,122.363,174.803z M185.6,141.723c-1.958,0-3.912-0.234-5.801-0.694c-9.334-2.27-16.78-10.004-20.438-21.215 c-3.204-9.833-3.396-21.719-0.528-33.461c5.675-23.323,21.281-39.611,37.962-39.611c1.952,0,3.903,0.231,5.795,0.693 c18.146,4.417,27.357,28.433,20.975,54.677C217.884,125.435,202.271,141.723,185.6,141.723z M208.685,163.817 c-3.368-8.999-1.152-19.506,6.071-28.829c6.341-8.175,16.068-15.003,27.394-19.233c7.675-2.864,15.727-4.377,23.263-4.377 c16.604,0,29.135,7.005,33.513,18.735c3.356,8.998,1.147,19.506-6.083,28.826c-6.329,8.172-16.057,14.997-27.382,19.236 c-7.68,2.864-15.721,4.377-23.269,4.377C225.588,182.552,213.057,175.547,208.685,163.817z M334.533,223.637 c-2.672,15.33-19.144,25.628-41.019,25.628c-4.005,0-8.089-0.354-12.153-1.062c-26.613-4.636-44.946-22.674-41.746-41.078 c2.673-15.324,19.155-25.617,41.025-25.617c3.999,0,8.094,0.354,12.153,1.063C319.401,187.2,337.728,205.245,334.533,223.637z"/> <path d="M289.63,200.747c-3.015-0.522-6.041-0.786-8.989-0.786c-13.175,0-21.96,5.248-22.849,10.334 c-1.201,6.912,9.974,16.819,26.745,19.744c3.009,0.521,6.023,0.786,8.978,0.786c13.175,0,21.953-5.248,22.849-10.34 C317.563,213.573,306.383,203.66,289.63,200.747z"/> <path d="M76.922,249.271c-11.295,0-20.489,9.193-20.489,20.489c0,11.301,9.193,20.488,20.489,20.488 c11.301,0,20.488-9.188,20.488-20.488C97.41,258.464,88.223,249.271,76.922,249.271z"/> </g> </g> </g>
</svg>