<svg width="28" height="28" viewBox="0 0 28 28" fill="none" xmlns="http://www.w3.org/2000/svg">
<path d="M12.6667 7.33329H15.3334V9.99996H12.6667V7.33329ZM12.6667 12.6666H15.3334V20.6666H12.6667V12.6666ZM14.0001 0.666626C6.64008 0.666626 0.666748 6.63996 0.666748 14C0.666748 21.36 6.64008 27.3333 14.0001 27.3333C21.3601 27.3333 27.3334 21.36 27.3334 14C27.3334 6.63996 21.3601 0.666626 14.0001 0.666626ZM14.0001 24.6666C8.12008 24.6666 3.33341 19.88 3.33341 14C3.33341 8.11996 8.12008 3.33329 14.0001 3.33329C19.8801 3.33329 24.6667 8.11996 24.6667 14C24.6667 19.88 19.8801 24.6666 14.0001 24.6666Z" fill="black"/>
</svg>
