<svg width="20" height="20" viewBox="0 0 20 20" fill="none" xmlns="http://www.w3.org/2000/svg">
<path d="M10 1.66699C14.6025 1.66699 18.3334 5.39866 18.3334 10.0003C18.3334 14.602 14.6025 18.3337 10 18.3337C5.39752 18.3337 1.66669 14.602 1.66669 10.0003C1.66669 5.39866 5.39752 1.66699 10 1.66699ZM10.0015 12.5034C9.5419 12.5034 9.1693 12.876 9.1693 13.3356C9.1693 13.7953 9.5419 14.1679 10.0015 14.1679C10.4611 14.1679 10.8337 13.7953 10.8337 13.3356C10.8337 12.876 10.4611 12.5034 10.0015 12.5034ZM9.99972 5.83366C9.57236 5.83381 9.22025 6.15564 9.17226 6.57011L9.16669 6.66729L9.16819 10.8347L9.17383 10.9319C9.22212 11.3463 9.57446 11.6679 10.0018 11.6677C10.4292 11.6676 10.7813 11.3457 10.8293 10.9313L10.8349 10.8341L10.8334 6.66669L10.8277 6.56951C10.7794 6.15508 10.4271 5.83351 9.99972 5.83366Z" fill="white"/>
</svg>
