<svg width="20" height="20" viewBox="0 0 20 20" fill="none" xmlns="http://www.w3.org/2000/svg">
<path d="M9.99996 1.66577C14.6023 1.66577 18.3333 5.39673 18.3333 9.99911C18.3333 14.6015 14.6023 18.3324 9.99996 18.3324C5.39759 18.3324 1.66663 14.6015 1.66663 9.99911C1.66663 5.39673 5.39759 1.66577 9.99996 1.66577ZM12.683 7.47383L8.95829 11.1986L7.3169 9.55716C7.07282 9.31309 6.6771 9.31309 6.43302 9.55716C6.18894 9.80124 6.18894 10.197 6.43302 10.441L8.51635 12.5244C8.76043 12.7685 9.15616 12.7685 9.40023 12.5244L13.5669 8.35771C13.811 8.11364 13.811 7.71791 13.5669 7.47383C13.3228 7.22975 12.9271 7.22975 12.683 7.47383Z" fill="white"/>
</svg>
